<svg  xmlns="http://www.w3.org/2000/svg" xmlns:xlink="http://www.w3.org/1999/xlink" width="800" height="200" viewBox="0 0 824 224"><path transform="translate(0 100)" d="M45.7031,-76.9531L46.0938,-76.9531Q46.875,-76.9531 51.5625,-74.2188Q55.4688,-73.8281 55.4688,-71.4844Q55.4688,-70.3125 54.2969,-67.9688Q53.9062,-66.0156 52.7344,-66.0156L52.3438,-66.0156L50,-65.625L49.6094,-65.2344L49.6094,-64.8438L49.6094,-64.8438Q49.6094,-64.4531 48.8281,-64.4531L48.8281,-65.2344L48.4375,-65.2344L47.6562,-64.8438Q47.6562,-64.4531 49.6094,-64.0625Q50.7812,-64.0625 52.3438,-64.4531Q53.9062,-64.0625 53.9062,-62.8906Q53.9062,-62.5 53.9062,-61.3281L53.9062,-60.5469Q53.9062,-60.1562 55.0781,-59.375L55.8594,-59.375Q61.3281,-60.5469 62.8906,-60.9375Q64.0625,-61.3281 66.7969,-62.5Q67.9688,-62.8906 68.3594,-62.8906L70.3125,-62.8906Q72.6562,-62.5 75,-60.9375Q77.7344,-58.9844 78.5156,-58.2031Q78.9062,-58.2031 79.2969,-55.4688L79.2969,-55.0781Q79.2969,-53.5156 76.9531,-51.9531Q73.0469,-48.0469 72.2656,-46.0938Q69.5312,-41.7969 69.5312,-41.4062L69.5312,-41.0156Q69.5312,-39.4531 69.9219,-39.4531Q71.0938,-37.8906 71.0938,-37.1094Q70.7031,-35.5469 69.1406,-35.5469L61.3281,-35.5469L56.6406,-35.1562Q56.25,-34.7656 55.0781,-34.7656L54.6875,-34.7656Q53.125,-34.375 53.125,-33.5938L53.125,-18.3594Q53.125,-17.5781 52.3438,-13.6719Q52.3438,-12.8906 51.5625,-9.76562Q51.5625,-9.375 51.1719,-6.64062Q51.1719,-5.07812 49.6094,0.390625Q49.6094,1.17188 49.6094,2.73438Q48.8281,5.07812 47.6562,5.07812L47.6562,5.07812Q47.2656,5.07812 46.4844,0.78125L46.4844,-4.6875Q46.4844,-5.07812 45.7031,-9.375L45.7031,-25L45.7031,-30.8594L45.7031,-32.4219Q45.7031,-33.2031 44.9219,-33.2031L44.9219,-33.2031L41.0156,-32.4219Q37.1094,-31.25 35.5469,-31.25Q34.375,-30.8594 33.2031,-29.2969Q32.0312,-28.125 31.25,-28.125Q29.6875,-28.125 27.7344,-32.4219Q26.5625,-35.5469 26.5625,-36.3281L25.7812,-41.0156L23.0469,-48.0469Q20.7031,-51.9531 20.7031,-53.125L20.7031,-53.125Q20.7031,-54.2969 22.2656,-54.6875Q24.6094,-54.2969 28.125,-52.7344Q29.2969,-52.3438 30.4688,-50.7812Q31.25,-49.2188 31.25,-46.875Q32.0312,-44.9219 32.0312,-44.1406L32.0312,-42.9688Q32.0312,-42.5781 33.5938,-35.9375Q33.9844,-35.1562 34.375,-35.1562L35.1562,-35.1562L41.4062,-36.3281Q44.1406,-36.3281 45.3125,-39.0625L45.3125,-46.0938L44.5312,-50.7812Q44.1406,-50.7812 43.75,-51.5625L43.3594,-51.5625Q41.7969,-51.1719 35.5469,-49.6094L35.1562,-49.6094Q33.5938,-49.6094 31.25,-52.7344L31.25,-53.125Q31.25,-53.9062 33.9844,-54.2969Q35.1562,-55.0781 36.3281,-55.0781Q38.2812,-55.4688 39.0625,-55.4688L40.2344,-55.4688Q44.5312,-56.25 44.5312,-58.2031L44.5312,-64.8438Q44.1406,-66.7969 43.3594,-69.9219L41.4062,-73.0469L41.4062,-73.4375Q41.7969,-75 43.3594,-76.1719Q44.9219,-76.9531 45.7031,-76.9531ZM46.875,-64.4531L46.875,-64.0625L46.875,-64.0625Q47.2656,-64.0625 47.6562,-64.4531Q47.6562,-64.8438 47.2656,-64.8438L47.2656,-64.8438Q46.875,-64.8438 46.875,-64.4531ZM52.3438,-62.5L52.3438,-62.5Q52.3438,-62.1094 52.7344,-62.1094L52.7344,-62.1094Q53.125,-62.1094 53.125,-62.5L53.125,-62.8906L53.125,-62.8906L52.7344,-62.8906L52.3438,-62.5ZM52.7344,-58.2031L52.7344,-58.2031L52.7344,-57.8125L52.7344,-57.8125Q53.125,-57.8125 53.125,-58.2031L53.125,-58.5938L53.125,-58.5938L52.7344,-58.5938L52.7344,-58.2031ZM76.9531,-57.4219L76.9531,-57.0312L77.3438,-57.0312L77.3438,-57.0312L77.3438,-57.4219L77.3438,-57.4219L76.9531,-57.4219ZM53.125,-52.7344Q53.125,-48.8281 53.125,-46.4844L53.125,-41.4062Q53.125,-40.2344 54.6875,-39.4531L55.0781,-39.4531Q58.2031,-40.2344 58.9844,-40.2344L59.7656,-40.2344Q62.8906,-40.625 62.8906,-42.9688Q63.6719,-46.0938 63.6719,-46.4844Q63.6719,-47.2656 64.0625,-50.3906L64.0625,-52.3438Q64.4531,-53.5156 64.4531,-53.9062Q64.0625,-55.4688 62.8906,-55.4688L61.3281,-55.4688Q58.2031,-54.6875 57.4219,-54.6875Q53.125,-54.2969 53.125,-52.7344L53.125,-52.7344ZM50.3906,-54.2969L50.3906,-54.2969L51.1719,-53.9062L51.5625,-53.9062L51.5625,-53.9062L50.7812,-54.6875Q50.3906,-54.6875 50.3906,-54.2969ZM53.125,-37.8906L53.125,-37.8906Q53.125,-37.1094 53.5156,-37.1094L53.5156,-37.1094Q53.9062,-37.1094 53.9062,-37.5L53.9062,-37.5Q53.5156,-37.8906 53.125,-37.8906L53.125,-37.8906ZM37.5,-33.5938L37.5,-33.2031L37.5,-33.2031L37.5,-32.8125L37.8906,-32.8125L37.8906,-33.2031Q37.8906,-33.5938 37.5,-33.5938L37.5,-33.5938ZM48.4375,-30.8594L48.4375,-30.8594L48.4375,-30.8594L48.4375,-30.8594L48.4375,-30.8594L48.4375,-30.8594L48.4375,-30.8594Z"></path><path transform="translate(100 100)" d="M49.2188,-70.3125L50,-70.3125Q51.1719,-70.3125 53.9062,-68.3594Q57.8125,-67.1875 58.9844,-65.625Q60.5469,-63.2812 60.5469,-62.1094L60.5469,-62.1094Q60.5469,-61.3281 58.9844,-57.8125L58.9844,-57.4219L58.9844,-57.4219Q58.9844,-57.0312 59.375,-56.6406L59.375,-56.6406Q60.9375,-57.0312 63.2812,-58.2031L65.2344,-60.5469Q66.4062,-61.3281 67.1875,-61.3281Q67.9688,-61.3281 68.75,-60.5469L68.75,-60.5469L69.1406,-60.9375L69.5312,-60.9375Q69.5312,-60.1562 69.5312,-59.7656L69.5312,-59.375L69.5312,-59.375Q70.3125,-59.7656 70.3125,-60.1562Q70.3125,-60.9375 69.9219,-61.3281L69.9219,-61.3281Q69.9219,-62.1094 70.7031,-62.1094L71.875,-61.3281L72.6562,-60.9375Q74.2188,-61.3281 75,-61.3281L75.7812,-61.3281Q78.125,-61.3281 80.0781,-58.2031Q80.4688,-57.4219 80.4688,-57.0312Q80.4688,-55.8594 78.125,-54.6875Q76.9531,-54.6875 76.5625,-54.6875L73.0469,-55.0781L72.6562,-55.0781L68.75,-54.6875L67.1875,-54.6875Q62.8906,-53.9062 59.7656,-53.125Q57.0312,-53.125 54.2969,-50Q53.5156,-49.2188 53.5156,-48.4375L53.5156,-48.4375Q53.5156,-47.6562 56.25,-45.7031Q59.375,-44.5312 59.375,-42.5781L59.375,-41.7969Q58.9844,-39.8438 57.0312,-34.375Q56.25,-31.25 54.6875,-28.5156L54.6875,-27.7344Q54.6875,-26.9531 58.2031,-23.8281Q60.5469,-21.0938 62.1094,-20.3125Q63.6719,-19.5312 65.2344,-17.9688Q68.3594,-16.4062 71.0938,-14.0625Q74.6094,-11.7188 79.6875,-9.76562Q80.4688,-9.375 85.9375,-7.42188L91.7969,-5.07812L91.7969,-5.07812Q89.4531,-4.6875 87.1094,-4.6875L83.9844,-4.6875Q78.125,-3.51562 75,-1.95312Q73.4375,-1.17188 72.6562,-1.17188L72.2656,-1.17188Q70.7031,-1.17188 67.9688,-3.125Q66.0156,-4.29688 61.7188,-8.20312Q60.5469,-8.98438 52.7344,-16.0156Q50,-19.5312 48.8281,-19.5312L48.4375,-19.5312Q47.6562,-19.5312 44.9219,-16.4062Q42.9688,-14.8438 39.4531,-12.8906Q33.2031,-8.59375 25.3906,-6.25Q22.6562,-4.6875 18.75,-3.90625Q17.9688,-3.51562 16.4062,-3.125L15.625,-3.51562Q15.625,-4.29688 18.3594,-4.6875Q19.1406,-5.07812 22.6562,-6.25Q25.3906,-7.42188 32.4219,-12.8906Q36.3281,-15.625 39.8438,-19.5312Q44.5312,-24.6094 44.5312,-26.1719L44.5312,-26.5625Q44.1406,-28.5156 41.0156,-32.0312Q37.8906,-35.5469 37.5,-36.3281L37.1094,-36.7188Q37.8906,-37.5 38.6719,-37.5L39.4531,-37.5Q39.8438,-37.5 41.4062,-37.5Q44.1406,-37.1094 45.7031,-35.9375Q48.0469,-33.5938 48.4375,-33.5938L48.8281,-33.5938Q50,-33.5938 50,-34.7656Q50.7812,-37.8906 51.1719,-39.0625L51.1719,-42.9688Q50.3906,-45.7031 49.6094,-46.4844Q49.6094,-46.875 47.6562,-48.4375Q46.875,-48.8281 46.4844,-48.8281Q45.3125,-48.8281 34.375,-43.75Q33.5938,-43.75 29.2969,-41.0156L25.7812,-39.4531L25.7812,-39.4531Q24.6094,-39.4531 20.7031,-42.9688Q19.5312,-44.1406 19.5312,-44.9219Q19.5312,-45.7031 21.875,-46.0938Q24.2188,-46.875 29.6875,-48.4375Q32.0312,-49.2188 38.2812,-50.7812Q39.0625,-50.7812 43.75,-52.7344Q47.6562,-53.5156 48.0469,-54.6875Q48.4375,-55.0781 48.4375,-55.4688L48.4375,-57.0312Q47.6562,-61.3281 45.3125,-64.0625Q42.9688,-66.0156 42.9688,-67.5781L42.9688,-67.9688Q43.3594,-69.9219 45.3125,-69.9219L47.2656,-69.9219Q48.8281,-70.3125 49.2188,-70.3125ZM76.1719,-57.4219L76.1719,-57.0312L76.5625,-56.6406L76.5625,-56.6406L76.9531,-57.0312L76.9531,-57.4219L76.5625,-57.4219L76.1719,-57.4219L76.1719,-57.4219ZM72.2656,-56.6406Q72.2656,-56.25 72.6562,-56.25Q73.0469,-56.25 73.0469,-56.6406L72.6562,-56.6406L72.2656,-56.6406L72.2656,-56.6406ZM30.4688,-46.875L30.4688,-46.875L30.4688,-46.4844L30.8594,-46.4844Q31.25,-46.875 31.25,-47.2656L31.25,-47.2656L30.8594,-47.2656Q30.4688,-47.2656 30.4688,-46.875ZM41.0156,-36.7188L41.0156,-36.3281L41.0156,-36.3281Q41.0156,-35.9375 41.4062,-35.9375L41.7969,-36.3281Q41.4062,-36.7188 41.0156,-36.7188ZM53.9062,-32.0312L53.9062,-32.0312Q53.9062,-31.25 54.2969,-30.8594Q54.6875,-30.8594 54.6875,-31.6406L53.9062,-32.0312ZM52.3438,-29.2969L52.3438,-29.2969L52.3438,-29.2969L52.3438,-29.2969L52.7344,-29.2969L52.3438,-29.6875L52.3438,-29.2969ZM43.75,-20.3125L44.1406,-19.9219Q44.5312,-19.9219 44.5312,-20.3125L44.5312,-20.7031L44.1406,-20.7031Q43.75,-20.7031 43.75,-20.3125ZM38.2812,-15.625L38.2812,-15.625L38.6719,-15.625Q39.4531,-15.625 39.4531,-16.4062L39.4531,-16.4062Q38.2812,-16.4062 38.2812,-15.625ZM59.375,-14.4531Q59.375,-14.0625 60.1562,-13.6719L60.1562,-13.6719Q60.1562,-14.4531 59.7656,-14.8438L59.375,-14.8438L59.375,-14.4531ZM68.3594,-14.8438L68.3594,-14.4531L68.75,-14.0625L68.75,-14.0625L68.75,-14.0625L68.75,-14.4531L68.75,-14.8438L68.3594,-14.8438L68.3594,-14.8438ZM67.9688,-10.9375L67.9688,-10.5469L67.9688,-10.5469Q68.75,-10.5469 68.75,-10.9375L68.75,-10.9375L68.75,-11.3281Q68.3594,-11.3281 67.9688,-10.9375ZM69.9219,-10.1562L69.9219,-9.76562L69.9219,-9.76562L69.9219,-9.76562L70.3125,-9.76562L70.3125,-10.1562L69.9219,-10.5469L69.9219,-10.5469L69.9219,-10.1562ZM72.2656,-9.375L72.2656,-8.98438L72.2656,-8.98438L72.2656,-9.375L72.2656,-9.375Z"></path><path transform="translate(200 100)" d="M30.4688,-70.3125Q31.25,-70.3125 33.5938,-67.9688Q37.8906,-64.8438 37.8906,-63.6719Q37.8906,-62.8906 33.9844,-59.7656L23.8281,-48.4375Q23.0469,-47.6562 23.0469,-47.2656L23.0469,-47.2656Q23.0469,-45.7031 26.9531,-44.5312Q27.3438,-44.1406 28.125,-44.1406L28.5156,-44.1406Q29.2969,-44.1406 30.8594,-46.875Q31.25,-47.6562 33.2031,-51.5625Q33.2031,-52.7344 33.5938,-54.2969Q33.9844,-55.4688 35.5469,-55.4688Q36.7188,-55.4688 40.2344,-51.5625Q40.625,-51.1719 40.625,-50.7812Q40.625,-49.6094 37.5,-46.875Q34.7656,-44.1406 31.6406,-39.4531Q30.8594,-38.6719 28.9062,-35.5469L28.9062,-34.7656L28.9062,-34.7656Q28.9062,-33.9844 29.2969,-33.9844L33.2031,-34.7656Q33.9844,-35.5469 33.9844,-37.1094Q33.9844,-38.6719 33.5938,-40.2344L33.5938,-40.2344Q33.9844,-40.2344 34.375,-39.8438Q35.5469,-39.8438 39.0625,-35.9375Q39.8438,-34.375 39.8438,-33.5938L39.8438,-32.8125Q39.8438,-31.25 37.8906,-29.6875Q37.5,-29.2969 37.1094,-29.2969L37.1094,-29.2969Q35.9375,-29.2969 35.5469,-30.8594Q35.5469,-32.4219 34.375,-32.4219L33.9844,-32.8125L33.5938,-32.8125L29.2969,-30.8594L29.2969,-30.8594L29.2969,-30.4688Q29.2969,-29.6875 31.25,-28.9062Q33.2031,-26.1719 35.5469,-25.7812Q39.4531,-24.6094 40.625,-23.4375Q42.5781,-21.875 42.5781,-20.7031Q42.5781,-19.5312 40.625,-17.9688L40.2344,-17.9688Q38.6719,-17.9688 36.7188,-21.0938Q34.375,-24.6094 33.5938,-24.6094Q32.0312,-24.6094 32.0312,-23.4375L32.0312,-22.6562L32.0312,-10.1562Q32.0312,-8.59375 30.4688,-4.6875Q29.2969,-2.34375 27.7344,-2.34375Q26.5625,-2.34375 26.1719,-5.85938L26.1719,-9.76562Q26.1719,-10.5469 26.1719,-12.1094L26.1719,-14.8438Q26.5625,-18.75 26.5625,-19.1406L26.1719,-23.8281L26.1719,-26.5625Q25.7812,-28.5156 25.3906,-28.5156L25,-28.5156Q20.7031,-26.1719 19.1406,-25.3906Q17.9688,-25.7812 17.9688,-26.5625L17.9688,-30.4688Q17.9688,-32.4219 21.4844,-32.8125Q23.4375,-33.5938 25,-35.5469Q26.5625,-39.8438 26.5625,-40.2344L26.5625,-40.625Q26.5625,-41.4062 25.7812,-41.4062L25.3906,-41.4062Q23.0469,-40.625 22.2656,-40.625L19.1406,-40.625Q16.7969,-40.625 16.4062,-43.75Q16.7969,-45.7031 17.5781,-46.4844Q21.0938,-48.8281 21.875,-50.7812Q24.2188,-54.6875 25.3906,-56.6406Q25.3906,-57.0312 26.9531,-59.7656Q28.5156,-63.6719 28.9062,-65.2344L28.9062,-66.0156Q28.9062,-66.4062 28.5156,-68.3594Q28.5156,-69.5312 28.9062,-69.9219Q29.6875,-70.3125 30.4688,-70.3125ZM76.1719,-68.75Q76.9531,-68.75 79.2969,-66.4062Q80.0781,-65.625 82.4219,-64.4531Q83.9844,-62.8906 83.9844,-62.1094L82.4219,-57.0312L82.4219,-40.2344L83.2031,-36.3281L83.2031,-34.375Q83.2031,-33.5938 83.5938,-32.0312Q83.5938,-31.25 83.5938,-29.2969L83.9844,-25.7812L83.9844,-21.0938L84.375,-17.1875Q83.9844,-13.6719 83.9844,-13.2812L83.9844,-11.7188Q83.9844,-10.5469 82.0312,-5.46875Q79.6875,-1.95312 77.7344,-1.17188Q76.1719,-1.17188 75.7812,-4.6875Q75.7812,-6.25 71.875,-10.5469Q69.9219,-12.1094 68.75,-13.6719L69.1406,-13.6719Q70.3125,-13.6719 72.6562,-12.8906L74.2188,-12.8906Q76.1719,-12.8906 76.5625,-16.4062L76.5625,-23.8281Q76.5625,-27.7344 75.7812,-31.25L75.7812,-39.4531L75.3906,-41.7969Q75.7812,-44.5312 75.7812,-45.3125L75.7812,-45.7031Q75.3906,-49.6094 75.3906,-50.3906L75.3906,-56.25Q75.3906,-57.0312 74.2188,-60.5469Q73.4375,-62.5 71.875,-62.5Q69.5312,-62.1094 67.5781,-61.7188Q65.625,-61.3281 62.5,-59.7656Q56.6406,-57.4219 56.25,-57.4219Q55.8594,-57.0312 55.4688,-57.0312L55.4688,-56.6406Q55.4688,-55.8594 57.8125,-54.2969Q60.5469,-52.3438 60.5469,-50.7812L60.5469,-50.3906Q60.5469,-48.8281 58.5938,-47.6562Q58.2031,-47.2656 57.8125,-47.2656Q57.0312,-47.2656 56.25,-49.2188Q55.4688,-53.125 54.6875,-54.2969Q54.6875,-55.4688 51.9531,-56.6406Q49.6094,-58.2031 49.6094,-58.9844Q49.6094,-60.1562 51.1719,-60.5469Q54.6875,-61.3281 58.9844,-62.5Q60.5469,-62.8906 64.0625,-64.0625Q69.1406,-65.2344 72.2656,-66.7969Q75.3906,-68.75 76.1719,-68.75ZM76.5625,-61.7188Q76.5625,-61.3281 77.3438,-61.3281L77.3438,-61.3281Q77.3438,-61.7188 76.9531,-61.7188L76.5625,-61.7188ZM67.1875,-60.5469Q67.9688,-60.5469 70.7031,-58.2031Q71.4844,-57.0312 71.4844,-55.8594Q70.7031,-54.2969 69.5312,-53.5156Q67.5781,-52.7344 64.0625,-48.8281Q63.6719,-48.0469 63.6719,-47.6562Q63.6719,-47.2656 64.0625,-47.2656L64.4531,-47.2656Q64.8438,-47.2656 67.5781,-48.4375Q67.9688,-48.4375 70.7031,-48.8281L71.4844,-48.8281Q73.0469,-48.8281 73.4375,-47.2656L73.4375,-47.2656Q72.2656,-46.0938 69.9219,-46.0938Q63.2812,-44.5312 63.2812,-43.75L63.2812,-42.9688L63.2812,-42.9688L64.0625,-42.5781Q64.0625,-42.1875 66.0156,-40.625Q66.7969,-39.8438 66.7969,-39.0625Q66.4062,-37.1094 66.4062,-36.7188L66.4062,-36.3281Q66.7969,-34.7656 68.75,-34.7656Q71.0938,-33.9844 72.2656,-32.4219L72.2656,-32.0312Q71.0938,-30.0781 69.9219,-30.0781Q68.75,-30.0781 66.7969,-32.0312L66.0156,-32.0312L66.0156,-32.0312Q64.8438,-32.0312 63.6719,-28.5156Q62.5,-26.9531 61.7188,-25.3906L61.7188,-25.3906Q62.1094,-24.6094 62.5,-24.6094L62.8906,-24.6094Q67.5781,-26.1719 67.9688,-26.1719L68.75,-26.1719Q70.7031,-26.1719 71.875,-24.2188L71.875,-23.8281Q71.875,-22.6562 69.9219,-22.2656Q67.9688,-22.2656 64.8438,-21.4844Q62.8906,-21.4844 59.375,-19.5312L57.8125,-19.5312Q55.8594,-19.5312 54.6875,-21.875Q54.6875,-22.2656 54.6875,-23.0469L54.6875,-26.5625Q53.5156,-30.0781 53.5156,-30.8594Q53.125,-32.0312 53.125,-32.4219Q53.125,-32.8125 54.2969,-33.5938L54.2969,-33.5938Q55.8594,-33.5938 58.2031,-30.8594Q58.5938,-30.4688 58.9844,-27.7344L58.9844,-25.7812Q58.9844,-25 59.375,-25L59.7656,-25Q60.5469,-25.7812 60.5469,-28.5156Q61.3281,-30.4688 61.3281,-31.25L61.3281,-37.5Q60.9375,-39.0625 59.375,-41.7969L58.5938,-41.7969Q53.9062,-40.2344 53.5156,-40.2344Q51.5625,-41.0156 51.5625,-41.4062Q51.5625,-42.5781 55.0781,-43.3594Q58.5938,-44.9219 59.7656,-45.7031Q60.9375,-46.4844 62.5,-50.3906Q64.4531,-53.125 64.4531,-55.4688Q64.8438,-59.7656 66.0156,-59.7656Q66.7969,-60.5469 67.1875,-60.5469ZM80.4688,-58.5938L80.4688,-58.5938Q80.4688,-58.2031 80.8594,-58.2031L81.25,-58.2031L81.25,-58.5938Q81.25,-58.9844 80.8594,-58.9844L80.8594,-58.9844Q80.4688,-58.9844 80.4688,-58.5938ZM78.9062,-57.4219L78.9062,-57.4219Q78.9062,-57.0312 79.2969,-57.0312L79.2969,-57.0312L79.2969,-57.4219L78.9062,-57.4219ZM70.3125,-56.6406L70.3125,-56.6406L70.3125,-56.25L70.3125,-56.25Q70.7031,-56.25 70.7031,-56.6406L70.7031,-57.0312L70.3125,-57.0312L70.3125,-56.6406ZM68.75,-55.4688L68.75,-55.4688L68.75,-55.0781Q68.75,-54.6875 69.1406,-54.2969L69.1406,-54.2969Q69.5312,-54.2969 69.5312,-54.6875L69.5312,-55.0781Q69.5312,-55.4688 68.75,-55.4688ZM44.5312,-53.9062Q45.3125,-53.9062 48.4375,-51.5625Q50.3906,-50.3906 50.3906,-49.2188L50.3906,-43.3594Q50.3906,-42.9688 50.3906,-41.7969L50.3906,-41.7969L50,-39.4531L50,-37.5Q50.3906,-36.7188 50.3906,-36.3281L50.3906,-16.7969Q49.6094,-12.1094 48.8281,-10.9375Q47.2656,-8.59375 46.4844,-8.59375Q45.3125,-8.59375 45.3125,-10.5469L45.3125,-11.7188Q44.5312,-13.2812 44.5312,-14.4531L44.5312,-16.0156L45.3125,-19.5312L45.3125,-26.9531L45.7031,-31.6406Q45.7031,-32.8125 45.7031,-33.2031L45.7031,-35.5469L45.7031,-35.5469Q45.7031,-36.3281 45.3125,-39.4531L45.3125,-47.2656Q45.3125,-47.6562 45.3125,-48.8281Q44.9219,-49.2188 44.9219,-51.1719Q44.1406,-52.3438 44.1406,-53.5156L44.1406,-53.5156Q44.1406,-53.9062 44.5312,-53.9062ZM47.2656,-49.6094L47.2656,-49.2188Q47.2656,-48.8281 48.4375,-48.4375L48.4375,-48.8281Q48.4375,-49.6094 47.2656,-49.6094ZM48.4375,-46.4844L48.4375,-46.0938L48.8281,-46.0938Q49.2188,-46.4844 49.2188,-46.875L49.2188,-46.875L49.2188,-47.2656Q48.8281,-47.2656 48.4375,-46.4844ZM77.3438,-45.3125Q77.3438,-44.5312 77.7344,-44.1406L77.7344,-44.1406Q78.125,-44.1406 78.125,-44.5312L78.125,-44.9219Q77.7344,-44.9219 77.3438,-45.3125L77.3438,-45.3125L77.3438,-45.3125ZM62.8906,-41.0156L62.8906,-41.0156L62.8906,-41.0156L63.2812,-41.0156L63.2812,-41.4062L63.2812,-41.7969Q62.8906,-41.4062 62.8906,-41.0156ZM84.375,-39.0625Q84.7656,-39.0625 84.7656,-38.6719L84.7656,-37.8906L84.375,-37.8906Q83.9844,-37.8906 83.9844,-38.6719Q83.9844,-39.0625 84.375,-39.0625ZM80.4688,-36.7188L80.4688,-36.3281Q80.4688,-35.9375 80.8594,-35.9375L81.25,-35.9375L81.25,-36.3281L81.25,-36.3281Q81.25,-37.1094 80.8594,-37.1094L80.4688,-37.1094L80.4688,-36.7188ZM62.8906,-36.7188L62.8906,-36.3281L62.8906,-36.3281Q63.2812,-36.3281 63.2812,-36.7188L63.2812,-37.1094L62.8906,-37.1094L62.8906,-36.7188ZM67.5781,-33.9844L67.5781,-33.5938Q67.9688,-32.4219 68.3594,-32.4219L68.75,-32.8125L68.75,-33.2031Q68.75,-33.5938 67.9688,-33.9844L67.5781,-33.9844ZM24.6094,-32.8125L24.6094,-32.8125L25,-32.4219L25,-32.4219L25.3906,-32.8125L25.3906,-33.2031L25,-33.2031L25,-33.2031Q24.6094,-33.2031 24.6094,-32.8125ZM22.2656,-30.4688L22.2656,-30.4688Q22.2656,-29.6875 22.6562,-29.6875L23.0469,-29.6875L23.0469,-29.6875L23.0469,-30.0781Q23.0469,-30.4688 22.2656,-30.4688L22.2656,-30.4688ZM25.7812,-29.2969L26.1719,-28.9062L26.1719,-28.9062L26.5625,-29.2969L26.5625,-29.6875L26.5625,-29.6875Q25.7812,-29.6875 25.7812,-29.2969ZM26.9531,-27.3438L26.9531,-26.9531L27.3438,-26.9531L27.7344,-26.9531Q27.3438,-27.3438 26.9531,-27.3438L26.9531,-27.3438L26.9531,-27.3438ZM77.3438,-25.7812L77.3438,-25.7812Q77.3438,-25.3906 77.7344,-25.3906L78.125,-25.7812L78.125,-25.3906L78.125,-25.7812L78.125,-25.7812L77.7344,-25.7812L77.3438,-25.7812ZM46.4844,-24.6094L46.4844,-24.2188L46.4844,-23.8281Q46.875,-24.2188 46.875,-24.6094L46.875,-25L46.4844,-24.6094ZM18.75,-21.875L18.75,-21.875Q19.5312,-21.875 20.7031,-19.5312Q21.0938,-18.75 21.0938,-18.3594L21.0938,-14.8438Q20.7031,-12.8906 19.5312,-11.3281Q17.9688,-8.98438 16.7969,-8.98438Q15.2344,-9.375 15.2344,-12.1094L14.8438,-12.1094Q14.8438,-12.8906 16.7969,-17.1875Q17.9688,-21.0938 18.3594,-21.875L18.75,-21.875ZM75.7812,-8.20312L75.7812,-8.20312L76.1719,-7.8125L76.1719,-8.20312L76.1719,-8.20312L76.1719,-8.20312L75.7812,-8.20312Z"></path><path transform="translate(300 100)" d="M45.3125,-78.9062L45.7031,-78.9062Q46.0938,-78.9062 49.2188,-77.3438Q51.9531,-76.9531 52.7344,-76.1719Q54.2969,-75.3906 55.4688,-73.8281Q56.25,-72.6562 56.25,-71.875Q56.25,-71.0938 55.0781,-67.9688L55.0781,-67.1875Q55.4688,-66.4062 56.25,-66.4062Q58.9844,-67.1875 61.7188,-67.5781L63.2812,-67.1875Q66.0156,-67.5781 66.7969,-67.5781L70.3125,-67.5781Q72.2656,-67.5781 73.8281,-68.3594Q75.7812,-69.1406 76.5625,-69.1406Q77.7344,-69.1406 79.2969,-67.1875Q80.8594,-65.625 82.8125,-64.8438Q84.375,-63.6719 84.375,-62.1094L84.375,-62.1094Q83.5938,-59.7656 82.0312,-59.7656Q79.6875,-59.7656 77.3438,-60.5469L76.1719,-60.5469Q72.6562,-60.5469 71.0938,-60.1562Q68.75,-58.9844 67.1875,-58.2031L67.1875,-58.5938L67.1875,-58.5938Q67.1875,-58.9844 67.9688,-59.375Q67.9688,-59.7656 71.4844,-62.5Q72.6562,-64.0625 72.6562,-64.4531L72.6562,-64.8438Q72.2656,-65.625 71.875,-65.625Q70.3125,-65.625 69.9219,-65.625Q66.0156,-66.4062 66.0156,-66.7969L65.625,-66.7969Q64.8438,-66.0156 64.8438,-65.625L64.8438,-65.2344L64.8438,-65.2344L64.8438,-65.2344L64.4531,-65.2344Q63.2812,-65.625 62.8906,-65.625Q61.3281,-65.2344 58.9844,-64.8438L57.8125,-64.8438Q54.2969,-64.0625 53.5156,-63.2812Q51.1719,-60.5469 49.2188,-58.9844Q47.6562,-57.8125 46.875,-57.8125Q45.7031,-57.8125 45.3125,-60.1562Q44.5312,-61.7188 43.75,-61.7188L43.3594,-61.7188Q41.4062,-60.5469 38.6719,-59.7656L30.4688,-56.6406L30.0781,-56.6406Q29.2969,-56.6406 27.3438,-58.5938Q27.3438,-58.9844 26.9531,-58.9844Q26.9531,-60.1562 30.8594,-60.5469L36.3281,-62.1094Q38.2812,-62.5 41.0156,-63.2812Q44.9219,-64.0625 44.9219,-65.625L44.9219,-71.4844Q44.9219,-72.6562 42.1875,-75.3906Q42.1875,-75.7812 41.7969,-76.1719Q41.7969,-77.3438 44.1406,-78.5156Q44.9219,-78.9062 45.3125,-78.9062ZM44.1406,-76.1719L44.1406,-75.7812Q44.1406,-75.3906 44.9219,-75.3906L44.9219,-75.3906L45.3125,-75.7812Q44.9219,-76.1719 44.9219,-76.5625L44.9219,-76.5625L44.5312,-76.5625Q44.1406,-76.5625 44.1406,-76.1719ZM47.6562,-75.7812Q47.6562,-75.3906 48.0469,-75.3906L48.4375,-75.3906L48.4375,-75.3906L48.4375,-75.3906Q48.4375,-75.7812 48.0469,-75.7812L47.6562,-75.7812ZM51.5625,-71.875L51.5625,-71.875L51.9531,-71.875L51.9531,-71.875L51.9531,-71.875L51.5625,-71.875ZM51.5625,-66.7969L51.5625,-66.4062L51.9531,-66.0156L51.9531,-66.0156L52.3438,-66.4062L52.3438,-66.7969L51.9531,-66.7969L51.5625,-66.7969L51.5625,-66.7969ZM75,-62.8906L75,-62.8906Q75,-62.5 75.3906,-62.5L75.3906,-62.5Q75.7812,-62.5 75.7812,-62.8906L75.7812,-63.2812L75.3906,-63.2812L75.3906,-63.2812L75,-62.8906ZM73.4375,-62.1094L73.4375,-62.1094Q73.4375,-61.7188 73.8281,-61.7188L73.8281,-61.7188L74.2188,-62.1094L74.2188,-62.5L73.8281,-62.5Q73.4375,-62.5 73.4375,-62.1094ZM23.0469,-60.1562Q24.2188,-60.1562 25.3906,-58.2031Q26.5625,-57.0312 26.9531,-54.2969Q26.5625,-51.9531 26.5625,-51.5625L26.5625,-50.3906Q25.7812,-46.4844 25,-45.7031Q23.4375,-43.3594 20.3125,-42.1875L20.3125,-42.1875Q19.1406,-42.1875 17.9688,-44.1406Q17.5781,-44.5312 17.5781,-44.9219L17.5781,-48.0469L18.3594,-51.1719Q19.1406,-54.6875 20.3125,-56.25Q20.7031,-56.6406 22.2656,-59.7656Q22.6562,-60.1562 23.0469,-60.1562ZM58.9844,-55.8594Q60.1562,-55.8594 64.4531,-53.125Q65.625,-51.9531 65.625,-51.1719Q65.625,-49.2188 60.5469,-47.2656Q59.375,-46.0938 56.25,-44.5312Q54.6875,-43.75 51.5625,-41.0156L51.5625,-41.0156Q50.7812,-41.4062 50.7812,-41.7969L50.7812,-41.7969Q53.5156,-45.3125 54.6875,-48.4375Q55.4688,-50.3906 55.4688,-50.7812L55.4688,-51.1719Q55.4688,-51.5625 55.0781,-51.5625Q53.5156,-51.1719 53.5156,-50.7812Q53.5156,-50.3906 50.3906,-50Q49.2188,-49.2188 45.7031,-48.0469Q42.9688,-46.0938 42.9688,-44.9219Q42.1875,-44.9219 41.7969,-44.5312Q41.4062,-44.5312 41.0156,-44.9219L41.0156,-44.9219Q40.625,-44.9219 40.625,-43.75Q39.8438,-42.9688 39.0625,-42.9688Q37.8906,-43.75 37.8906,-44.5312Q36.7188,-46.875 36.7188,-47.6562Q36.7188,-49.2188 38.6719,-49.6094L39.0625,-49.6094Q39.4531,-49.2188 40.2344,-48.0469Q41.0156,-46.875 41.7969,-46.875L41.7969,-46.875L41.7969,-46.875Q41.7969,-46.0938 42.1875,-45.7031L42.5781,-45.7031L42.5781,-46.0938L42.5781,-46.0938Q41.7969,-46.875 41.7969,-47.6562Q41.7969,-48.0469 41.0156,-48.4375L40.625,-49.6094Q40.625,-50.3906 44.5312,-51.1719Q45.7031,-51.5625 47.2656,-51.5625Q48.8281,-51.9531 49.6094,-51.9531Q50.3906,-52.7344 51.9531,-52.7344Q54.2969,-53.125 55.0781,-53.5156Q57.8125,-55.8594 58.9844,-55.8594ZM57.4219,-53.125L57.4219,-52.7344L57.4219,-52.3438L57.8125,-52.3438L58.2031,-52.7344L58.2031,-53.125L57.8125,-53.125L57.4219,-53.125ZM57.4219,-50.7812L57.4219,-50.7812Q57.4219,-50.3906 57.8125,-50.3906L58.2031,-50.3906L58.2031,-50.7812L57.8125,-51.1719L57.4219,-51.1719L57.4219,-50.7812ZM43.75,-48.4375L44.1406,-48.4375Q44.9219,-48.4375 44.9219,-49.2188L44.9219,-49.2188Q44.9219,-49.6094 44.5312,-49.6094L44.1406,-49.6094Q43.75,-49.2188 43.75,-48.4375ZM38.2812,-48.4375L38.2812,-48.4375Q38.2812,-48.0469 39.8438,-46.4844L40.2344,-45.3125Q41.0156,-45.3125 41.4062,-45.3125L41.4062,-45.3125Q41.4062,-46.0938 39.8438,-47.2656Q39.0625,-48.0469 38.6719,-48.4375L38.6719,-48.4375L38.2812,-48.4375ZM57.4219,-48.0469L57.4219,-47.6562L57.4219,-47.6562L57.8125,-47.6562Q58.2031,-47.6562 58.2031,-48.0469L58.2031,-48.0469L57.8125,-48.4375L57.4219,-48.0469ZM49.6094,-40.625L50,-40.625Q51.1719,-40.625 55.0781,-38.2812Q56.6406,-36.3281 58.5938,-36.3281L59.7656,-36.3281Q60.5469,-36.3281 67.1875,-37.8906Q73.4375,-39.8438 74.6094,-39.8438L76.5625,-39.8438Q80.0781,-39.0625 80.0781,-37.1094L80.0781,-36.7188Q80.0781,-35.1562 78.125,-34.375Q76.9531,-33.9844 76.5625,-33.9844L75.7812,-33.9844Q75.3906,-33.9844 72.6562,-34.375L71.875,-34.375L71.0938,-34.375Q70.3125,-34.375 68.75,-34.375Q67.9688,-33.9844 67.5781,-33.9844L67.1875,-33.9844Q60.1562,-33.9844 59.375,-32.4219Q58.9844,-32.0312 58.9844,-31.25Q58.9844,-30.4688 59.7656,-27.3438L59.7656,-12.5Q59.7656,-11.3281 58.9844,-7.8125Q58.9844,-7.03125 58.2031,-4.29688Q57.8125,-1.5625 55.0781,2.73438Q50.3906,7.03125 49.2188,7.03125Q49.2188,7.42188 48.4375,7.42188Q47.6562,7.42188 46.875,4.29688Q46.4844,3.125 42.5781,-0.78125Q41.4062,-1.95312 39.8438,-3.51562L39.8438,-3.51562L40.2344,-3.51562Q40.625,-3.51562 44.5312,-1.95312Q46.0938,-1.5625 46.4844,-1.5625L46.875,-1.5625Q48.8281,-1.5625 50.3906,-7.8125Q51.5625,-10.5469 51.5625,-12.1094Q51.5625,-12.5 52.3438,-14.4531L52.3438,-25.7812L51.5625,-28.9062L51.5625,-30.4688Q51.5625,-31.6406 50,-31.6406L48.0469,-31.6406Q45.7031,-30.8594 44.1406,-30.8594Q42.1875,-30.0781 38.6719,-28.9062Q37.1094,-28.125 32.4219,-26.5625Q29.2969,-25 23.8281,-22.2656Q23.0469,-21.875 22.6562,-21.875Q21.4844,-21.875 17.9688,-24.2188Q17.1875,-25.3906 17.1875,-25.7812Q17.1875,-26.9531 19.1406,-27.3438L20.7031,-27.3438Q23.4375,-28.125 25,-28.125Q29.2969,-29.6875 30.4688,-29.6875L31.6406,-29.6875Q37.8906,-30.8594 41.4062,-32.0312Q42.1875,-32.4219 44.5312,-32.8125Q47.2656,-33.2031 49.6094,-33.9844Q50.7812,-34.7656 50.7812,-35.5469Q50.7812,-36.3281 48.8281,-39.0625Q48.8281,-39.4531 48.4375,-39.4531Q48.4375,-40.2344 49.6094,-40.625ZM66.7969,-35.9375L66.7969,-35.9375Q67.1875,-35.5469 67.5781,-35.5469L67.5781,-35.5469L67.5781,-35.5469L67.5781,-36.3281L67.1875,-36.3281L66.7969,-35.9375ZM48.4375,2.73438L48.8281,2.73438L48.8281,2.73438Q49.2188,2.73438 49.2188,2.34375L48.8281,2.34375Q48.4375,2.34375 48.4375,2.73438Z"></path><path transform="translate(400 100)" d="M64.0625,-75.7812Q64.4531,-75.7812 66.4062,-75Q67.5781,-74.6094 69.1406,-74.6094Q70.7031,-73.8281 72.2656,-73.4375Q73.4375,-72.6562 73.4375,-71.875L73.4375,-71.0938Q73.4375,-70.3125 72.2656,-66.4062Q72.2656,-66.0156 71.875,-66.0156L71.875,-66.0156L71.875,-65.625L71.4844,-63.2812L71.4844,-58.5938Q71.4844,-57.8125 71.875,-57.4219L73.0469,-57.4219Q76.1719,-58.2031 78.9062,-60.1562Q80.0781,-61.3281 82.0312,-61.3281L82.4219,-61.3281Q83.9844,-61.3281 85.9375,-60.1562Q86.7188,-59.375 86.7188,-58.2031Q86.7188,-56.25 83.9844,-55.0781L80.0781,-54.6875Q78.9062,-54.2969 75.7812,-53.5156Q73.4375,-52.3438 72.2656,-51.9531Q71.4844,-51.1719 71.4844,-50L71.4844,-29.6875Q71.0938,-28.9062 71.0938,-28.5156L71.0938,-28.125Q71.4844,-27.3438 71.4844,-26.9531L71.4844,-25Q72.2656,-19.1406 72.2656,-16.7969L72.2656,-10.9375Q72.2656,-8.59375 71.4844,-5.85938Q71.4844,-3.125 68.3594,2.73438Q67.9688,3.51562 67.5781,3.90625L67.1875,3.90625Q66.4062,3.90625 66.0156,2.34375L66.0156,-26.5625Q65.625,-27.7344 65.625,-30.4688L65.625,-37.1094Q65.625,-37.5 64.8438,-41.7969L64.8438,-46.875Q64.8438,-47.6562 63.6719,-47.6562Q62.8906,-47.6562 57.8125,-44.9219Q56.25,-44.1406 55.8594,-44.1406Q54.2969,-44.1406 51.9531,-46.875Q50.7812,-48.0469 50.7812,-48.8281L50.7812,-48.8281Q50.7812,-50 52.3438,-50.7812L55.4688,-51.5625Q60.1562,-53.125 60.9375,-53.125Q64.8438,-54.2969 64.8438,-57.0312L64.8438,-66.4062Q64.0625,-70.3125 63.2812,-71.0938Q61.7188,-72.6562 61.7188,-73.8281Q61.7188,-74.6094 63.6719,-75.7812L64.0625,-75.7812ZM63.6719,-73.8281Q64.0625,-73.0469 64.0625,-72.6562L64.4531,-72.6562L65.2344,-73.0469L65.2344,-73.4375Q65.2344,-73.8281 64.4531,-74.6094L64.0625,-74.6094Q63.6719,-74.2188 63.6719,-73.8281ZM32.8125,-74.2188Q38.2812,-72.2656 40.2344,-72.2656Q42.5781,-72.2656 43.3594,-70.7031L43.3594,-69.9219Q43.3594,-69.5312 42.5781,-66.4062L42.5781,-66.4062Q42.5781,-65.2344 44.1406,-65.2344Q44.9219,-65.2344 46.4844,-66.0156Q47.2656,-66.4062 47.6562,-66.4062Q51.5625,-65.625 51.5625,-64.0625L51.5625,-63.6719Q51.5625,-61.7188 47.6562,-61.3281L46.0938,-61.3281L42.1875,-60.5469Q41.0156,-59.7656 40.2344,-58.5938Q37.8906,-55.8594 35.9375,-55.8594Q35.5469,-55.8594 34.7656,-57.0312Q34.375,-57.4219 33.9844,-57.4219Q31.25,-55.8594 30.8594,-55.8594Q30.0781,-55.8594 27.3438,-54.6875Q23.4375,-52.7344 22.2656,-51.9531Q21.875,-51.9531 19.5312,-50.7812Q17.5781,-49.6094 16.4062,-49.6094Q14.4531,-49.6094 12.5,-52.7344L12.5,-53.5156Q12.5,-54.6875 17.1875,-55.8594L23.0469,-57.8125Q24.6094,-58.2031 30.8594,-60.1562Q33.2031,-61.3281 33.2031,-62.5L33.2031,-62.8906Q33.2031,-64.0625 33.2031,-64.4531L33.2031,-65.2344Q32.4219,-68.3594 32.0312,-69.1406Q30.0781,-71.0938 30.0781,-71.875Q30.0781,-73.0469 32.4219,-74.2188L32.8125,-74.2188ZM69.9219,-71.4844L69.9219,-71.4844L70.3125,-71.0938L70.3125,-71.0938Q70.7031,-71.875 71.0938,-71.875L71.0938,-71.875Q70.7031,-72.2656 70.3125,-72.2656Q69.9219,-72.2656 69.9219,-71.4844ZM71.0938,-71.4844L71.0938,-71.4844Q71.4844,-70.7031 71.875,-70.7031L72.2656,-71.0938L72.2656,-71.0938Q71.875,-71.4844 71.4844,-71.4844L71.0938,-71.4844ZM38.2812,-70.7031L38.2812,-70.3125L38.2812,-70.3125L38.6719,-70.3125L39.0625,-70.3125L39.0625,-70.7031L38.6719,-70.7031L38.2812,-70.7031L38.2812,-70.7031ZM66.0156,-67.1875Q66.0156,-66.4062 66.4062,-66.4062Q66.7969,-66.4062 66.7969,-66.7969L66.7969,-66.7969Q66.7969,-67.1875 66.0156,-67.1875L66.0156,-67.1875ZM69.1406,-66.7969L69.1406,-66.7969Q69.5312,-66.0156 70.3125,-66.0156L71.0938,-66.0156L71.0938,-66.0156L71.0938,-66.0156Q71.0938,-66.4062 69.5312,-67.1875Q69.1406,-67.1875 69.1406,-66.7969ZM38.6719,-65.2344L38.6719,-65.2344L38.6719,-65.2344L38.6719,-65.2344L38.6719,-65.625L38.6719,-65.625L38.6719,-65.2344ZM48.4375,-64.4531L48.4375,-64.0625L48.8281,-63.6719Q49.2188,-63.6719 49.6094,-64.0625L49.6094,-64.4531Q49.6094,-64.8438 49.2188,-64.8438Q48.4375,-64.8438 48.4375,-64.4531ZM37.1094,-64.8438L37.1094,-64.4531L37.1094,-64.4531Q37.1094,-64.0625 37.8906,-63.6719L38.2812,-63.6719L38.2812,-63.6719L38.2812,-63.6719Q38.2812,-64.4531 37.1094,-64.8438ZM41.0156,-64.0625Q41.0156,-63.6719 41.4062,-63.6719L41.4062,-63.6719Q42.1875,-63.6719 42.1875,-64.0625L42.1875,-64.0625Q42.1875,-64.4531 41.7969,-64.4531L41.4062,-64.4531Q41.0156,-64.4531 41.0156,-64.0625ZM39.0625,-63.6719L39.0625,-63.6719Q39.0625,-63.2812 39.4531,-63.2812L40.2344,-63.6719L40.2344,-64.0625L39.8438,-64.0625L39.4531,-64.0625Q39.0625,-64.0625 39.0625,-63.6719ZM36.7188,-62.1094L36.7188,-62.1094L37.1094,-62.1094L37.5,-62.1094L37.5,-62.5L37.1094,-62.5L37.1094,-62.5L36.7188,-62.1094ZM69.5312,-60.5469L69.5312,-60.1562Q69.5312,-59.7656 69.9219,-59.375L70.3125,-59.375L70.3125,-59.7656Q70.3125,-60.1562 69.5312,-60.5469L69.5312,-60.5469ZM36.7188,-59.7656L36.7188,-59.7656Q36.7188,-59.375 37.1094,-59.375L37.5,-59.375L37.5,-60.1562L37.5,-60.5469L37.1094,-60.5469Q36.7188,-60.1562 36.7188,-59.7656ZM82.4219,-60.1562L82.4219,-60.1562L82.8125,-58.5938L83.2031,-58.5938L83.5938,-58.5938L84.375,-58.5938L84.7656,-58.5938L85.1562,-58.9844L85.1562,-58.9844Q84.7656,-58.9844 83.5938,-59.7656Q83.5938,-60.1562 82.4219,-60.1562ZM32.4219,-58.9844L32.4219,-58.5938L32.4219,-58.2031Q32.8125,-58.2031 33.2031,-58.5938L33.2031,-58.9844L32.8125,-58.9844L32.4219,-58.9844L32.4219,-58.9844ZM83.9844,-58.9844L84.375,-58.9844L83.9844,-58.9844L83.9844,-58.9844ZM80.8594,-57.8125L81.25,-57.8125L81.6406,-57.8125L81.6406,-58.2031L81.25,-58.5938L81.25,-58.5938Q80.8594,-58.2031 80.8594,-57.8125ZM66.7969,-57.8125L66.7969,-57.8125L67.1875,-57.4219L67.5781,-57.8125L67.5781,-58.2031Q67.5781,-58.5938 67.1875,-58.5938Q66.7969,-58.2031 66.7969,-57.8125ZM76.5625,-57.0312L76.5625,-57.0312Q76.5625,-56.6406 77.3438,-56.25L77.3438,-56.6406L77.3438,-56.25L76.9531,-56.25L76.9531,-55.4688L77.7344,-55.4688L77.7344,-55.4688L77.7344,-55.8594Q77.7344,-56.25 77.7344,-57.4219L77.7344,-57.4219Q77.7344,-57.8125 77.3438,-57.8125Q76.5625,-57.8125 76.5625,-57.0312ZM75,-57.0312L75,-57.0312L75,-57.0312L75.3906,-57.0312L75.3906,-57.4219L75.3906,-57.4219L75.3906,-57.4219Q75,-57.4219 75,-57.0312ZM81.6406,-56.6406L81.6406,-56.25L81.6406,-56.25L82.0312,-56.25Q82.4219,-56.25 82.4219,-56.6406L82.4219,-56.6406L82.4219,-57.0312L82.0312,-57.0312Q81.6406,-57.0312 81.6406,-56.6406ZM71.0938,-56.25L71.0938,-55.8594Q71.0938,-55.4688 72.6562,-55.0781Q72.6562,-54.6875 73.4375,-54.6875L73.4375,-54.6875L73.4375,-54.6875L73.4375,-55.4688Q72.6562,-55.4688 72.2656,-55.4688L71.875,-56.25L71.4844,-56.25L71.0938,-56.25ZM65.625,-55.0781L65.625,-55.0781Q65.625,-54.6875 66.0156,-54.6875L66.4062,-54.6875L66.4062,-54.6875L66.4062,-54.6875Q66.4062,-55.4688 66.0156,-55.4688L65.625,-55.0781ZM17.9688,-54.2969L17.9688,-53.9062L17.9688,-53.9062L17.9688,-53.9062Q18.3594,-53.9062 18.3594,-54.2969L18.3594,-54.2969L18.3594,-54.6875L17.9688,-54.6875L17.9688,-54.2969ZM20.7031,-53.125L20.7031,-52.7344L21.0938,-52.7344L21.0938,-52.7344Q21.4844,-52.7344 21.4844,-53.125L21.4844,-53.125L21.0938,-53.125L20.7031,-53.125ZM40.625,-53.125Q42.5781,-52.7344 42.5781,-51.9531Q41.7969,-50.3906 38.2812,-48.4375Q35.1562,-47.2656 33.2031,-45.7031Q31.25,-45.3125 29.6875,-44.1406L28.5156,-43.75Q26.5625,-44.5312 26.5625,-45.3125L26.5625,-45.3125Q26.5625,-45.7031 29.6875,-47.6562Q31.25,-48.4375 31.6406,-48.4375L31.6406,-48.4375L31.6406,-48.4375L31.6406,-48.0469L31.6406,-47.6562Q31.6406,-47.2656 32.0312,-47.2656L32.0312,-47.2656L32.4219,-47.2656L32.4219,-47.2656Q32.4219,-47.6562 32.4219,-48.4375Q33.5938,-49.6094 38.2812,-52.3438Q39.8438,-53.125 40.625,-53.125ZM14.8438,-52.3438Q14.8438,-51.5625 15.625,-51.5625L15.625,-51.9531Q15.625,-52.3438 15.2344,-52.3438L14.8438,-52.3438ZM58.5938,-51.1719L58.5938,-50.7812Q58.5938,-50.3906 58.9844,-50.3906L58.9844,-50.3906Q60.9375,-51.1719 60.9375,-51.5625L60.9375,-51.9531L60.9375,-51.9531L60.5469,-51.9531Q58.9844,-51.5625 58.5938,-51.1719ZM61.7188,-50.7812L61.7188,-50.7812L62.1094,-50.7812Q63.2812,-51.1719 63.2812,-51.9531L62.8906,-51.9531Q62.5,-51.9531 61.7188,-50.7812L61.7188,-50.7812ZM64.4531,-51.5625L64.4531,-51.5625Q64.4531,-51.1719 65.2344,-51.1719L65.2344,-51.1719L65.2344,-51.5625L64.8438,-51.5625L64.4531,-51.5625L64.4531,-51.5625ZM68.75,-51.5625L68.75,-51.1719L69.5312,-50.7812L69.5312,-50.7812L69.9219,-50.7812L69.9219,-51.1719Q69.5312,-51.5625 69.1406,-51.5625L69.1406,-51.5625L68.75,-51.5625ZM37.5,-50L37.5,-50L37.8906,-50Q38.2812,-50 38.2812,-50.3906L37.8906,-50.3906L37.8906,-50.3906L37.5,-50ZM63.2812,-50L63.2812,-50Q63.2812,-49.6094 63.6719,-49.6094L64.0625,-49.6094L64.0625,-49.6094L64.0625,-49.6094Q64.0625,-50.3906 63.6719,-50.3906L63.6719,-50.3906Q63.2812,-50.3906 63.2812,-50ZM65.625,-49.2188L65.625,-49.2188Q65.625,-48.8281 66.0156,-48.8281L66.7969,-48.8281Q67.1875,-48.8281 67.1875,-49.2188L67.1875,-49.6094L67.1875,-49.6094L66.4062,-49.6094Q65.625,-49.6094 65.625,-49.2188ZM68.3594,-48.0469L68.75,-48.0469L68.75,-48.0469Q69.9219,-48.4375 69.9219,-49.6094L69.9219,-49.6094L69.5312,-49.6094L69.5312,-49.6094Q68.3594,-48.8281 68.3594,-48.4375L68.3594,-48.0469ZM59.7656,-48.4375L59.7656,-48.4375L59.7656,-48.4375Q60.1562,-48.4375 60.9375,-49.2188L60.9375,-49.2188L60.5469,-49.2188L60.5469,-49.2188Q59.7656,-49.2188 59.7656,-48.4375ZM54.2969,-48.8281L54.2969,-48.8281L54.2969,-48.8281Q55.0781,-47.6562 55.0781,-46.875Q55.4688,-46.4844 56.25,-46.4844L56.25,-46.4844L56.25,-46.875Q55.0781,-48.8281 54.2969,-48.8281ZM57.8125,-48.4375L57.8125,-48.4375Q57.8125,-47.2656 58.5938,-47.2656L58.5938,-47.2656L58.9844,-47.6562L58.9844,-48.0469L57.8125,-48.4375L57.8125,-48.4375ZM57.4219,-46.4844L57.4219,-46.4844Q57.4219,-46.0938 57.8125,-46.0938L57.8125,-46.0938L57.8125,-46.4844L57.8125,-46.4844L57.4219,-46.4844ZM66.7969,-45.7031L66.7969,-45.7031Q66.7969,-45.3125 67.5781,-45.3125L67.5781,-45.3125L68.3594,-45.3125L68.3594,-45.7031Q67.9688,-46.0938 67.5781,-46.0938L67.1875,-46.0938Q66.7969,-46.0938 66.7969,-45.7031ZM69.9219,-43.75L69.9219,-43.3594L69.9219,-42.9688L70.3125,-42.9688L70.7031,-43.3594Q70.7031,-43.75 70.3125,-43.75L69.9219,-43.75L69.9219,-43.75ZM41.0156,-43.75L42.9688,-43.75Q43.75,-43.75 44.1406,-42.5781L44.1406,-42.5781Q44.1406,-42.1875 42.9688,-42.1875Q42.5781,-40.625 41.7969,-40.625Q41.0156,-40.625 39.4531,-39.4531Q35.9375,-38.2812 33.2031,-36.7188Q32.4219,-36.3281 30.4688,-35.5469Q30.4688,-35.1562 29.6875,-35.1562L29.6875,-35.1562Q26.9531,-35.5469 26.9531,-35.9375Q26.5625,-36.3281 26.5625,-36.7188Q26.5625,-37.8906 30.0781,-38.6719Q31.6406,-39.4531 35.5469,-41.4062Q39.8438,-43.75 41.0156,-43.75ZM68.75,-42.9688L68.75,-42.5781L68.75,-42.5781L68.75,-42.5781L68.75,-42.9688L68.75,-42.9688ZM69.1406,-42.5781L68.75,-42.1875Q69.5312,-41.4062 69.9219,-41.4062L70.3125,-41.4062L70.3125,-41.7969Q70.3125,-42.1875 69.1406,-42.5781ZM39.0625,-41.7969L39.0625,-41.7969Q39.0625,-41.4062 39.4531,-41.4062Q39.8438,-41.4062 39.8438,-41.7969L39.8438,-42.1875L39.8438,-42.1875L39.0625,-42.1875L39.0625,-41.7969ZM69.1406,-39.4531L69.1406,-39.0625Q69.1406,-38.6719 69.5312,-38.6719L69.9219,-38.6719L69.9219,-39.0625Q69.9219,-39.4531 69.5312,-39.4531L69.1406,-39.4531ZM32.4219,-37.5L32.8125,-37.1094Q33.2031,-37.1094 33.5938,-37.8906L33.5938,-38.2812L33.2031,-38.2812Q32.4219,-37.8906 32.4219,-37.5ZM67.9688,-38.2812L67.9688,-37.8906L67.9688,-37.8906Q68.3594,-37.8906 68.3594,-38.2812L68.3594,-38.2812L68.3594,-38.2812L67.9688,-38.2812L67.9688,-38.2812ZM66.7969,-35.9375Q66.7969,-35.5469 67.9688,-34.7656L67.9688,-34.7656L68.3594,-35.9375L68.3594,-35.9375L68.3594,-35.9375L68.3594,-35.9375Q67.5781,-36.3281 67.1875,-36.3281Q66.7969,-36.3281 66.7969,-35.9375ZM41.4062,-34.7656L45.3125,-33.9844L46.4844,-33.9844Q49.2188,-33.5938 49.2188,-31.6406Q49.2188,-30.8594 47.6562,-27.7344Q47.2656,-26.5625 45.3125,-23.0469Q44.5312,-22.2656 44.5312,-21.0938L44.5312,-20.7031L44.9219,-19.1406Q44.5312,-17.5781 42.1875,-17.1875L41.4062,-17.1875Q37.1094,-16.4062 34.7656,-15.2344Q33.9844,-15.2344 30.4688,-12.8906Q29.6875,-12.1094 28.9062,-9.76562Q28.125,-8.20312 26.9531,-7.8125L26.9531,-7.8125Q25.3906,-7.8125 23.4375,-15.2344Q23.4375,-16.0156 22.2656,-19.1406Q21.0938,-22.6562 19.5312,-25.3906Q18.75,-26.5625 18.3594,-27.7344Q18.3594,-28.5156 19.5312,-28.9062L19.9219,-28.9062Q22.2656,-28.5156 22.6562,-28.5156L26.1719,-27.7344L26.5625,-27.7344Q27.3438,-27.7344 32.4219,-29.6875Q33.9844,-30.4688 37.1094,-32.4219Q39.8438,-34.7656 41.4062,-34.7656ZM40.2344,-30.8594L40.2344,-30.4688L40.2344,-30.4688Q41.7969,-31.25 42.5781,-32.8125L42.5781,-33.2031L42.1875,-33.2031Q41.0156,-33.2031 40.2344,-30.8594ZM44.5312,-30.8594L44.9219,-30.4688Q46.0938,-31.6406 46.4844,-31.6406L47.2656,-31.6406L47.2656,-32.4219Q47.2656,-32.8125 46.0938,-32.8125L46.0938,-32.8125L45.7031,-32.4219Q44.9219,-32.4219 44.5312,-30.8594ZM38.6719,-32.0312L39.4531,-32.0312Q39.8438,-32.0312 39.8438,-32.4219L39.4531,-32.8125Q38.6719,-32.8125 38.6719,-32.0312ZM42.9688,-30.8594Q42.9688,-30.4688 43.75,-30.4688Q44.1406,-30.8594 44.1406,-31.25L44.1406,-31.25L43.75,-31.25Q42.9688,-31.25 42.9688,-30.8594ZM44.5312,-30.0781Q44.9219,-28.5156 45.7031,-28.125L45.7031,-28.125L45.7031,-28.5156L45.7031,-28.5156L46.0938,-29.2969Q46.0938,-29.6875 44.9219,-30.4688L44.5312,-30.4688L44.5312,-30.0781ZM41.0156,-29.2969L41.0156,-29.2969Q41.0156,-28.9062 41.4062,-28.9062L41.7969,-28.9062Q42.1875,-29.2969 42.5781,-29.2969Q42.5781,-28.9062 43.75,-28.9062L44.1406,-28.9062Q44.1406,-29.2969 42.9688,-29.6875L42.5781,-29.6875L42.1875,-29.6875L42.1875,-29.6875Q41.0156,-29.6875 41.0156,-29.2969ZM28.125,-23.4375L28.125,-21.0938Q28.5156,-16.7969 30.0781,-16.7969L30.4688,-16.7969L34.7656,-18.3594Q37.5,-19.1406 37.8906,-20.3125Q38.2812,-20.7031 38.2812,-21.0938L38.2812,-21.4844Q38.2812,-24.2188 38.6719,-27.7344L38.6719,-28.125Q38.6719,-28.9062 37.8906,-28.9062Q36.7188,-28.9062 33.5938,-27.3438Q29.2969,-26.1719 28.5156,-25.3906Q28.125,-24.2188 28.125,-23.4375ZM66.7969,-28.5156L66.7969,-28.5156Q66.7969,-28.125 67.1875,-28.125L67.5781,-28.5156L67.5781,-28.5156Q67.5781,-28.9062 67.1875,-28.9062L67.1875,-28.9062Q66.7969,-28.9062 66.7969,-28.5156ZM43.3594,-26.9531Q43.3594,-26.1719 43.75,-26.1719L43.75,-26.1719Q44.1406,-26.1719 44.1406,-26.5625L44.1406,-26.5625Q44.1406,-26.9531 43.75,-26.9531L43.3594,-26.9531L43.3594,-26.9531ZM27.3438,-26.5625L27.3438,-26.1719L27.3438,-26.1719L27.3438,-26.1719Q28.125,-26.1719 28.125,-26.5625L28.125,-26.5625L27.7344,-26.9531Q27.3438,-26.9531 27.3438,-26.5625ZM22.6562,-24.2188Q22.6562,-23.4375 23.0469,-23.4375L23.4375,-23.4375L23.4375,-23.4375Q23.0469,-24.2188 22.6562,-24.2188ZM25.3906,-21.4844L25.3906,-21.0938Q25.7812,-21.0938 25.7812,-21.4844L25.7812,-21.875Q25.7812,-22.2656 25.3906,-22.2656L25.3906,-21.4844ZM23.4375,-21.0938L23.4375,-20.7031Q23.4375,-20.3125 23.8281,-19.9219L24.2188,-19.9219L24.2188,-20.3125L24.2188,-20.7031Q24.2188,-21.0938 23.8281,-21.4844Q23.4375,-21.4844 23.4375,-21.0938ZM67.1875,-21.0938L67.1875,-20.7031L67.1875,-20.3125L67.5781,-20.3125L67.9688,-20.3125L67.9688,-20.7031Q67.9688,-21.0938 67.5781,-21.0938L67.1875,-21.0938ZM24.6094,-19.1406L24.6094,-19.1406L24.6094,-19.1406Q25.7812,-19.1406 25.7812,-19.9219L25.7812,-19.9219Q25.7812,-20.3125 25.3906,-20.3125L25.3906,-20.3125Q25,-20.3125 24.6094,-19.1406ZM41.0156,-18.75Q41.0156,-17.9688 41.4062,-17.9688L41.7969,-17.9688L41.7969,-18.3594L41.7969,-18.75L41.4062,-18.75L41.0156,-18.75ZM70.3125,-14.0625L70.3125,-14.0625Q70.3125,-13.2812 71.0938,-13.2812L71.0938,-13.6719Q71.0938,-14.0625 70.7031,-14.0625L70.3125,-14.0625Z"></path><path transform="translate(500 100)" d="M34.375,-76.5625L35.9375,-76.5625L39.0625,-75.7812L40.625,-75.7812Q42.9688,-75.3906 42.9688,-73.4375L42.9688,-73.4375Q42.9688,-73.0469 42.1875,-70.3125L42.1875,-69.5312Q42.1875,-68.3594 42.5781,-68.3594Q44.1406,-68.3594 46.875,-69.9219Q49.2188,-72.2656 50,-72.2656L50.3906,-72.2656L55.0781,-70.7031Q57.0312,-70.3125 58.2031,-68.75Q58.5938,-68.3594 58.5938,-66.7969Q58.5938,-65.2344 56.25,-63.6719Q52.7344,-60.5469 52.3438,-58.9844Q52.3438,-58.5938 53.5156,-58.5938Q54.6875,-58.9844 56.25,-59.375Q57.4219,-59.7656 58.5938,-59.7656Q60.1562,-60.1562 60.5469,-60.1562L63.2812,-60.1562Q64.8438,-60.1562 67.1875,-57.8125Q67.1875,-57.4219 67.5781,-56.6406Q67.5781,-55.4688 65.625,-55.0781L65.2344,-55.0781L61.3281,-56.25L56.25,-56.25L53.125,-55.4688L52.7344,-55.8594L51.5625,-55.8594Q49.6094,-55.4688 46.4844,-53.125Q43.75,-50.3906 42.1875,-49.2188Q41.7969,-49.2188 41.7969,-49.6094Q41.7969,-50 43.3594,-53.125L43.3594,-53.125L43.3594,-53.9062L43.3594,-53.9062L44.1406,-54.2969L44.1406,-54.2969L43.75,-54.2969Q40.625,-53.9062 40.625,-51.9531Q40.625,-50.7812 40.625,-50L40.625,-50Q40.625,-48.8281 42.1875,-48.4375L42.9688,-48.4375Q43.3594,-48.4375 45.3125,-49.6094L47.2656,-50Q49.2188,-50 50,-49.2188Q50.3906,-48.8281 50.3906,-48.4375Q50,-47.2656 48.8281,-47.2656Q48.0469,-47.2656 46.875,-47.2656Q45.7031,-47.2656 44.1406,-47.2656Q39.8438,-46.4844 39.8438,-44.5312L39.8438,-43.3594Q39.8438,-42.9688 39.8438,-41.7969Q40.2344,-41.7969 40.625,-41.4062L40.625,-41.4062Q41.0156,-41.4062 43.75,-42.1875L44.1406,-42.1875Q46.875,-41.4062 46.875,-40.625Q46.0938,-39.8438 43.75,-39.4531Q40.625,-39.0625 40.625,-38.6719Q39.0625,-37.5 39.0625,-35.1562L39.0625,-34.375Q39.8438,-33.2031 41.4062,-33.2031Q42.1875,-33.2031 44.9219,-33.9844Q46.875,-33.9844 48.8281,-35.1562Q50,-35.5469 50.3906,-35.5469L52.3438,-35.5469Q56.25,-35.1562 56.25,-33.2031Q56.25,-32.4219 54.6875,-31.6406L53.5156,-31.6406Q50.3906,-32.0312 49.6094,-32.4219L49.2188,-32.4219Q48.8281,-32.4219 47.6562,-32.0312Q47.2656,-32.4219 46.875,-32.4219Q46.4844,-32.0312 45.3125,-32.0312L44.9219,-32.0312L44.5312,-32.0312L44.1406,-32.0312Q43.3594,-31.25 42.1875,-31.25L41.4062,-31.25Q38.6719,-30.8594 38.6719,-30.4688Q37.5,-29.6875 36.7188,-28.125Q35.5469,-26.5625 35.1562,-26.5625L35.1562,-26.5625L35.1562,-26.9531L35.1562,-27.3438L35.1562,-27.3438Q35.1562,-28.125 35.1562,-28.5156Q35.1562,-30.0781 33.9844,-30.0781Q33.2031,-30.0781 29.2969,-28.9062Q27.7344,-28.5156 25.3906,-27.7344Q24.6094,-27.3438 20.7031,-26.5625Q19.1406,-26.1719 18.75,-26.1719Q17.5781,-26.1719 16.7969,-27.3438L16.7969,-27.7344Q16.7969,-28.5156 18.3594,-28.5156Q20.7031,-29.2969 22.2656,-29.2969Q22.6562,-29.6875 26.5625,-30.0781Q26.9531,-30.4688 28.9062,-30.8594L32.0312,-31.6406Q33.5938,-31.6406 34.375,-32.8125L34.375,-33.2031L34.375,-34.7656Q34.375,-36.3281 33.5938,-37.1094L33.2031,-37.1094L32.8125,-37.1094Q32.4219,-37.1094 28.125,-35.5469Q26.9531,-35.5469 26.9531,-36.7188Q26.9531,-37.5 29.2969,-37.8906Q31.25,-38.2812 33.5938,-39.0625Q35.1562,-40.2344 35.1562,-41.7969L35.1562,-43.75Q35.1562,-44.1406 34.7656,-44.5312L34.375,-44.5312Q30.8594,-43.75 29.2969,-42.9688Q29.2969,-42.5781 28.125,-42.1875Q27.7344,-42.1875 26.5625,-43.3594L26.5625,-43.75Q27.3438,-44.5312 28.5156,-44.5312Q30.4688,-45.3125 33.5938,-46.4844Q35.1562,-47.2656 35.1562,-48.0469L35.1562,-48.8281Q35.1562,-50.3906 35.5469,-51.9531Q34.7656,-52.7344 34.7656,-53.125L35.5469,-53.125L35.5469,-53.125Q34.375,-53.125 24.2188,-50.7812L20.3125,-49.6094Q19.5312,-49.2188 16.4062,-47.6562Q12.5,-46.0938 11.3281,-46.0938L10.9375,-46.0938Q9.76562,-46.0938 7.03125,-48.8281Q6.64062,-49.2188 6.64062,-49.6094Q7.03125,-50.7812 8.20312,-50.7812Q8.98438,-50.7812 11.3281,-51.5625Q12.1094,-51.5625 14.0625,-52.3438L16.7969,-52.3438Q17.9688,-53.125 20.7031,-53.125Q21.875,-53.125 23.8281,-53.5156L25,-53.5156L30.0781,-54.2969Q30.4688,-54.6875 33.5938,-55.0781Q34.375,-55.0781 34.375,-55.8594Q35.1562,-56.6406 35.1562,-57.0312L35.1562,-60.1562Q35.1562,-60.9375 32.0312,-62.1094Q29.6875,-64.0625 29.6875,-64.8438L29.6875,-65.2344L31.6406,-65.625Q33.9844,-66.4062 34.375,-66.7969Q35.1562,-67.5781 35.1562,-67.9688L35.1562,-69.5312Q34.375,-73.0469 33.5938,-74.2188Q32.8125,-75 32.8125,-75.3906Q32.8125,-76.5625 34.375,-76.5625ZM37.8906,-66.7969L37.8906,-66.7969L37.8906,-66.7969L38.2812,-66.7969L38.2812,-66.7969L37.8906,-66.7969L37.8906,-66.7969ZM41.0156,-58.5938Q41.0156,-57.0312 42.1875,-57.0312L42.9688,-57.0312Q43.75,-57.0312 45.3125,-58.2031Q46.0938,-58.9844 46.875,-62.8906L46.875,-63.6719Q46.875,-65.2344 45.7031,-65.2344Q43.3594,-64.4531 42.5781,-64.0625Q41.4062,-63.2812 41.4062,-61.3281Q41.0156,-60.5469 41.0156,-58.5938ZM37.1094,-57.0312L37.1094,-57.0312L37.5,-57.0312L37.5,-57.4219L37.5,-57.4219L37.5,-57.4219Q37.1094,-57.4219 37.1094,-57.0312ZM35.5469,-55.4688L35.5469,-55.4688Q35.5469,-55.0781 35.9375,-54.6875L36.3281,-54.6875L36.3281,-55.0781Q36.3281,-55.4688 35.9375,-55.4688L35.5469,-55.4688ZM48.4375,-48.8281L48.4375,-48.4375L48.8281,-48.4375L48.8281,-48.4375L48.8281,-48.8281L48.8281,-49.2188L48.8281,-49.2188L48.4375,-48.8281ZM46.875,-48.0469L47.2656,-48.0469L47.2656,-48.4375L47.2656,-48.4375L47.2656,-48.8281L46.875,-48.8281L46.875,-48.0469ZM37.1094,-41.4062L37.1094,-41.0156L37.1094,-41.0156L37.1094,-41.0156L37.5,-41.0156L37.5,-41.4062L37.1094,-41.4062L37.1094,-41.4062L37.1094,-41.4062ZM39.0625,-40.625Q39.0625,-40.2344 39.4531,-40.2344L39.8438,-40.2344Q40.2344,-40.2344 40.2344,-40.625Q39.8438,-41.0156 39.4531,-41.0156L39.4531,-41.0156L39.0625,-40.625ZM43.3594,-40.625L43.3594,-40.2344L43.3594,-40.2344L43.75,-40.2344L43.75,-40.625L43.75,-40.625L43.75,-40.625L43.3594,-40.625ZM36.7188,-40.2344L36.7188,-39.8438Q36.7188,-39.0625 37.5,-39.0625L37.5,-39.0625L37.5,-39.4531Q37.5,-39.8438 36.7188,-40.2344L36.7188,-40.2344ZM36.7188,-35.9375L36.7188,-35.5469L36.7188,-35.5469L36.7188,-35.5469L37.1094,-35.5469L37.1094,-35.9375L36.7188,-35.9375L36.7188,-35.9375L36.7188,-35.9375ZM51.9531,-34.7656L51.9531,-34.375L52.3438,-34.375L52.3438,-34.375Q52.7344,-34.375 52.7344,-34.7656Q52.7344,-35.1562 52.3438,-35.1562L52.3438,-35.1562L51.9531,-34.7656ZM37.1094,-34.7656L37.1094,-34.375L37.1094,-33.9844Q37.5,-33.9844 37.5,-34.375Q37.5,-34.7656 37.1094,-34.7656ZM54.2969,-32.8125L54.2969,-32.8125Q54.2969,-32.4219 54.6875,-32.4219L54.6875,-32.4219Q55.0781,-32.4219 55.0781,-32.8125L55.0781,-32.8125L54.2969,-32.8125L54.2969,-32.8125ZM36.7188,-30.8594L36.7188,-30.8594Q36.7188,-30.4688 37.1094,-30.0781L37.5,-30.4688Q37.1094,-31.25 36.7188,-31.25L36.7188,-31.25L36.7188,-30.8594ZM48.8281,-29.2969L49.2188,-29.2969Q54.6875,-27.7344 54.6875,-26.9531Q55.8594,-26.1719 55.8594,-25L55.8594,-24.6094Q55.8594,-23.4375 53.9062,-19.9219L50.3906,-12.5Q50,-11.3281 48.0469,-9.375Q47.2656,-6.64062 46.4844,-6.25Q45.7031,-5.85938 45.3125,-5.85938L44.9219,-5.85938Q44.1406,-5.85938 44.1406,-8.20312L44.1406,-8.98438Q43.75,-8.98438 43.3594,-9.375Q42.9688,-9.76562 42.5781,-9.76562Q39.8438,-9.375 39.4531,-8.98438Q37.8906,-8.59375 34.375,-7.8125Q32.0312,-7.03125 32.0312,-6.64062Q30.4688,-5.07812 30.0781,-4.6875L29.6875,-4.6875Q28.5156,-4.6875 28.125,-6.25Q26.9531,-11.3281 24.6094,-16.4062Q23.8281,-18.75 23.0469,-19.9219Q22.6562,-21.0938 22.6562,-21.4844Q22.6562,-22.2656 23.0469,-22.2656L23.4375,-22.2656L24.6094,-22.2656L25,-22.2656Q26.1719,-22.2656 29.6875,-23.0469Q30.0781,-23.0469 31.6406,-23.8281Q32.8125,-24.2188 37.1094,-25.3906Q38.6719,-26.1719 39.8438,-26.1719L41.4062,-26.1719Q42.9688,-26.5625 44.9219,-26.9531Q45.3125,-26.9531 48.4375,-29.2969L48.8281,-29.2969ZM50.3906,-26.9531L50.3906,-26.9531L50.3906,-26.5625L50.3906,-26.5625L50.3906,-26.9531L50.3906,-26.9531L50.3906,-26.9531L50.3906,-26.9531ZM38.2812,-24.2188L38.2812,-23.8281Q38.2812,-23.4375 39.8438,-21.875L39.8438,-21.0938L39.0625,-19.5312L39.0625,-19.5312L39.0625,-19.1406L39.4531,-19.1406L39.8438,-19.1406L42.1875,-19.9219L42.9688,-19.9219Q44.5312,-19.5312 44.5312,-18.75L44.5312,-18.75Q43.3594,-17.5781 42.5781,-17.5781L41.0156,-17.1875Q39.8438,-16.4062 39.8438,-15.2344L39.8438,-13.2812Q39.8438,-12.8906 39.8438,-12.1094L39.8438,-11.7188L39.4531,-11.3281Q39.8438,-10.5469 40.2344,-10.5469Q40.625,-10.5469 40.625,-10.1562L41.0156,-10.1562L41.0156,-10.5469L40.625,-10.5469L40.625,-10.5469Q41.0156,-10.9375 43.75,-11.7188Q44.5312,-11.7188 45.7031,-14.0625L46.4844,-17.9688Q46.875,-18.3594 47.2656,-21.4844Q47.6562,-21.875 48.0469,-23.8281Q49.2188,-25.7812 49.2188,-26.1719L48.0469,-26.1719L47.6562,-26.1719Q44.1406,-25.7812 42.5781,-25.3906Q42.1875,-25.3906 39.0625,-25L38.2812,-24.2188ZM52.3438,-25.7812L52.3438,-25.3906L52.3438,-25.3906L52.7344,-25.3906L52.7344,-25.3906L52.7344,-25.7812L52.7344,-25.7812L52.3438,-25.7812L52.3438,-25.7812ZM40.2344,-25.7812L40.2344,-25.7812L40.2344,-25.3906L40.2344,-25.3906L40.2344,-25.3906L40.2344,-25.7812L40.2344,-25.7812ZM50.3906,-23.4375L50.3906,-23.0469L50.3906,-23.0469L50.7812,-23.0469L50.7812,-23.0469L50.7812,-23.4375L50.7812,-23.8281L50.3906,-23.8281L50.3906,-23.4375ZM29.6875,-20.3125Q30.0781,-16.7969 30.4688,-16.7969Q30.4688,-16.4062 31.25,-16.4062L31.25,-16.4062L31.6406,-16.4062Q35.5469,-17.1875 35.5469,-18.3594L35.9375,-18.75L35.9375,-19.5312L35.9375,-20.7031Q35.9375,-21.875 34.375,-23.0469L33.9844,-23.0469Q30.0781,-21.875 29.6875,-21.0938L29.6875,-20.3125ZM37.1094,-21.875L37.1094,-21.4844L37.1094,-21.4844L37.8906,-21.875Q37.8906,-22.2656 37.5,-22.2656L37.1094,-22.2656L37.1094,-21.875ZM48.8281,-21.0938L48.8281,-21.0938L49.2188,-21.0938L49.2188,-21.0938Q49.6094,-21.0938 49.6094,-21.4844L49.6094,-21.4844L49.2188,-21.4844Q48.8281,-21.4844 48.8281,-21.0938ZM24.2188,-20.3125L24.2188,-20.3125L24.6094,-19.9219L25,-19.9219Q25.3906,-19.9219 25.3906,-20.3125L25.3906,-20.3125Q25.3906,-20.7031 25,-20.7031Q24.2188,-20.7031 24.2188,-20.3125ZM36.7188,-20.3125L36.7188,-19.9219L36.7188,-19.9219Q37.8906,-19.9219 37.8906,-20.7031L37.1094,-20.7031L37.1094,-20.7031Q36.7188,-20.7031 36.7188,-20.3125ZM26.1719,-19.9219L26.1719,-19.9219L26.1719,-19.5312L26.1719,-19.9219L26.1719,-19.9219L26.1719,-19.9219ZM37.5,-18.75L37.5,-18.75Q37.5,-18.3594 37.8906,-18.3594L38.2812,-18.3594L38.2812,-18.75Q38.2812,-19.1406 37.8906,-19.1406L37.8906,-19.1406L37.5,-18.75ZM41.7969,-17.9688L41.7969,-17.9688L42.1875,-17.9688Q42.5781,-17.9688 42.9688,-18.75L42.9688,-19.1406Q42.1875,-19.1406 41.7969,-17.9688ZM26.5625,-17.1875Q26.5625,-16.7969 26.9531,-16.7969Q27.7344,-16.7969 28.125,-17.1875L28.125,-17.5781L27.7344,-17.5781L27.7344,-17.5781Q26.5625,-17.5781 26.5625,-17.1875ZM30.4688,-15.625L30.8594,-15.2344L30.8594,-14.8438L30.4688,-15.2344L30.0781,-15.2344Q30.8594,-12.8906 30.8594,-11.7188Q31.25,-9.76562 32.4219,-9.76562L33.2031,-9.76562Q35.1562,-9.76562 35.9375,-10.5469Q36.7188,-12.1094 36.7188,-12.8906L36.7188,-13.2812Q36.7188,-14.0625 35.5469,-14.8438L34.7656,-15.2344Q33.5938,-15.2344 32.8125,-15.2344L32.0312,-15.2344Q31.6406,-15.2344 30.8594,-14.8438L30.8594,-15.2344L31.25,-15.625L31.25,-16.0156L30.8594,-16.0156L30.4688,-15.625ZM46.875,-14.8438L46.875,-14.4531Q47.2656,-14.8438 47.6562,-14.8438L47.6562,-15.2344Q47.6562,-15.625 47.2656,-15.625Q46.875,-15.2344 46.875,-14.8438ZM38.6719,-14.0625L38.6719,-14.0625L38.6719,-14.0625L38.6719,-14.0625L38.6719,-14.0625L38.6719,-14.0625ZM27.3438,-12.8906L27.3438,-12.8906L27.7344,-12.8906L27.7344,-12.8906L28.125,-12.8906L28.125,-12.8906L28.125,-12.8906L27.7344,-12.8906L27.3438,-12.8906ZM28.9062,-11.7188L28.9062,-11.7188Q28.9062,-11.3281 29.2969,-11.3281L29.2969,-11.3281Q29.6875,-11.3281 29.6875,-11.7188L29.6875,-11.7188L29.2969,-12.1094L29.2969,-12.1094Q28.9062,-12.1094 28.9062,-11.7188ZM45.3125,-7.42188L45.3125,-7.03125L45.7031,-6.64062L46.0938,-6.64062L46.0938,-7.42188L46.0938,-7.42188L45.7031,-7.42188L45.3125,-7.42188ZM28.9062,-6.25Q28.9062,-5.85938 29.2969,-5.85938L29.2969,-5.85938Q29.6875,-5.85938 30.0781,-6.25L29.6875,-6.25L29.2969,-6.25L28.9062,-6.25ZM57.8125,-4.29688Q61.7188,-3.51562 61.7188,-0.78125L61.7188,-0.390625Q61.7188,0.78125 60.5469,1.17188Q60.1562,0.78125 58.5938,0.78125Q57.8125,0.78125 57.8125,0.390625L57.8125,0.390625L57.8125,0.390625L57.4219,0.390625L57.4219,0.390625L57.0312,0.390625L56.25,0.390625L55.4688,0.390625Q54.2969,0.390625 52.7344,-0L52.3438,-0Q51.5625,-0 50.7812,0.390625Q49.6094,0.390625 49.6094,-0.78125L49.2188,-0.78125L49.2188,-0.78125L48.8281,-0.78125Q48.4375,0.390625 48.0469,0.390625Q46.875,0.390625 46.4844,0.390625L46.0938,0.390625L44.9219,0.390625L43.3594,0.390625Q42.9688,0.390625 41.7969,0.390625Q40.625,0.390625 37.5,1.17188Q36.7188,0.78125 35.9375,0.78125L35.5469,0.78125L30.0781,1.5625L24.2188,2.73438L17.9688,3.90625Q17.1875,3.90625 16.7969,3.90625Q16.4062,3.90625 14.4531,1.95312Q13.6719,1.5625 12.8906,0.390625L12.8906,0.390625L13.6719,0.390625L20.3125,0.390625Q20.7031,0.390625 22.2656,0.390625Q22.6562,-0 23.4375,-0L25.3906,-0Q28.125,-0 28.9062,-0Q31.25,-0.78125 33.2031,-0.78125L34.7656,-0.78125Q37.1094,-1.5625 37.8906,-1.5625L40.2344,-1.5625Q43.3594,-2.34375 44.9219,-2.34375Q47.2656,-2.73438 48.0469,-2.73438L51.1719,-2.73438L54.2969,-3.51562L55.4688,-3.51562L57.8125,-4.29688ZM54.6875,-0.78125L54.6875,-0.78125Q54.6875,-0.390625 55.0781,-0L55.0781,-0Q55.4688,-0.390625 55.4688,-0.78125L55.4688,-1.17188L55.0781,-1.17188L55.0781,-1.17188Q54.6875,-1.17188 54.6875,-0.78125ZM25,0.78125L25,1.17188L25.3906,1.5625L25.7812,1.17188L25.7812,0.78125Q25.7812,0.390625 25.3906,0.390625L25,0.78125ZM75.3906,-73.0469Q76.1719,-73.0469 78.9062,-71.0938Q80.4688,-70.7031 82.8125,-69.9219Q83.9844,-68.75 83.9844,-67.9688L83.9844,-65.625L83.5938,-62.5L83.5938,-39.0625Q83.5938,-35.9375 83.9844,-30.8594L83.9844,-26.1719L83.9844,-7.8125Q83.9844,-6.25 82.0312,-0.390625Q78.9062,5.07812 77.3438,5.07812Q76.5625,5.07812 75.7812,1.95312Q74.6094,-0.390625 70.7031,-3.51562Q70.3125,-3.90625 69.1406,-5.07812L69.5312,-5.46875Q71.0938,-5.07812 71.875,-5.07812L73.8281,-5.07812Q74.6094,-5.07812 75.3906,-6.64062L75.3906,-10.1562Q75.3906,-10.5469 76.1719,-14.0625L76.1719,-43.75Q76.1719,-44.1406 75.7812,-45.7031L75.7812,-46.0938Q76.1719,-47.2656 76.1719,-47.6562L76.1719,-48.0469Q75.3906,-51.1719 75.3906,-55.4688L75.3906,-62.8906Q74.6094,-66.0156 74.6094,-66.7969Q74.2188,-68.3594 72.6562,-70.3125L72.6562,-70.7031Q73.4375,-73.0469 75.3906,-73.0469ZM75.3906,-69.9219L75.3906,-69.5312L75.7812,-69.5312L75.7812,-69.9219L75.7812,-69.9219L75.7812,-69.9219L75.3906,-69.9219ZM76.5625,-66.0156L76.5625,-65.625L76.9531,-65.2344L77.3438,-65.2344L77.3438,-65.625L77.3438,-66.0156L76.9531,-66.0156L76.9531,-66.0156L76.5625,-66.0156ZM76.1719,-60.5469L76.1719,-60.1562L76.5625,-60.1562L76.5625,-60.1562Q76.9531,-60.1562 76.9531,-60.5469Q76.9531,-60.9375 76.5625,-60.9375L76.5625,-60.9375L76.1719,-60.5469ZM77.3438,-57.4219L77.3438,-57.4219Q77.3438,-57.0312 77.7344,-57.0312L77.7344,-57.0312L78.125,-57.4219L78.125,-57.4219Q78.125,-57.8125 77.7344,-57.8125L77.7344,-57.8125Q77.3438,-57.8125 77.3438,-57.4219ZM61.3281,-48.8281Q61.7188,-48.8281 66.4062,-46.0938Q67.5781,-46.0938 69.9219,-44.9219Q70.7031,-43.75 70.7031,-43.3594L70.3125,-41.4062L70.3125,-37.8906Q70.3125,-37.5 69.5312,-34.375L69.5312,-31.25Q69.5312,-28.125 66.0156,-25.3906Q65.625,-25 64.8438,-25Q64.0625,-25 63.2812,-26.5625Q62.8906,-27.7344 62.8906,-29.6875L62.8906,-42.9688Q62.5,-45.7031 62.1094,-46.0938Q61.3281,-47.6562 60.9375,-48.0469Q60.9375,-48.4375 61.3281,-48.8281ZM81.6406,-47.6562L81.6406,-47.2656L81.6406,-47.2656L82.0312,-47.2656L82.0312,-47.6562L81.6406,-47.6562L81.6406,-47.6562ZM67.1875,-45.3125L67.1875,-44.9219L67.5781,-44.9219L67.5781,-45.3125L67.5781,-45.3125L67.5781,-45.3125L67.1875,-45.3125ZM63.6719,-41.4062Q63.6719,-41.0156 64.0625,-40.625L64.0625,-40.625Q64.4531,-40.625 64.4531,-41.0156L64.4531,-41.4062Q64.4531,-41.7969 64.0625,-41.7969L64.0625,-41.7969Q63.6719,-41.7969 63.6719,-41.4062ZM64.0625,-36.7188L64.0625,-36.3281Q64.0625,-35.5469 64.8438,-35.5469Q65.2344,-35.5469 65.2344,-35.9375L65.2344,-36.3281L64.4531,-36.7188L64.0625,-36.7188ZM78.5156,-35.5469L78.5156,-35.5469Q78.5156,-35.1562 78.9062,-35.1562L78.9062,-35.1562Q79.2969,-35.1562 79.6875,-35.5469L79.6875,-35.9375L79.2969,-35.9375L78.9062,-35.9375Q78.5156,-35.9375 78.5156,-35.5469ZM64.0625,-28.5156L64.0625,-28.125Q64.0625,-27.7344 64.4531,-27.7344L64.8438,-27.7344L64.8438,-28.125L64.8438,-28.5156L64.4531,-28.5156L64.0625,-28.5156L64.0625,-28.5156ZM76.9531,-17.5781L76.9531,-17.5781Q76.9531,-17.1875 77.3438,-17.1875L77.3438,-17.1875L77.3438,-17.1875L77.3438,-17.5781L77.3438,-17.9688L77.3438,-17.9688Q76.9531,-17.9688 76.9531,-17.5781ZM80.0781,-7.8125L80.0781,-7.42188L80.0781,-7.42188Q80.4688,-7.42188 80.4688,-7.8125L80.4688,-8.20312L80.0781,-8.20312L80.0781,-7.8125Z"></path><path transform="translate(0 200)" d="M36.7188,-58.5938L40.2344,-58.2031L40.2344,-58.5938Q40.625,-58.2031 43.3594,-58.2031L45.3125,-58.2031Q45.7031,-58.2031 46.0938,-57.4219Q45.7031,-55.4688 45.7031,-54.2969Q45.7031,-53.9062 46.0938,-53.9062L45.7031,-53.9062L46.0938,-51.9531L46.0938,-51.5625Q45.7031,-50.7812 45.7031,-50.3906Q45.7031,-49.2188 46.0938,-49.2188L45.7031,-49.2188Q46.0938,-47.2656 46.0938,-46.875L46.0938,-43.3594Q46.0938,-42.1875 45.7031,-41.7969Q46.0938,-41.0156 46.0938,-39.8438L46.0938,-35.5469Q46.0938,-35.1562 45.7031,-35.1562L45.7031,-35.1562Q44.9219,-35.5469 43.75,-42.1875Q43.3594,-42.1875 41.7969,-47.2656L37.8906,-53.125Q37.5,-53.125 34.375,-56.6406Q32.8125,-57.4219 31.6406,-57.4219L31.25,-57.4219L30.8594,-57.0312Q31.25,-55.0781 31.25,-54.2969L31.25,-44.9219Q31.25,-43.75 31.25,-43.3594L31.25,-42.9688Q31.25,-41.7969 31.25,-41.0156Q31.25,-40.2344 31.25,-38.2812L31.25,-38.2812L31.25,-37.5L31.25,-37.1094Q31.25,-36.7188 31.6406,-36.7188L31.25,-35.5469Q31.25,-35.1562 31.6406,-34.7656L31.25,-33.9844L31.6406,-32.0312Q31.6406,-31.6406 31.25,-30.4688Q31.6406,-29.6875 31.6406,-28.9062Q31.6406,-28.125 31.25,-26.9531Q31.6406,-26.1719 31.6406,-25.7812L31.6406,-23.0469Q31.6406,-22.2656 31.25,-21.0938L31.6406,-16.7969L31.6406,-16.0156L31.6406,-15.2344Q31.6406,-14.0625 31.6406,-13.6719L31.6406,-12.5L31.6406,-10.9375L31.6406,-10.5469L31.6406,-9.76562Q31.6406,-8.98438 31.6406,-8.59375L31.6406,-2.73438L31.25,-1.5625Q31.6406,-1.5625 31.6406,-1.17188Q33.5938,-1.5625 33.9844,-1.5625Q35.1562,-1.17188 35.1562,-0.78125Q35.1562,-0.390625 34.7656,-0Q32.8125,-0.390625 31.6406,-0.390625L27.7344,-0.390625L27.7344,-0Q27.3438,-0 27.3438,-0.390625Q24.6094,-0 24.2188,-0L23.4375,-0L18.75,-0Q17.5781,-0 16.7969,-0Q16.4062,-0 15.2344,-0Q14.8438,-0 14.0625,-0Q12.8906,-0.390625 12.8906,-0.78125Q13.6719,-1.17188 14.8438,-1.17188L15.2344,-1.17188L17.1875,-1.17188Q17.5781,-1.17188 17.5781,-1.5625Q17.5781,-4.29688 17.5781,-5.07812L17.5781,-5.07812L17.5781,-5.07812L17.5781,-5.46875Q17.5781,-5.85938 17.5781,-7.03125Q17.5781,-7.42188 17.5781,-8.98438Q17.5781,-10.1562 17.1875,-10.1562L17.5781,-11.7188L17.5781,-12.5Q17.5781,-13.6719 17.1875,-14.4531Q17.5781,-14.8438 17.5781,-15.625L17.1875,-16.0156L17.5781,-16.0156L17.1875,-20.3125L17.1875,-22.6562L17.1875,-24.6094L17.1875,-25L17.1875,-25.7812L17.1875,-35.1562Q17.1875,-35.9375 17.1875,-36.3281Q17.1875,-37.1094 17.1875,-37.5L17.1875,-41.7969L17.1875,-42.5781Q17.5781,-42.9688 17.5781,-43.75L17.5781,-44.9219L17.5781,-47.2656L17.5781,-48.8281Q17.5781,-50.3906 17.5781,-50.7812L17.1875,-52.7344Q17.5781,-53.5156 17.5781,-53.9062L17.5781,-55.8594Q17.5781,-56.6406 17.5781,-57.8125L18.75,-58.2031Q20.3125,-58.2031 21.0938,-58.2031L21.4844,-58.2031Q22.6562,-58.2031 23.0469,-57.8125L27.3438,-58.2031L28.9062,-58.2031L29.6875,-58.2031L30.0781,-58.2031Q31.25,-58.2031 32.0312,-58.2031L34.375,-58.2031Q34.7656,-58.2031 36.7188,-58.5938ZM3.51562,-58.2031Q4.29688,-58.2031 4.6875,-58.2031L5.07812,-58.2031L5.85938,-58.2031L8.20312,-58.2031L8.59375,-58.2031L8.98438,-58.2031L14.8438,-58.2031Q15.625,-58.2031 16.7969,-58.2031L17.1875,-58.2031L17.1875,-57.8125Q17.1875,-57.4219 14.0625,-57.0312Q8.59375,-52.3438 7.8125,-48.8281Q6.64062,-46.875 3.90625,-36.3281Q3.51562,-33.5938 3.125,-33.5938L2.73438,-33.5938L2.73438,-48.8281L2.34375,-50Q2.73438,-50.3906 2.73438,-50.7812L2.73438,-52.7344L2.34375,-53.9062Q2.73438,-54.2969 2.73438,-54.6875L2.73438,-55.8594L2.73438,-56.6406Q2.73438,-58.2031 3.51562,-58.2031ZM24.6094,-44.5312L24.6094,-44.1406L25,-44.1406L25,-44.5312L24.6094,-44.5312ZM28.5156,-8.98438L28.5156,-8.59375L28.9062,-8.59375L28.9062,-8.98438L28.5156,-8.98438L28.5156,-8.98438ZM39.0625,-2.34375L39.0625,-2.34375Q39.4531,-2.34375 39.4531,-1.95312L39.4531,-1.5625L39.0625,-1.5625L39.0625,-1.5625L39.0625,-1.95312L39.0625,-2.34375Z"></path><path transform="translate(48 200)" d="M12.8906,-57.4219L14.8438,-57.4219Q16.7969,-57.4219 16.7969,-56.6406Q16.7969,-56.25 16.4062,-54.6875Q16.7969,-52.7344 16.7969,-51.1719L16.7969,-51.1719Q16.4062,-50.7812 16.4062,-50.3906L16.4062,-45.7031L16.4062,-44.9219L16.4062,-44.5312L16.4062,-43.75Q16.4062,-43.3594 16.4062,-42.1875Q16.4062,-41.0156 16.4062,-40.625L16.4062,-39.8438Q16.0156,-39.0625 16.0156,-38.2812L16.0156,-37.8906L16.4062,-37.8906L16.0156,-37.5L16.0156,-37.1094Q16.4062,-35.9375 16.4062,-35.5469L16.4062,-34.7656Q16.4062,-34.375 16.7969,-34.375Q19.1406,-37.5 22.6562,-39.0625Q26.1719,-40.2344 27.3438,-40.2344L28.125,-40.2344Q28.5156,-40.625 29.2969,-40.625L33.2031,-40.625Q37.8906,-39.4531 37.8906,-37.8906Q39.0625,-37.8906 39.4531,-33.9844L39.4531,-32.8125Q39.4531,-31.25 39.8438,-31.25Q39.4531,-31.25 39.4531,-29.6875L39.4531,-29.2969L39.4531,-28.5156Q39.4531,-27.7344 39.8438,-27.7344L39.4531,-27.7344L39.4531,-27.3438Q39.4531,-25.7812 39.8438,-23.4375Q39.4531,-22.2656 39.4531,-21.4844Q39.4531,-18.75 39.8438,-18.75Q39.4531,-17.9688 39.4531,-17.5781L39.4531,-16.7969L39.4531,-15.2344L39.4531,-13.2812L39.4531,-10.9375L39.4531,-9.375Q39.4531,-8.98438 39.4531,-8.20312Q39.4531,-7.42188 39.4531,-7.03125L39.4531,-6.25L39.8438,-5.46875L39.4531,-4.6875L39.4531,-4.6875L39.4531,-4.29688L39.4531,-3.90625L39.4531,-1.17188Q39.4531,-0.390625 39.8438,-0.390625Q40.625,-1.17188 41.0156,-1.17188L41.7969,-0.78125Q42.9688,-0.78125 42.9688,-1.17188Q43.75,-0.78125 43.75,-0.390625L43.75,-0L42.5781,-0L41.7969,-0Q39.0625,-0 36.3281,-0.390625Q34.375,-0 33.9844,-0L33.2031,-0L32.4219,-0L32.0312,-0L31.25,-0L31.25,-0Q29.6875,-0 28.9062,-0Q23.8281,-0.390625 23.8281,-0.78125Q23.8281,-1.17188 24.2188,-1.17188L27.7344,-1.17188Q28.125,-1.17188 28.125,-1.5625Q28.125,-5.46875 28.125,-6.25L28.125,-6.25L28.125,-6.25L28.125,-7.03125L28.125,-7.8125L28.125,-8.20312L28.125,-8.59375L28.125,-10.1562Q28.125,-10.9375 28.125,-12.1094L28.5156,-13.6719Q28.125,-14.4531 28.125,-15.2344L28.125,-15.2344L28.5156,-17.1875L28.5156,-17.1875L28.5156,-17.5781L28.5156,-19.1406L28.5156,-20.3125Q28.5156,-21.875 28.5156,-22.6562Q28.5156,-24.2188 28.5156,-24.6094Q28.125,-24.6094 28.125,-25L28.125,-25.7812Q28.125,-26.1719 28.5156,-26.9531Q28.125,-30.4688 27.7344,-31.6406L28.125,-32.4219L27.7344,-33.2031L27.7344,-33.5938L27.7344,-33.5938Q26.9531,-38.2812 25,-38.2812L24.6094,-38.6719Q21.875,-38.6719 16.4062,-32.8125L16.4062,-32.0312L16.4062,-31.6406L16.4062,-31.6406L16.4062,-29.6875L16.4062,-25.3906L16.4062,-24.6094L16.4062,-23.8281L16.4062,-23.4375L16.4062,-21.0938Q16.4062,-19.9219 16.4062,-19.5312L16.4062,-19.1406L16.4062,-17.5781L16.4062,-16.0156Q16.4062,-15.2344 16.4062,-14.0625L16.4062,-13.2812Q16.4062,-12.8906 16.4062,-12.1094L16.0156,-10.9375L16.4062,-8.20312Q16.0156,-3.90625 16.0156,-2.73438L16.0156,-2.34375L16.0156,-1.5625L16.0156,-1.5625Q16.0156,-1.17188 16.4062,-1.17188L19.1406,-1.17188Q19.5312,-1.17188 19.9219,-0.78125Q19.5312,-0.390625 18.75,-0.390625L7.42188,-0.390625L7.03125,-0.390625L6.64062,-0.390625L1.17188,-0Q0,-0.390625 0,-0.78125L0.78125,-1.5625L4.29688,-1.17188Q4.6875,-2.34375 5.07812,-2.73438L5.07812,-3.125L4.6875,-3.51562L4.6875,-8.20312Q4.6875,-9.375 4.6875,-10.9375L4.6875,-11.7188L4.6875,-12.5L4.6875,-17.1875Q4.6875,-18.3594 4.6875,-19.1406L4.6875,-20.7031L4.6875,-23.8281L4.6875,-29.2969Q4.6875,-30.4688 4.6875,-32.0312L4.6875,-32.0312L4.6875,-32.8125Q4.6875,-33.2031 4.6875,-33.9844L4.6875,-34.7656Q4.6875,-37.8906 4.6875,-39.8438L4.6875,-47.6562Q4.6875,-48.4375 4.6875,-49.6094L4.6875,-50Q4.6875,-51.9531 4.6875,-52.7344L4.6875,-53.5156L4.6875,-54.2969L4.6875,-55.8594L4.29688,-55.8594Q3.90625,-55.8594 1.17188,-55.8594Q0.390625,-55.8594 0.390625,-56.25L0.390625,-56.6406L0.78125,-56.6406L2.73438,-56.6406L3.125,-57.0312L3.51562,-56.6406Q4.29688,-56.6406 9.76562,-57.0312Q10.5469,-57.0312 10.9375,-57.0312L11.3281,-57.0312L11.7188,-57.0312Q12.1094,-57.0312 12.8906,-57.4219Z"></path><path transform="translate(92 200)" d="M22.6562,-43.75Q23.0469,-43.75 23.8281,-43.75L23.8281,-43.75L24.2188,-43.75L25.7812,-43.75L26.5625,-43.75L26.9531,-43.75Q30.0781,-42.9688 31.25,-41.7969Q32.0312,-41.7969 35.1562,-39.4531Q36.3281,-38.6719 38.2812,-34.375Q40.2344,-27.7344 40.2344,-24.6094L40.2344,-23.4375Q40.2344,-22.2656 39.0625,-22.2656L37.5,-22.2656Q35.9375,-22.2656 33.9844,-22.2656L33.5938,-22.2656L24.6094,-21.875L24.2188,-21.875Q21.875,-21.4844 18.3594,-21.4844L17.5781,-21.4844L16.0156,-21.875L16.0156,-21.4844L16.0156,-21.0938Q16.0156,-20.3125 16.0156,-19.9219L16.0156,-19.1406L16.0156,-18.75L16.0156,-17.9688L16.0156,-17.1875L16.0156,-16.4062L16.0156,-15.625Q16.0156,-14.0625 16.0156,-13.6719L16.7969,-8.20312Q17.5781,-7.03125 17.9688,-5.07812Q19.5312,-3.51562 20.7031,-3.51562Q21.4844,-2.73438 21.875,-2.73438Q22.6562,-3.125 23.0469,-3.125L25,-3.125Q28.125,-3.51562 29.2969,-4.29688Q34.7656,-7.03125 37.1094,-13.2812L38.6719,-17.1875L38.6719,-17.1875L39.0625,-17.1875Q38.6719,-14.4531 34.7656,-6.64062Q28.9062,-1.5625 24.6094,-0.78125Q24.6094,-0.390625 23.4375,-0.390625Q21.0938,-0.390625 18.75,-0Q13.2812,-0 8.20312,-7.03125Q3.125,-13.2812 3.125,-19.1406L2.73438,-21.4844L2.73438,-21.875Q3.90625,-31.25 4.6875,-31.25Q7.03125,-37.8906 13.6719,-41.4062Q15.625,-41.7969 15.625,-42.9688L16.0156,-42.9688L16.4062,-42.5781L17.9688,-42.5781Q18.3594,-42.9688 19.9219,-43.3594L20.3125,-43.75L20.7031,-43.3594L22.6562,-43.75ZM22.2656,-41.7969L21.0938,-41.7969Q20.7031,-41.7969 18.75,-40.625Q17.5781,-39.8438 16.4062,-35.1562Q16.0156,-29.6875 16.0156,-28.5156L16.0156,-28.125L15.625,-26.1719Q16.0156,-24.6094 16.0156,-23.4375L16.0156,-23.0469L16.0156,-22.6562Q16.4062,-22.6562 18.3594,-22.6562L19.1406,-22.6562Q22.2656,-23.0469 28.125,-23.0469L28.5156,-23.4375L28.5156,-25Q28.5156,-25.3906 28.125,-26.1719L28.125,-27.7344Q28.125,-28.125 27.7344,-28.9062Q28.125,-28.9062 28.125,-29.2969Q27.7344,-31.25 27.3438,-36.3281Q26.9531,-36.3281 26.5625,-37.8906L25.3906,-40.2344L23.4375,-42.1875L22.2656,-41.7969Z"></path><path transform="translate(135 200)" d=""></path><path transform="translate(185 200)" d="M17.9688,-58.9844Q21.4844,-58.9844 28.5156,-58.5938Q33.2031,-58.2031 37.5,-55.4688Q41.4062,-51.5625 41.4062,-48.8281Q42.5781,-46.4844 42.5781,-43.3594L42.5781,-42.1875Q42.5781,-38.2812 41.4062,-36.3281L41.4062,-35.9375Q40.2344,-31.25 37.5,-29.2969Q35.1562,-26.9531 29.6875,-26.9531Q29.6875,-26.5625 22.6562,-26.1719L22.2656,-26.1719Q20.7031,-26.5625 20.3125,-26.5625L19.1406,-26.1719L18.3594,-26.5625L18.3594,-26.9531Q26.1719,-26.9531 28.9062,-31.6406Q29.2969,-33.5938 29.2969,-37.1094L29.2969,-37.5Q29.6875,-38.2812 29.6875,-41.4062Q29.6875,-54.2969 25,-56.6406Q25,-57.4219 18.3594,-57.8125L18.3594,-57.4219Q18.3594,-55.8594 18.75,-55.8594L18.3594,-55.8594Q18.3594,-54.6875 18.3594,-52.7344Q18.3594,-51.1719 18.3594,-50.7812Q18.3594,-48.8281 17.9688,-47.6562Q18.3594,-47.2656 18.3594,-46.875Q18.3594,-46.0938 18.3594,-43.75L18.3594,-43.75L18.3594,-43.3594L18.3594,-43.3594Q18.3594,-42.5781 18.3594,-42.1875Q17.9688,-40.625 17.9688,-38.2812L18.3594,-38.2812L17.9688,-37.8906L17.9688,-35.5469L17.9688,-33.9844L17.9688,-33.5938L17.9688,-33.2031L17.9688,-32.0312L17.9688,-29.6875L17.9688,-28.125L17.9688,-26.9531Q17.9688,-25.3906 17.9688,-24.6094L17.9688,-24.2188Q17.9688,-22.6562 17.9688,-19.9219L17.9688,-19.5312Q17.9688,-17.9688 17.9688,-17.1875L17.9688,-11.7188Q17.9688,-9.76562 17.5781,-7.8125L17.9688,-7.03125Q17.5781,-3.51562 17.5781,-2.73438L17.5781,-2.73438L17.5781,-1.5625L17.5781,-1.17188Q19.1406,-1.17188 21.4844,-1.17188L22.2656,-0.78125L22.2656,-0.390625Q22.2656,-0 20.7031,-0Q19.9219,-0 17.1875,-0L16.7969,-0L16.0156,-0L15.625,-0Q14.0625,-0 12.1094,-0Q11.3281,-0 10.9375,-0Q9.76562,-0 9.375,-0L8.20312,-0L7.8125,-0L7.8125,-0Q7.03125,-0 1.17188,-0Q-1.17188,-0 -1.17188,-0.390625L-1.17188,-0.78125L-0.78125,-0.78125Q0.78125,-0.78125 1.5625,-0.78125L3.125,-0.78125L3.51562,-0.78125L3.90625,-0.78125L3.90625,-1.17188L3.90625,-1.5625Q3.90625,-2.34375 4.29688,-4.29688Q4.29688,-4.6875 3.90625,-4.6875L4.29688,-5.46875L4.29688,-7.42188Q4.29688,-7.8125 4.29688,-8.98438Q4.29688,-9.375 4.29688,-11.3281L4.29688,-12.1094Q4.29688,-12.8906 4.29688,-13.2812L4.6875,-15.2344Q4.6875,-15.625 4.29688,-15.625Q4.6875,-16.7969 4.6875,-17.5781L4.6875,-21.875Q4.6875,-22.2656 4.29688,-22.2656Q4.6875,-22.2656 4.6875,-25.3906L4.6875,-25.3906L4.6875,-25.3906L4.6875,-25.7812L4.6875,-27.3438L4.6875,-27.7344L4.6875,-28.9062L5.07812,-29.6875L4.6875,-30.4688L4.6875,-30.8594L4.6875,-32.4219Q4.6875,-32.8125 4.6875,-33.9844L4.6875,-34.7656L4.6875,-36.3281L4.6875,-38.6719L4.6875,-41.7969Q4.6875,-42.5781 4.6875,-42.9688L4.6875,-43.75Q4.6875,-44.5312 4.6875,-44.9219L4.6875,-52.7344Q4.6875,-54.2969 4.6875,-56.25Q4.29688,-57.4219 3.51562,-57.4219L1.17188,-57.4219L0.390625,-57.8125L0.390625,-58.2031L1.17188,-58.2031L2.73438,-58.2031Q4.29688,-58.2031 4.6875,-58.5938Q5.85938,-58.2031 6.64062,-58.2031L12.1094,-58.2031Q14.0625,-58.2031 14.8438,-58.5938L15.625,-58.5938Q17.1875,-58.9844 17.9688,-58.9844ZM6.25,-33.2031L6.25,-32.8125L6.64062,-32.8125L6.64062,-32.8125L6.64062,-33.2031L6.25,-33.2031ZM7.8125,-31.25L7.8125,-30.8594L8.20312,-30.8594L8.20312,-31.25L8.20312,-31.25L7.8125,-31.25ZM6.64062,-26.1719L7.03125,-25.7812Q7.42188,-25.7812 7.42188,-26.1719Q7.42188,-26.5625 7.03125,-26.5625Q6.64062,-26.5625 6.64062,-26.1719Z"></path><path transform="translate(230 200)" d="M3.90625,-40.625L5.46875,-40.625L5.46875,-40.625L5.85938,-40.625L13.2812,-40.625Q16.0156,-40.625 16.0156,-39.8438L16.0156,-39.4531Q16.0156,-37.8906 16.0156,-37.1094Q16.0156,-36.7188 16.0156,-34.7656L16.4062,-34.7656Q17.1875,-37.1094 20.7031,-39.0625Q24.2188,-40.625 25.3906,-40.625L28.125,-40.625Q33.2031,-39.0625 33.2031,-37.8906Q33.9844,-36.7188 34.7656,-33.9844Q34.375,-32.0312 34.375,-31.6406L34.7656,-30.8594Q33.2031,-26.5625 30.8594,-25.7812L28.5156,-25Q25.3906,-25.3906 23.4375,-27.7344Q21.4844,-30.0781 21.4844,-31.6406Q21.4844,-34.375 25.3906,-37.5L25.3906,-38.2812Q25,-38.6719 24.2188,-38.6719L23.8281,-38.6719L23.0469,-38.6719L22.6562,-38.6719Q17.9688,-37.1094 17.9688,-35.9375Q17.5781,-35.9375 16.7969,-34.7656L16.7969,-34.7656L16.7969,-34.375Q16.7969,-33.9844 15.625,-33.5938L16.0156,-27.7344Q15.625,-23.0469 15.625,-3.51562Q15.2344,-2.34375 15.2344,-1.95312Q15.625,-1.17188 16.0156,-1.17188L17.1875,-1.17188Q20.7031,-1.17188 20.7031,-0.78125Q20.7031,-0.390625 18.75,-0Q17.9688,-0 17.5781,-0L17.1875,-0L16.4062,-0L15.625,-0L14.4531,-0Q13.6719,-0 13.2812,-0L11.7188,-0L10.9375,-0L10.5469,-0L9.76562,-0Q7.8125,-0 -1.17188,-0.390625Q-1.5625,-0.390625 -1.5625,-0.78125L-1.5625,-1.17188L-1.17188,-1.5625L-0.390625,-1.5625L3.90625,-1.5625L3.90625,-1.5625L3.90625,-1.95312L3.90625,-2.34375L3.90625,-2.34375Q4.29688,-5.46875 4.29688,-5.85938L3.90625,-7.03125Q4.29688,-9.375 4.29688,-12.1094L4.29688,-12.5Q4.29688,-13.2812 4.6875,-13.6719Q4.6875,-15.2344 4.29688,-15.2344L4.29688,-15.2344L4.29688,-16.4062Q4.29688,-16.7969 4.29688,-17.5781L4.29688,-18.3594L4.29688,-18.75Q4.29688,-19.1406 4.29688,-19.9219L4.29688,-20.3125Q4.29688,-22.6562 4.29688,-23.0469L4.29688,-23.4375Q4.29688,-28.125 3.90625,-30.0781Q4.29688,-31.25 4.29688,-35.5469L4.29688,-36.3281L4.29688,-37.8906L4.29688,-39.0625L3.90625,-39.4531L3.51562,-39.4531Q0.390625,-39.4531 0.390625,-40.2344L0.390625,-40.2344L0.78125,-40.625L1.17188,-40.625Q2.73438,-40.625 3.90625,-40.625Z"></path><path transform="translate(266 200)" d="M19.5312,-42.1875L22.6562,-42.1875Q28.9062,-41.4062 30.0781,-40.2344Q32.8125,-39.0625 34.375,-37.5Q36.3281,-35.1562 37.1094,-33.9844Q37.5,-33.9844 37.8906,-30.8594Q38.2812,-30.8594 38.6719,-27.7344Q39.0625,-27.7344 39.0625,-25.3906L39.4531,-25.3906Q39.0625,-24.6094 39.0625,-24.2188L39.0625,-23.0469L39.0625,-22.6562L39.0625,-22.6562Q39.0625,-21.875 39.0625,-20.7031L39.0625,-20.3125L39.0625,-19.5312Q38.2812,-12.5 36.3281,-8.98438Q33.5938,-5.07812 31.25,-3.125Q25.7812,-0 21.0938,-0L20.3125,-0.390625L19.9219,-0.390625Q18.75,-0.390625 17.1875,-0Q9.76562,-2.34375 7.42188,-6.64062Q4.6875,-9.76562 2.73438,-16.7969L1.95312,-19.5312L1.95312,-23.4375Q1.95312,-26.9531 5.85938,-33.9844Q8.20312,-36.7188 12.1094,-39.4531Q14.8438,-41.7969 18.75,-41.7969Q18.75,-42.1875 19.5312,-42.1875ZM13.6719,-25.7812L14.0625,-25.7812Q13.6719,-25 13.6719,-22.6562Q14.0625,-21.875 14.0625,-21.4844Q14.0625,-20.7031 13.6719,-20.3125Q14.0625,-11.3281 15.2344,-8.98438L14.8438,-8.59375L14.8438,-8.59375Q16.0156,-1.5625 21.0938,-1.5625Q25.3906,-1.5625 25.3906,-3.125Q26.5625,-5.85938 27.3438,-9.375L27.3438,-11.7188Q27.7344,-17.9688 27.7344,-19.1406L27.7344,-20.7031L27.7344,-22.2656L27.7344,-23.0469Q27.7344,-23.8281 27.7344,-24.2188L27.7344,-25.3906L27.7344,-25.7812L27.7344,-26.1719L27.7344,-26.9531L27.7344,-27.7344Q27.7344,-28.5156 27.3438,-30.0781L27.3438,-31.6406Q25.3906,-40.2344 22.2656,-40.2344L21.4844,-40.2344Q17.9688,-39.8438 17.1875,-38.6719Q14.8438,-35.1562 14.8438,-31.6406Q13.6719,-28.5156 13.6719,-25.7812Z"></path><path transform="translate(307 200)" d="M21.0938,-64.0625Q25,-64.0625 26.5625,-60.1562L26.5625,-59.375L26.5625,-58.9844L26.5625,-57.8125Q25.3906,-52.7344 21.875,-52.7344L21.0938,-52.7344L21.0938,-52.7344Q14.8438,-53.125 14.8438,-57.8125L14.8438,-58.2031Q15.2344,-62.5 18.3594,-63.6719L21.0938,-64.0625ZM19.5312,-47.2656Q21.4844,-47.2656 21.875,-46.875Q23.4375,-47.2656 24.2188,-47.2656L26.1719,-47.2656Q27.7344,-47.2656 27.7344,-45.3125L27.7344,-45.3125L27.7344,-44.9219L27.7344,-43.75Q27.7344,-41.4062 28.125,-40.625Q27.3438,-33.2031 27.3438,-26.9531L27.7344,-26.9531Q27.3438,-26.5625 27.3438,-24.6094L27.3438,-23.8281L27.3438,-22.6562Q27.3438,-21.4844 27.3438,-21.0938L27.3438,-20.3125L27.3438,-20.3125Q27.3438,-17.9688 27.3438,-17.1875L27.3438,-15.2344Q27.3438,-12.5 27.3438,-10.9375L27.3438,-10.1562L27.3438,-9.76562L27.3438,-9.375L27.3438,-8.98438L27.3438,-7.8125Q26.9531,-7.03125 26.9531,-6.64062L26.9531,-6.64062L26.9531,-6.25Q26.9531,-5.46875 26.9531,-2.73438L26.1719,-0.390625Q26.5625,-0 26.5625,0.390625Q26.5625,1.17188 25.3906,2.73438L25.7812,3.51562Q25.7812,7.03125 21.875,10.9375Q17.1875,13.6719 14.4531,14.0625L13.2812,14.0625Q8.59375,13.2812 5.85938,10.5469Q1.95312,7.42188 1.95312,3.90625L1.95312,3.51562Q1.95312,1.17188 3.51562,-1.5625Q4.6875,-2.34375 6.25,-3.125L7.03125,-3.125Q7.42188,-3.125 8.59375,-3.125Q12.8906,-1.95312 12.8906,-1.17188Q12.8906,-0 14.0625,1.95312L14.0625,2.34375Q13.6719,5.46875 12.8906,6.64062L10.9375,8.59375L10.9375,10.5469Q10.9375,10.9375 13.2812,11.3281Q14.0625,11.3281 15.2344,7.42188L15.2344,5.46875Q15.2344,4.29688 15.2344,2.34375L15.2344,1.95312Q15.625,1.5625 15.625,1.17188Q15.2344,-1.5625 15.2344,-2.73438L15.2344,-3.125Q15.625,-3.90625 15.625,-4.29688Q15.625,-4.6875 15.2344,-5.07812Q15.2344,-5.46875 15.625,-6.64062L15.2344,-7.8125L15.625,-8.59375L15.2344,-9.375Q15.625,-11.7188 15.625,-13.6719L15.625,-15.625Q15.625,-16.0156 15.625,-17.5781L15.625,-17.5781L15.625,-17.9688L15.625,-23.0469L15.625,-25L15.625,-25.7812Q15.625,-26.9531 15.625,-27.7344L15.625,-28.125L15.625,-28.125Q15.625,-30.4688 15.625,-31.25Q15.625,-33.2031 15.625,-33.9844Q15.625,-45.3125 14.8438,-45.3125L12.1094,-45.3125L11.7188,-45.3125Q10.9375,-45.7031 10.5469,-45.7031L10.5469,-46.0938Q10.5469,-46.4844 14.0625,-46.875L14.0625,-46.875Q18.75,-46.875 19.5312,-47.2656Z"></path><path transform="translate(337 200)" d="M22.6562,-43.75Q23.0469,-43.75 23.8281,-43.75L23.8281,-43.75L24.2188,-43.75L25.7812,-43.75L26.5625,-43.75L26.9531,-43.75Q30.0781,-42.9688 31.25,-41.7969Q32.0312,-41.7969 35.1562,-39.4531Q36.3281,-38.6719 38.2812,-34.375Q40.2344,-27.7344 40.2344,-24.6094L40.2344,-23.4375Q40.2344,-22.2656 39.0625,-22.2656L37.5,-22.2656Q35.9375,-22.2656 33.9844,-22.2656L33.5938,-22.2656L24.6094,-21.875L24.2188,-21.875Q21.875,-21.4844 18.3594,-21.4844L17.5781,-21.4844L16.0156,-21.875L16.0156,-21.4844L16.0156,-21.0938Q16.0156,-20.3125 16.0156,-19.9219L16.0156,-19.1406L16.0156,-18.75L16.0156,-17.9688L16.0156,-17.1875L16.0156,-16.4062L16.0156,-15.625Q16.0156,-14.0625 16.0156,-13.6719L16.7969,-8.20312Q17.5781,-7.03125 17.9688,-5.07812Q19.5312,-3.51562 20.7031,-3.51562Q21.4844,-2.73438 21.875,-2.73438Q22.6562,-3.125 23.0469,-3.125L25,-3.125Q28.125,-3.51562 29.2969,-4.29688Q34.7656,-7.03125 37.1094,-13.2812L38.6719,-17.1875L38.6719,-17.1875L39.0625,-17.1875Q38.6719,-14.4531 34.7656,-6.64062Q28.9062,-1.5625 24.6094,-0.78125Q24.6094,-0.390625 23.4375,-0.390625Q21.0938,-0.390625 18.75,-0Q13.2812,-0 8.20312,-7.03125Q3.125,-13.2812 3.125,-19.1406L2.73438,-21.4844L2.73438,-21.875Q3.90625,-31.25 4.6875,-31.25Q7.03125,-37.8906 13.6719,-41.4062Q15.625,-41.7969 15.625,-42.9688L16.0156,-42.9688L16.4062,-42.5781L17.9688,-42.5781Q18.3594,-42.9688 19.9219,-43.3594L20.3125,-43.75L20.7031,-43.3594L22.6562,-43.75ZM22.2656,-41.7969L21.0938,-41.7969Q20.7031,-41.7969 18.75,-40.625Q17.5781,-39.8438 16.4062,-35.1562Q16.0156,-29.6875 16.0156,-28.5156L16.0156,-28.125L15.625,-26.1719Q16.0156,-24.6094 16.0156,-23.4375L16.0156,-23.0469L16.0156,-22.6562Q16.4062,-22.6562 18.3594,-22.6562L19.1406,-22.6562Q22.2656,-23.0469 28.125,-23.0469L28.5156,-23.4375L28.5156,-25Q28.5156,-25.3906 28.125,-26.1719L28.125,-27.7344Q28.125,-28.125 27.7344,-28.9062Q28.125,-28.9062 28.125,-29.2969Q27.7344,-31.25 27.3438,-36.3281Q26.9531,-36.3281 26.5625,-37.8906L25.3906,-40.2344L23.4375,-42.1875L22.2656,-41.7969Z"></path><path transform="translate(380 200)" d="M23.4375,-42.5781Q27.7344,-41.7969 31.6406,-39.4531Q36.3281,-35.9375 37.1094,-32.4219L37.1094,-31.6406L37.1094,-30.8594L37.5,-30.0781Q35.5469,-23.8281 33.9844,-23.8281Q32.4219,-22.6562 30.0781,-22.6562Q25.7812,-24.2188 25.7812,-25.3906Q24.2188,-26.9531 24.2188,-30.0781L24.2188,-30.4688Q25,-33.5938 26.5625,-35.1562Q28.125,-37.1094 28.125,-37.8906L28.125,-38.2812Q28.125,-39.0625 24.6094,-40.625Q23.0469,-41.0156 21.875,-41.0156Q18.75,-41.0156 16.0156,-37.1094Q14.4531,-28.125 14.4531,-22.2656L14.8438,-21.4844Q14.4531,-21.0938 14.4531,-20.7031L14.4531,-20.3125L14.8438,-20.3125L14.4531,-19.9219L14.4531,-17.9688Q14.4531,-17.5781 14.8438,-16.0156Q14.8438,-15.625 14.8438,-14.4531Q15.625,-10.5469 16.0156,-10.1562L15.625,-8.98438Q15.625,-7.8125 17.5781,-3.90625Q19.1406,-2.34375 21.4844,-1.5625L23.0469,-1.5625Q25.3906,-1.5625 29.6875,-5.07812Q32.4219,-6.25 34.7656,-11.3281Q37.1094,-18.75 37.1094,-19.1406L37.5,-19.1406L37.8906,-18.3594L37.5,-17.9688L37.5,-16.4062Q36.7188,-14.8438 35.9375,-12.1094Q33.9844,-7.42188 31.6406,-5.07812Q29.6875,-2.73438 26.5625,-0.78125Q24.2188,-0.390625 21.0938,-0L19.1406,-0Q15.625,-0.390625 12.1094,-1.95312Q7.42188,-5.07812 5.46875,-9.375Q3.90625,-12.1094 2.73438,-19.5312L3.125,-19.9219Q3.125,-26.9531 5.07812,-30.8594Q6.25,-33.9844 8.59375,-36.7188Q8.98438,-36.7188 11.3281,-38.6719Q14.0625,-40.625 19.9219,-42.1875L23.4375,-42.5781Z"></path><path transform="translate(420 200)" d="M12.8906,-56.6406L13.2812,-56.6406Q14.0625,-55.8594 16.7969,-55.4688Q17.1875,-53.9062 17.1875,-51.1719L17.1875,-48.0469L17.1875,-48.0469L17.1875,-47.6562L17.1875,-41.7969L17.1875,-41.4062L17.9688,-41.4062L19.5312,-41.4062Q19.9219,-41.4062 20.7031,-41.4062L20.7031,-41.0156Q20.7031,-40.625 17.1875,-40.2344Q16.7969,-39.0625 16.7969,-38.6719L16.7969,-36.3281Q16.7969,-35.5469 16.4062,-34.7656Q16.4062,-34.375 16.7969,-33.9844Q16.4062,-28.5156 16.4062,-25.7812L16.4062,-25.3906L16.4062,-25L16.4062,-24.6094L16.4062,-24.6094L16.4062,-24.2188L16.7969,-18.75Q16.4062,-17.1875 16.4062,-14.8438L16.4062,-13.6719Q16.4062,-13.2812 16.7969,-12.8906Q16.4062,-12.8906 16.4062,-12.5L16.7969,-12.1094L16.4062,-10.9375Q16.4062,-10.5469 16.7969,-10.5469Q16.4062,-9.375 16.4062,-8.59375Q16.4062,-7.42188 16.7969,-4.6875L17.1875,-4.29688L17.5781,-4.29688Q19.9219,-6.64062 19.9219,-9.76562L21.0938,-16.0156L21.4844,-16.0156Q21.875,-16.0156 21.875,-15.625L21.875,-14.0625L21.875,-13.2812Q21.4844,-12.1094 21.0938,-8.20312Q19.9219,-3.125 17.9688,-1.95312Q16.0156,-0 11.7188,-0Q10.1562,-0 7.8125,-1.5625Q5.85938,-2.73438 5.07812,-6.64062Q4.29688,-7.8125 4.29688,-14.8438L4.29688,-16.4062L3.90625,-16.4062L4.29688,-16.7969L4.29688,-17.5781Q4.29688,-17.9688 3.90625,-17.9688Q4.29688,-17.9688 4.29688,-18.3594Q4.29688,-19.1406 3.90625,-19.1406Q4.29688,-20.7031 4.29688,-21.4844L4.29688,-27.7344Q4.29688,-28.9062 4.29688,-31.25L4.29688,-31.25L4.29688,-32.0312L4.29688,-32.4219L4.29688,-32.4219L4.29688,-32.8125L4.29688,-35.1562L4.29688,-35.5469L4.29688,-35.9375L4.29688,-39.4531Q4.29688,-39.8438 0,-40.2344L0,-40.625L0,-40.625Q0,-41.0156 0.78125,-41.0156L1.17188,-41.0156Q1.95312,-41.0156 3.125,-41.0156L4.29688,-41.0156L4.29688,-41.7969Q4.29688,-42.9688 4.29688,-47.2656Q4.29688,-49.2188 6.25,-50Q6.64062,-50 8.59375,-51.1719Q12.1094,-54.2969 12.8906,-56.25L12.8906,-56.6406Z"></path><path transform="translate(442 200)" d=""></path><path transform="translate(492 200)" d="M1.5625,-58.5938Q7.8125,-58.2031 13.6719,-57.8125Q14.8438,-57.8125 14.8438,-58.2031Q15.625,-57.8125 19.1406,-57.8125L19.1406,-57.8125L19.1406,-57.8125L23.8281,-57.8125Q25,-57.8125 26.1719,-57.4219Q26.5625,-57.8125 28.125,-57.8125L28.5156,-57.8125Q29.2969,-57.8125 30.0781,-57.4219L30.8594,-57.8125Q34.7656,-57.4219 36.7188,-57.4219L40.2344,-57.4219Q41.0156,-57.4219 41.4062,-57.0312Q41.0156,-55.8594 41.0156,-55.4688Q41.0156,-55.0781 41.4062,-55.0781Q41.0156,-51.9531 41.0156,-49.2188L41.0156,-47.6562Q40.625,-44.9219 40.625,-35.9375L40.625,-35.5469Q40.625,-34.375 40.625,-33.5938L40.625,-30.0781Q40.625,-28.9062 40.2344,-28.9062L39.8438,-28.9062Q39.0625,-35.9375 37.1094,-45.3125Q35.5469,-50.7812 32.4219,-53.5156Q29.6875,-56.6406 22.6562,-56.6406Q22.6562,-57.0312 21.0938,-57.0312L20.7031,-57.0312Q19.9219,-57.0312 19.9219,-54.2969L19.9219,-54.2969Q19.9219,-53.9062 20.3125,-53.5156Q19.9219,-53.5156 19.9219,-53.125L19.9219,-53.125Q19.9219,-52.3438 20.3125,-52.3438L19.9219,-51.5625L19.9219,-51.1719L20.3125,-51.1719Q20.3125,-50.7812 19.9219,-50.7812Q19.9219,-48.4375 19.9219,-46.875L19.9219,-45.7031Q19.5312,-43.75 19.5312,-43.3594L19.5312,-43.3594Q19.5312,-42.9688 19.9219,-42.9688Q19.5312,-42.5781 19.5312,-41.4062L19.5312,-39.4531Q19.5312,-38.6719 19.5312,-37.5L19.5312,-37.1094L19.1406,-36.3281Q19.5312,-34.7656 19.5312,-33.5938L19.5312,-32.4219Q19.5312,-32.0312 19.9219,-32.0312L20.7031,-32.0312Q24.6094,-32.0312 27.3438,-33.5938Q28.9062,-36.3281 30.0781,-44.9219Q30.4688,-46.4844 30.8594,-50L31.25,-50Q31.6406,-49.6094 31.6406,-49.2188Q31.6406,-47.6562 31.25,-41.4062L31.25,-41.0156L31.25,-40.2344Q31.25,-38.6719 31.25,-37.5Q31.25,-36.3281 31.25,-35.5469L31.25,-34.375Q31.25,-26.9531 30.8594,-25.3906Q31.25,-25 31.25,-24.6094L30.8594,-23.4375L30.8594,-22.2656L30.8594,-21.4844Q30.8594,-20.7031 30.8594,-20.3125L30.8594,-18.75L30.8594,-18.3594L30.8594,-16.0156L30.8594,-15.2344L30.8594,-14.8438L30.8594,-14.0625L30.8594,-14.0625L30.8594,-12.5L30.8594,-12.1094L30.8594,-10.5469L30.8594,-8.98438Q30.8594,-7.8125 30.4688,-7.8125L30.4688,-7.8125Q28.5156,-23.0469 26.9531,-25.7812Q24.6094,-30.8594 21.4844,-30.8594L19.5312,-30.8594Q19.1406,-30.8594 19.1406,-30.4688L19.1406,-29.6875L19.1406,-28.125Q19.5312,-27.3438 19.5312,-26.9531Q19.1406,-25 19.1406,-24.6094Q19.1406,-23.4375 19.1406,-22.6562L19.1406,-19.9219L19.5312,-19.9219Q19.5312,-19.5312 19.1406,-19.5312Q19.5312,-18.3594 19.5312,-17.5781L19.5312,-7.42188Q19.5312,-6.25 19.1406,-3.90625Q19.5312,-3.51562 19.5312,-1.5625L19.5312,-1.17188Q21.0938,-1.5625 21.4844,-1.5625L23.0469,-1.5625Q24.6094,-1.5625 24.6094,-1.17188L24.6094,-0.78125Q24.6094,-0.390625 23.8281,-0.390625Q22.6562,-0.390625 21.875,-0.390625L21.4844,-0.390625L20.7031,-0.390625L19.9219,-0.390625Q19.5312,-0.390625 17.5781,-0.390625Q16.0156,-0.390625 15.2344,-0.390625L14.8438,-0.390625L14.4531,-0.390625L13.6719,-0.390625Q10.9375,-0.390625 9.375,-0.390625L6.64062,-0.390625Q1.17188,-0.390625 0,-0.78125L0,-1.17188Q1.95312,-1.5625 2.34375,-1.95312Q5.07812,-1.5625 5.46875,-1.5625Q6.25,-2.34375 6.25,-3.125Q6.25,-3.51562 5.85938,-4.29688Q6.25,-5.46875 6.25,-6.64062L5.85938,-6.64062Q6.25,-8.20312 6.64062,-10.1562L6.25,-10.9375Q6.64062,-12.8906 6.64062,-13.2812L6.64062,-14.0625Q6.64062,-16.4062 6.64062,-17.5781L6.64062,-30.8594L6.64062,-32.4219L6.64062,-32.8125Q6.64062,-34.375 6.64062,-35.1562L6.64062,-37.8906Q6.64062,-38.2812 6.64062,-39.0625L6.64062,-39.8438L6.64062,-41.4062L6.64062,-42.1875L6.64062,-42.9688L6.64062,-57.0312L3.90625,-57.0312Q1.17188,-57.0312 1.17188,-57.8125L1.17188,-58.2031L1.5625,-58.5938Z"></path><path transform="translate(536 200)" d="M19.5312,-42.1875L22.6562,-42.1875Q28.9062,-41.4062 30.0781,-40.2344Q32.8125,-39.0625 34.375,-37.5Q36.3281,-35.1562 37.1094,-33.9844Q37.5,-33.9844 37.8906,-30.8594Q38.2812,-30.8594 38.6719,-27.7344Q39.0625,-27.7344 39.0625,-25.3906L39.4531,-25.3906Q39.0625,-24.6094 39.0625,-24.2188L39.0625,-23.0469L39.0625,-22.6562L39.0625,-22.6562Q39.0625,-21.875 39.0625,-20.7031L39.0625,-20.3125L39.0625,-19.5312Q38.2812,-12.5 36.3281,-8.98438Q33.5938,-5.07812 31.25,-3.125Q25.7812,-0 21.0938,-0L20.3125,-0.390625L19.9219,-0.390625Q18.75,-0.390625 17.1875,-0Q9.76562,-2.34375 7.42188,-6.64062Q4.6875,-9.76562 2.73438,-16.7969L1.95312,-19.5312L1.95312,-23.4375Q1.95312,-26.9531 5.85938,-33.9844Q8.20312,-36.7188 12.1094,-39.4531Q14.8438,-41.7969 18.75,-41.7969Q18.75,-42.1875 19.5312,-42.1875ZM13.6719,-25.7812L14.0625,-25.7812Q13.6719,-25 13.6719,-22.6562Q14.0625,-21.875 14.0625,-21.4844Q14.0625,-20.7031 13.6719,-20.3125Q14.0625,-11.3281 15.2344,-8.98438L14.8438,-8.59375L14.8438,-8.59375Q16.0156,-1.5625 21.0938,-1.5625Q25.3906,-1.5625 25.3906,-3.125Q26.5625,-5.85938 27.3438,-9.375L27.3438,-11.7188Q27.7344,-17.9688 27.7344,-19.1406L27.7344,-20.7031L27.7344,-22.2656L27.7344,-23.0469Q27.7344,-23.8281 27.7344,-24.2188L27.7344,-25.3906L27.7344,-25.7812L27.7344,-26.1719L27.7344,-26.9531L27.7344,-27.7344Q27.7344,-28.5156 27.3438,-30.0781L27.3438,-31.6406Q25.3906,-40.2344 22.2656,-40.2344L21.4844,-40.2344Q17.9688,-39.8438 17.1875,-38.6719Q14.8438,-35.1562 14.8438,-31.6406Q13.6719,-28.5156 13.6719,-25.7812Z"></path><path transform="translate(577 200)" d="M3.90625,-40.625L5.46875,-40.625L5.46875,-40.625L5.85938,-40.625L13.2812,-40.625Q16.0156,-40.625 16.0156,-39.8438L16.0156,-39.4531Q16.0156,-37.8906 16.0156,-37.1094Q16.0156,-36.7188 16.0156,-34.7656L16.4062,-34.7656Q17.1875,-37.1094 20.7031,-39.0625Q24.2188,-40.625 25.3906,-40.625L28.125,-40.625Q33.2031,-39.0625 33.2031,-37.8906Q33.9844,-36.7188 34.7656,-33.9844Q34.375,-32.0312 34.375,-31.6406L34.7656,-30.8594Q33.2031,-26.5625 30.8594,-25.7812L28.5156,-25Q25.3906,-25.3906 23.4375,-27.7344Q21.4844,-30.0781 21.4844,-31.6406Q21.4844,-34.375 25.3906,-37.5L25.3906,-38.2812Q25,-38.6719 24.2188,-38.6719L23.8281,-38.6719L23.0469,-38.6719L22.6562,-38.6719Q17.9688,-37.1094 17.9688,-35.9375Q17.5781,-35.9375 16.7969,-34.7656L16.7969,-34.7656L16.7969,-34.375Q16.7969,-33.9844 15.625,-33.5938L16.0156,-27.7344Q15.625,-23.0469 15.625,-3.51562Q15.2344,-2.34375 15.2344,-1.95312Q15.625,-1.17188 16.0156,-1.17188L17.1875,-1.17188Q20.7031,-1.17188 20.7031,-0.78125Q20.7031,-0.390625 18.75,-0Q17.9688,-0 17.5781,-0L17.1875,-0L16.4062,-0L15.625,-0L14.4531,-0Q13.6719,-0 13.2812,-0L11.7188,-0L10.9375,-0L10.5469,-0L9.76562,-0Q7.8125,-0 -1.17188,-0.390625Q-1.5625,-0.390625 -1.5625,-0.78125L-1.5625,-1.17188L-1.17188,-1.5625L-0.390625,-1.5625L3.90625,-1.5625L3.90625,-1.5625L3.90625,-1.95312L3.90625,-2.34375L3.90625,-2.34375Q4.29688,-5.46875 4.29688,-5.85938L3.90625,-7.03125Q4.29688,-9.375 4.29688,-12.1094L4.29688,-12.5Q4.29688,-13.2812 4.6875,-13.6719Q4.6875,-15.2344 4.29688,-15.2344L4.29688,-15.2344L4.29688,-16.4062Q4.29688,-16.7969 4.29688,-17.5781L4.29688,-18.3594L4.29688,-18.75Q4.29688,-19.1406 4.29688,-19.9219L4.29688,-20.3125Q4.29688,-22.6562 4.29688,-23.0469L4.29688,-23.4375Q4.29688,-28.125 3.90625,-30.0781Q4.29688,-31.25 4.29688,-35.5469L4.29688,-36.3281L4.29688,-37.8906L4.29688,-39.0625L3.90625,-39.4531L3.51562,-39.4531Q0.390625,-39.4531 0.390625,-40.2344L0.390625,-40.2344L0.78125,-40.625L1.17188,-40.625Q2.73438,-40.625 3.90625,-40.625Z"></path><path transform="translate(613 200)" d=""></path><path transform="translate(663 200)" d="M-2.73438,-59.7656Q-2.34375,-59.7656 2.34375,-59.375L3.90625,-59.375L4.6875,-59.375Q6.25,-59.375 10.5469,-59.7656L11.3281,-59.375Q14.8438,-59.7656 15.2344,-59.7656Q15.625,-59.375 16.0156,-59.375L16.0156,-58.9844Q15.2344,-58.9844 14.8438,-58.9844L13.6719,-58.9844Q12.8906,-58.9844 12.8906,-58.5938Q14.8438,-48.4375 14.8438,-46.0938Q15.2344,-44.5312 16.0156,-41.7969L16.0156,-41.4062L16.0156,-41.0156Q16.4062,-39.4531 16.4062,-37.5L16.4062,-36.7188Q16.7969,-36.7188 17.1875,-33.9844Q16.7969,-33.5938 16.7969,-33.2031Q18.3594,-28.9062 18.3594,-26.9531Q19.5312,-25.3906 19.5312,-22.6562L20.7031,-16.7969L21.0938,-16.7969L21.0938,-17.9688Q21.0938,-18.3594 21.4844,-18.75L21.4844,-19.1406Q21.4844,-20.3125 21.875,-20.3125L21.875,-20.3125L21.875,-19.9219L22.2656,-19.1406L21.4844,-18.3594L21.875,-17.9688L21.875,-17.5781L21.0938,-16.7969L21.0938,-16.4062Q21.0938,-16.0156 21.4844,-16.0156L19.9219,-10.1562L17.9688,-1.5625Q17.9688,-0 17.5781,-0Q14.4531,-0 13.2812,-0Q12.5,-0 12.1094,-2.34375Q11.7188,-3.51562 10.9375,-8.98438Q10.5469,-8.98438 10.5469,-9.76562L10.5469,-11.3281Q10.1562,-12.1094 9.76562,-12.5L9.76562,-12.8906L9.76562,-13.2812L9.375,-13.6719L9.76562,-13.6719L9.76562,-14.0625L8.20312,-21.4844L8.20312,-22.2656Q7.42188,-23.4375 5.85938,-33.9844L4.6875,-39.0625L3.90625,-42.9688Q3.125,-46.0938 2.73438,-50.3906Q2.34375,-51.1719 1.5625,-55.4688Q0.78125,-58.5938 0.390625,-58.9844Q-0.390625,-58.5938 -1.17188,-58.5938L-1.95312,-58.5938L-2.34375,-58.5938L-2.73438,-58.9844L-2.73438,-59.7656L-2.73438,-59.7656ZM50.3906,-59.7656Q50.7812,-59.7656 51.9531,-59.375Q52.7344,-59.7656 53.125,-59.7656L53.9062,-59.7656L53.9062,-59.375Q53.9062,-58.9844 52.7344,-58.9844Q51.9531,-58.9844 51.5625,-58.9844Q50.7812,-58.9844 50.3906,-58.9844L50,-58.9844Q50,-55.8594 45.7031,-29.2969Q45.7031,-28.5156 42.9688,-11.3281L41.7969,-5.07812L42.1875,-5.07812Q41.7969,-3.51562 41.0156,-0.390625Q40.2344,0.390625 37.5,0.390625L37.1094,0.390625Q33.9844,0.390625 33.9844,-1.5625Q32.0312,-9.375 32.0312,-10.5469Q31.25,-14.8438 30.4688,-15.625L30.4688,-16.4062Q30.4688,-17.1875 28.9062,-23.8281Q28.9062,-25.7812 27.3438,-28.9062L27.3438,-29.6875Q26.9531,-29.6875 26.5625,-32.0312L26.9531,-32.8125Q26.5625,-32.8125 25.7812,-36.7188L25.3906,-36.7188L25.3906,-36.3281L25.3906,-35.9375L25.3906,-35.9375L25.3906,-35.5469L25.3906,-35.5469Q25.3906,-33.9844 25.7812,-33.9844Q25,-33.5938 24.6094,-30.8594Q24.2188,-29.2969 23.8281,-29.2969L23.8281,-29.2969L23.4375,-29.6875L24.2188,-32.4219L24.2188,-32.4219Q25,-37.1094 25.3906,-37.1094L25.3906,-37.5L25.3906,-37.8906L25.3906,-38.6719Q24.6094,-42.5781 24.2188,-42.9688L23.8281,-43.75L24.2188,-44.1406L23.0469,-49.2188L23.0469,-50.3906L22.2656,-51.9531Q22.6562,-52.7344 22.6562,-53.125L22.2656,-53.5156L22.2656,-54.2969Q21.875,-55.4688 21.4844,-57.8125Q21.0938,-58.2031 21.0938,-58.9844L20.3125,-58.9844L19.9219,-58.9844L19.9219,-58.9844L17.9688,-58.9844L17.9688,-59.375L20.3125,-59.7656L20.7031,-59.375L22.6562,-59.375Q23.4375,-59.375 23.8281,-59.375L24.6094,-59.7656Q26.9531,-59.375 28.5156,-59.375L29.6875,-59.375L30.8594,-59.375Q32.4219,-59.375 32.8125,-59.375L33.5938,-59.375Q33.9844,-59.375 36.3281,-59.7656Q37.1094,-59.375 37.5,-59.375L37.5,-59.375Q37.5,-58.9844 36.3281,-58.9844Q35.9375,-58.9844 35.1562,-58.9844Q33.2031,-58.9844 33.2031,-58.5938L33.2031,-58.2031L37.5,-35.9375L37.5,-35.9375Q37.5,-35.1562 37.5,-34.7656Q37.8906,-34.7656 39.0625,-27.3438L39.0625,-26.5625Q39.4531,-26.1719 39.8438,-23.4375Q40.2344,-22.2656 41.0156,-17.9688Q41.0156,-17.1875 41.7969,-12.5L42.1875,-12.5Q42.5781,-12.5 42.5781,-12.8906L42.5781,-13.2812Q44.1406,-24.6094 44.5312,-25L44.5312,-26.5625Q45.3125,-32.0312 45.3125,-32.4219L45.3125,-32.4219Q46.875,-41.7969 48.4375,-57.0312Q48.4375,-57.4219 48.8281,-58.5938L48.4375,-58.9844L48.0469,-58.9844Q46.875,-58.9844 44.9219,-58.9844Q43.75,-58.9844 43.75,-58.5938L42.9688,-58.9844L42.9688,-59.375L44.1406,-59.7656L45.3125,-59.7656Q47.6562,-59.7656 50.3906,-59.7656ZM25.3906,-55.0781L25.3906,-54.6875L25.7812,-54.6875L25.7812,-55.0781L25.7812,-55.0781L25.3906,-55.0781ZM27.7344,-38.6719L27.7344,-38.6719Q27.7344,-38.2812 28.125,-38.2812L28.5156,-38.2812L28.5156,-38.6719L27.7344,-38.6719ZM23.8281,-28.9062Q23.8281,-28.125 24.2188,-28.125Q23.4375,-26.9531 23.0469,-23.0469Q22.2656,-22.6562 22.2656,-22.2656L21.875,-22.2656L21.875,-22.6562Q21.875,-23.0469 22.2656,-23.0469L22.2656,-23.4375Q23.0469,-28.9062 23.8281,-28.9062L23.8281,-28.9062ZM14.4531,-23.4375L14.4531,-22.2656L14.8438,-22.2656L14.8438,-23.4375L14.8438,-23.8281L14.4531,-23.4375Z"></path><path transform="translate(713 200)" d="M22.6562,-43.75Q23.0469,-43.75 23.8281,-43.75L23.8281,-43.75L24.2188,-43.75L25.7812,-43.75L26.5625,-43.75L26.9531,-43.75Q30.0781,-42.9688 31.25,-41.7969Q32.0312,-41.7969 35.1562,-39.4531Q36.3281,-38.6719 38.2812,-34.375Q40.2344,-27.7344 40.2344,-24.6094L40.2344,-23.4375Q40.2344,-22.2656 39.0625,-22.2656L37.5,-22.2656Q35.9375,-22.2656 33.9844,-22.2656L33.5938,-22.2656L24.6094,-21.875L24.2188,-21.875Q21.875,-21.4844 18.3594,-21.4844L17.5781,-21.4844L16.0156,-21.875L16.0156,-21.4844L16.0156,-21.0938Q16.0156,-20.3125 16.0156,-19.9219L16.0156,-19.1406L16.0156,-18.75L16.0156,-17.9688L16.0156,-17.1875L16.0156,-16.4062L16.0156,-15.625Q16.0156,-14.0625 16.0156,-13.6719L16.7969,-8.20312Q17.5781,-7.03125 17.9688,-5.07812Q19.5312,-3.51562 20.7031,-3.51562Q21.4844,-2.73438 21.875,-2.73438Q22.6562,-3.125 23.0469,-3.125L25,-3.125Q28.125,-3.51562 29.2969,-4.29688Q34.7656,-7.03125 37.1094,-13.2812L38.6719,-17.1875L38.6719,-17.1875L39.0625,-17.1875Q38.6719,-14.4531 34.7656,-6.64062Q28.9062,-1.5625 24.6094,-0.78125Q24.6094,-0.390625 23.4375,-0.390625Q21.0938,-0.390625 18.75,-0Q13.2812,-0 8.20312,-7.03125Q3.125,-13.2812 3.125,-19.1406L2.73438,-21.4844L2.73438,-21.875Q3.90625,-31.25 4.6875,-31.25Q7.03125,-37.8906 13.6719,-41.4062Q15.625,-41.7969 15.625,-42.9688L16.0156,-42.9688L16.4062,-42.5781L17.9688,-42.5781Q18.3594,-42.9688 19.9219,-43.3594L20.3125,-43.75L20.7031,-43.3594L22.6562,-43.75ZM22.2656,-41.7969L21.0938,-41.7969Q20.7031,-41.7969 18.75,-40.625Q17.5781,-39.8438 16.4062,-35.1562Q16.0156,-29.6875 16.0156,-28.5156L16.0156,-28.125L15.625,-26.1719Q16.0156,-24.6094 16.0156,-23.4375L16.0156,-23.0469L16.0156,-22.6562Q16.4062,-22.6562 18.3594,-22.6562L19.1406,-22.6562Q22.2656,-23.0469 28.125,-23.0469L28.5156,-23.4375L28.5156,-25Q28.5156,-25.3906 28.125,-26.1719L28.125,-27.7344Q28.125,-28.125 27.7344,-28.9062Q28.125,-28.9062 28.125,-29.2969Q27.7344,-31.25 27.3438,-36.3281Q26.9531,-36.3281 26.5625,-37.8906L25.3906,-40.2344L23.4375,-42.1875L22.2656,-41.7969Z"></path><path transform="translate(756 200)" d="M16.4062,-58.2031Q17.5781,-58.2031 17.9688,-53.125L17.9688,-52.3438L17.9688,-50.7812L17.9688,-50.7812L17.9688,-50.7812Q17.9688,-48.4375 17.9688,-47.2656Q17.9688,-46.875 17.9688,-46.0938L17.9688,-45.3125Q17.5781,-44.5312 17.5781,-44.1406Q17.9688,-43.75 17.9688,-41.7969L17.9688,-41.0156Q17.9688,-37.1094 18.75,-37.1094L18.75,-36.7188Q17.9688,-36.7188 17.5781,-35.1562L17.9688,-34.375L17.9688,-33.5938L17.9688,-32.8125L17.9688,-30.0781L17.9688,-29.2969Q17.9688,-26.9531 17.9688,-25.7812L17.9688,-21.875L17.9688,-20.7031Q17.5781,-20.3125 17.5781,-19.1406L17.5781,-18.75Q17.5781,-17.9688 17.9688,-17.5781L17.5781,-13.2812L17.5781,-11.7188L17.5781,-10.5469L17.5781,-9.76562L17.9688,-8.98438Q17.5781,-8.20312 17.5781,-7.8125Q17.9688,-7.03125 17.9688,-6.64062Q17.5781,-6.25 17.5781,-5.85938Q21.0938,-2.34375 22.6562,-2.34375L24.2188,-2.34375Q28.5156,-3.90625 28.5156,-8.59375Q28.5156,-9.76562 29.2969,-15.2344Q29.2969,-17.1875 28.9062,-20.3125L28.9062,-21.0938Q28.9062,-22.6562 28.5156,-25.3906L28.9062,-25.7812L27.7344,-33.5938L27.7344,-34.375Q26.9531,-39.4531 24.2188,-39.4531L23.8281,-39.4531Q22.6562,-39.4531 19.5312,-37.5Q19.5312,-37.8906 19.1406,-37.8906L21.0938,-39.0625Q24.6094,-41.0156 28.125,-41.0156Q31.6406,-41.0156 33.9844,-39.4531Q35.1562,-39.0625 36.3281,-37.5Q39.4531,-33.5938 40.625,-26.9531Q41.0156,-23.8281 41.0156,-19.1406L41.4062,-19.1406Q41.0156,-18.3594 41.0156,-17.9688L41.0156,-17.9688Q41.0156,-17.5781 41.4062,-17.5781Q41.0156,-16.7969 41.0156,-16.4062Q41.0156,-15.625 41.0156,-15.2344Q39.8438,-10.1562 39.0625,-8.20312Q38.6719,-6.25 34.7656,-2.34375Q33.2031,-1.17188 29.6875,-0.390625Q28.9062,-0 27.7344,-0L25.7812,-0L25,0.390625L21.0938,-1.17188Q19.9219,-1.17188 19.5312,-1.17188L19.1406,-1.17188Q14.8438,-1.17188 13.2812,-1.17188Q12.1094,-1.17188 10.5469,-1.17188Q9.76562,-1.17188 8.59375,-1.17188Q7.8125,-1.17188 5.85938,-1.17188Q4.29688,-1.17188 3.125,-1.17188L1.17188,-1.17188Q0.390625,-1.17188 0,-1.5625L0,-1.95312Q0.390625,-2.34375 1.17188,-2.34375L3.51562,-2.34375Q3.90625,-2.34375 5.07812,-1.95312L5.07812,-2.34375L5.07812,-3.90625Q5.07812,-4.6875 5.46875,-4.6875Q5.07812,-5.85938 5.07812,-6.25L5.07812,-8.59375Q5.07812,-9.76562 5.46875,-11.3281L5.07812,-11.7188Q5.46875,-12.5 5.46875,-12.8906Q5.07812,-13.6719 5.07812,-14.0625L5.07812,-19.9219Q5.46875,-21.875 5.46875,-25L5.46875,-25.3906L5.46875,-25.7812Q5.46875,-26.1719 5.46875,-26.9531L5.46875,-27.7344L5.46875,-28.9062L5.46875,-30.4688L5.46875,-31.6406L5.85938,-35.5469L5.46875,-35.9375Q5.85938,-37.1094 5.85938,-37.8906Q5.85938,-39.4531 5.46875,-42.9688L5.85938,-43.3594L5.46875,-44.1406Q5.46875,-44.5312 5.85938,-44.9219Q5.46875,-46.0938 5.46875,-46.875L5.46875,-48.4375L5.46875,-49.2188L5.46875,-50L5.46875,-52.7344L5.46875,-53.125L5.46875,-54.2969Q5.07812,-54.6875 5.07812,-56.6406Q0.78125,-56.6406 0.78125,-57.0312L0.78125,-57.4219L1.17188,-57.4219L1.5625,-57.4219Q3.125,-57.4219 3.90625,-57.4219L4.29688,-57.4219Q5.46875,-57.4219 7.03125,-57.4219Q7.42188,-57.8125 16.4062,-58.2031ZM17.5781,-4.29688L17.5781,-4.29688L17.9688,-3.51562Q17.5781,-3.125 17.5781,-2.73438Q17.5781,-2.34375 17.9688,-2.34375Q19.1406,-2.34375 19.5312,-2.34375Q18.3594,-3.90625 18.3594,-4.29688L17.5781,-4.29688Z"></path></svg>