<svg  xmlns="http://www.w3.org/2000/svg" xmlns:xlink="http://www.w3.org/1999/xlink" width="978" height="200" viewBox="0 0 1002 224"><path transform="translate(0 100)" d="M19.873,-58.5938L45.8984,-58.5938L45.8984,-81.2012Q56.4941,-80.7617 56.4941,-78.6133Q56.4941,-77.2461 52.002,-75.5859L52.002,-58.5938L79.1016,-58.5938L83.2031,-63.6719Q89.6973,-58.3984 89.6973,-56.9824Q89.6973,-56.25 88.7695,-55.8105L85.9863,-54.1016L85.9863,-19.2871L79.9805,-19.2871L79.9805,-26.123L52.002,-26.123L52.002,7.17773L45.8984,7.17773L45.8984,-26.123L18.9941,-26.123L18.9941,-17.9199L12.9883,-17.9199L12.9883,-62.0117Q15.918,-60.791 19.873,-58.5938ZM18.9941,-56.1035L18.9941,-28.6133L45.8984,-28.6133L45.8984,-56.1035L18.9941,-56.1035ZM79.9805,-28.6133L79.9805,-56.1035L52.002,-56.1035L52.002,-28.6133L79.9805,-28.6133Z"></path><path transform="translate(100 100)" d="M26.9531,-59.2285L9.17969,-59.2285L8.05664,-61.7188L46.6797,-61.7188L46.6797,-81.3965Q56.9824,-80.957 56.9824,-78.8086Q56.9824,-77.5879 52.5879,-75.9277L52.5879,-61.7188L79.8828,-61.7188L85.5957,-69.1406Q89.8438,-65.332 93.3105,-61.1328L92.0898,-59.2285L73.584,-59.2285Q66.9922,-36.0352 55.2734,-21.8262Q70.1172,-8.34961 94.1895,-0.830078Q91.0645,2.00195 89.3066,5.27344Q65.6738,-4.05273 52.002,-17.627Q34.1309,0.244141 7.4707,6.98242L6.10352,4.6875Q30.0781,-3.02734 47.9004,-22.0215Q35.3516,-36.2305 26.9531,-59.2285ZM30.6641,-59.2285Q38.8672,-39.4531 51.2695,-25.8301Q61.8652,-39.9902 66.6992,-59.2285L30.6641,-59.2285Z"></path><path transform="translate(200 100)" d="M19.0918,-74.1211L80.0293,-74.1211L83.9355,-78.7109Q90.332,-74.1211 90.332,-72.3145Q90.332,-71.6309 89.4043,-71.0449L86.8164,-69.4336L86.8164,-2.29492Q86.8164,6.25 76.2207,6.10352Q76.2207,3.32031 74.0234,2.29492Q71.4355,1.17188 63.5254,-0L63.5254,-2.68555Q71.4844,-1.80664 77.4902,-1.80664Q80.9082,-1.80664 80.9082,-5.17578L80.9082,-71.6309L18.1152,-71.6309L18.1152,6.20117L12.207,6.20117L12.207,-77.5391L13.916,-76.709Q16.6016,-75.4883 19.0918,-74.1211ZM60.3027,-43.7012Q62.207,-54.1992 62.8906,-68.2129Q72.4121,-65.918 72.4121,-63.916Q72.4121,-62.6465 68.4082,-61.9141Q67.5293,-50.6348 65.0879,-39.6973Q75.1953,-30.3711 75.1953,-25.3906Q75.1953,-22.3145 72.3145,-22.3145Q70.6543,-22.3145 68.4082,-26.5137Q66.6016,-29.834 63.623,-33.6914Q58.3984,-15.918 48.4863,-3.80859L46.2891,-5.07812Q55.1758,-19.5312 59.2285,-38.8184Q53.2227,-44.9707 45.0195,-50.9766L46.2891,-52.8809Q54.6387,-48.1934 60.3027,-43.7012ZM35.0098,-43.5059Q36.5723,-51.0742 37.5977,-66.6016Q46.9238,-64.7949 46.9238,-62.5977Q46.9238,-61.2305 42.9199,-60.498Q41.8945,-49.4141 39.5996,-39.5996Q48.584,-31.6406 48.584,-26.6113Q48.584,-23.3887 45.8984,-23.3887Q44.2383,-23.3887 42.2852,-27.0996Q40.8203,-30.0781 38.1836,-33.4961Q33.4473,-16.2598 22.7051,-3.41797L20.7031,-4.78516Q29.541,-18.9941 33.8867,-38.4766Q28.7598,-43.7988 20.7031,-49.707L22.1191,-51.8066Q29.1504,-47.8027 35.0098,-43.5059Z"></path><path transform="translate(300 100)" d="M46.8262,-68.4082L46.8262,-82.3242Q56.7383,-82.3242 56.7383,-80.0293Q56.7383,-78.7598 52.5391,-77.0996L52.5391,-68.4082L83.7402,-68.4082L87.7441,-73.291Q94.8242,-66.2109 94.8242,-64.5996Q94.8242,-63.7207 93.3594,-63.4277L90.0391,-62.8418Q86.2305,-58.7402 79.6387,-54.0039L77.7344,-55.6152Q81.8359,-61.0352 84.0332,-65.918L17.4316,-65.918Q17.4316,-65.332 17.5293,-64.6973Q17.9688,-57.4219 14.4043,-51.709Q12.3535,-48.3398 9.81445,-48.3398Q6.10352,-48.3398 6.10352,-51.8555Q6.10352,-53.2715 8.20312,-55.5176Q13.4277,-61.0352 14.3066,-72.2168L16.8457,-72.0215Q17.041,-70.8984 17.334,-68.4082L46.8262,-68.4082ZM53.6133,-25L53.6133,-0.78125Q53.6133,6.20117 43.0176,6.20117Q42.8711,3.125 39.4043,1.9043Q35.9863,0.683594 27.7832,-0.292969L27.7832,-3.07617Q37.5,-2.09961 43.6035,-2.09961Q47.7051,-2.09961 47.7051,-5.41992L47.7051,-25L8.00781,-25L6.78711,-27.4902L47.4121,-27.4902L47.4121,-39.6973Q51.2207,-39.1113 52.9297,-38.6719Q59.7656,-43.7988 65.2344,-50.1953L23.4863,-50.1953L22.2656,-52.6855L65.625,-52.6855L69.5312,-57.2754Q76.6113,-51.123 76.6113,-49.707Q76.6113,-48.9258 75.0977,-48.4863L71.9238,-47.7051Q64.3066,-41.9922 56.2012,-37.5977Q57.4219,-36.8652 57.4219,-36.2793Q57.4219,-35.3516 53.3203,-34.2773L53.3203,-27.4902L81.2988,-27.4902L86.7188,-34.4727Q91.1621,-30.3223 93.7012,-27.002L92.5293,-25L53.6133,-25Z"></path><path transform="translate(400 100)" d="M65.2832,-46.6309L65.2832,7.17773L59.2773,7.17773L59.2773,-46.6309L35.1562,-46.6309L34.082,-49.1211L59.2773,-49.1211L59.2773,-79.9805Q70.3613,-79.6875 70.3613,-77.4902Q70.3613,-76.0742 65.2832,-74.4141L65.2832,-49.1211L82.5684,-49.1211L87.8906,-56.2988Q91.0645,-53.2715 94.6777,-48.6328L93.7012,-46.6309L65.2832,-46.6309ZM20.166,-8.83789L20.166,-46.6309L6.20117,-46.6309L5.32227,-49.1211L19.3848,-49.1211L22.9492,-53.9062Q29.3945,-48.7305 29.3945,-47.3145Q29.3945,-46.5332 28.4668,-45.9473L26.1719,-44.3359L26.1719,-11.5723L28.7598,-12.793Q36.2305,-16.4551 45.459,-21.7773L46.4355,-19.1895Q32.8125,-9.0332 21.1426,-1.26953Q20.3613,3.125 19.1406,3.125Q16.9434,3.125 14.5508,-6.68945Q17.1875,-7.56836 20.166,-8.83789ZM14.1602,-71.9727L13.2812,-74.4629L27.7344,-74.4629L32.2266,-80.0781Q35.0098,-77.6367 38.4277,-73.877L37.4512,-71.9727L14.1602,-71.9727Z"></path><path transform="translate(500 100)" d="M33.9844,-22.5098Q41.1621,-32.0801 46.875,-45.5078Q54.7852,-41.748 54.7852,-39.8926Q54.7852,-38.4766 50.293,-38.4766Q41.8457,-24.2676 36.1816,-17.6758Q39.9414,-10.6445 43.9941,-6.29883Q46.7773,-3.22266 47.9004,-3.22266Q50.0488,-3.22266 52.8809,-23.584L55.2734,-22.3145Q54.1992,-9.22852 54.1992,-6.10352Q54.1992,-0.0488281 57.1777,0.976562Q56.5918,5.17578 52.4902,5.17578Q48.9258,5.17578 44.0918,1.36719Q37.9395,-3.56445 32.7148,-13.2812Q22.0703,-2.05078 6.20117,5.81055L4.49219,3.90625Q20.459,-6.10352 30.0781,-18.3105Q24.3164,-32.2266 22.168,-50.0977L6.00586,-48.4863L4.78516,-50.9766L21.875,-52.5879Q20.7031,-63.2324 20.4102,-80.5176Q30.0781,-80.3711 30.0781,-78.2227Q30.0781,-77.1484 26.2695,-75.4883Q26.4648,-60.2539 27.0996,-54.0039Q27.1973,-53.7109 27.1973,-53.0762L45.5078,-54.7852L49.1699,-61.5234Q53.0273,-58.1543 55.8105,-55.3223L54.7852,-53.3203L27.3926,-50.5859Q29.6387,-33.1055 33.9844,-22.5098ZM33.8867,-76.6113Q47.6074,-71.7773 47.6074,-64.6973Q47.6074,-60.8887 43.9941,-60.8887Q41.9434,-60.8887 40.918,-64.3066Q39.1113,-70.7031 32.5684,-74.8047L33.8867,-76.6113ZM61.7676,-14.502L61.7676,-71.1914Q71.1914,-70.752 71.1914,-68.6035Q71.1914,-67.4316 67.2852,-66.0645L67.2852,-14.502L61.7676,-14.502ZM65.4785,-2.58789Q74.3164,-1.80664 79.1016,-1.80664Q82.2754,-1.80664 82.2754,-4.88281L82.2754,-81.2988Q91.8945,-80.8594 91.8945,-78.5156Q91.8945,-77.2949 87.9883,-76.123L87.9883,-2.49023Q87.9883,6.54297 77.9785,6.39648Q77.9785,3.36914 74.7559,2.00195Q72.5586,1.02539 65.4785,0.0976562L65.4785,-2.58789Z"></path><path transform="translate(0 200)" d="M61.8652,-52.9785L58.8379,-52.9785Q58.3984,-58.0566 56.4453,-62.0605Q53.6133,-68.1641 42.6758,-68.1641L34.4727,-68.1641L34.4727,-11.5723Q34.4727,-6.68945 37.1582,-5.17578Q39.209,-4.05273 45.0684,-3.75977L45.0684,-0.976562L16.9922,-0.976562L16.9922,-3.75977Q22.7051,-4.10156 24.8047,-4.98047Q27.5879,-6.15234 27.5879,-11.5723L27.5879,-68.1641L20.0684,-68.1641Q9.57031,-68.1641 6.39648,-62.5488Q4.24805,-59.0332 3.4668,-52.9785L0.683594,-52.9785L2.09961,-71.4844L60.8398,-71.4844L61.8652,-52.9785Z"></path><path transform="translate(62 200)" d="M59.8633,-0.976562L35.791,-0.976562L35.791,-3.75977Q38.9648,-3.75977 41.3086,-4.29688Q44.4824,-5.17578 44.4824,-10.1074L44.4824,-31.1035Q44.4824,-46.2402 33.3984,-46.2402Q22.5586,-46.2402 18.0664,-34.2285L18.0664,-10.1074Q18.0664,-5.61523 20.3613,-4.6875Q22.6562,-3.75977 26.8066,-3.75977L26.8066,-0.976562L2.68555,-0.976562L2.68555,-3.75977Q6.20117,-3.75977 8.30078,-4.39453Q11.4746,-5.27344 11.4746,-10.1074L11.4746,-62.3047Q11.4746,-66.8945 9.17969,-67.7734Q7.66602,-68.4082 2.7832,-68.4082L2.7832,-71.4844Q11.0352,-71.6309 18.0664,-72.998L18.0664,-40.8203Q24.5117,-50.5371 34.8145,-50.5371Q51.1719,-50.5371 51.1719,-32.5195L51.1719,-10.1074Q51.1719,-5.61523 53.4668,-4.6875Q55.7129,-3.75977 59.8633,-3.75977L59.8633,-0.976562Z"></path><path transform="translate(124 200)" d="M50.3906,-26.5137L12.6953,-26.5137L12.6953,-24.8047Q12.6953,-14.9902 18.7012,-8.78906Q23.7305,-3.80859 30.9082,-3.80859Q41.6504,-3.80859 47.5098,-14.209L50.1953,-12.1094Q43.7988,0.585938 29.7363,0.585938Q19.3359,0.585938 12.5,-6.20117Q5.71289,-13.1836 5.71289,-24.9023Q5.71289,-37.3047 12.8906,-44.5312Q19.1406,-50.9277 28.8086,-50.9277Q38.1836,-50.9277 43.9941,-44.9219Q50.3906,-38.5254 50.3906,-28.3203L50.3906,-26.5137ZM43.6035,-30.3223Q43.3105,-38.916 38.623,-43.6035Q34.5703,-47.5098 28.7109,-47.5098Q21.7285,-47.5098 17.0898,-41.4062Q13.7695,-37.0605 13.0371,-30.3223L43.6035,-30.3223Z"></path><path transform="translate(180 200)" d=""></path><path transform="translate(209 200)" d="M4.98047,-71.4844L36.2793,-71.4844Q51.8066,-71.4844 58.3496,-64.1602Q62.6465,-59.4238 62.6465,-52.5879Q62.6465,-32.1777 34.668,-32.1777L22.0703,-32.1777L22.0703,-11.5723Q22.0703,-6.64062 24.8535,-5.17578Q26.9043,-4.05273 32.7637,-3.75977L32.7637,-0.976562L4.98047,-0.976562L4.98047,-3.75977Q10.2051,-4.10156 12.207,-4.98047Q15.1855,-6.34766 15.1855,-11.5723L15.1855,-60.5469Q15.1855,-65.4297 13.2812,-66.748Q11.4258,-68.2129 4.98047,-68.6523L4.98047,-71.4844ZM22.0703,-35.9863L31.7871,-35.9863Q54.834,-35.9863 54.834,-51.9531Q54.834,-68.1641 34.082,-68.1641L30.957,-68.1641Q28.3203,-68.1641 26.1719,-67.6758Q22.0703,-66.6016 22.0703,-60.5469L22.0703,-35.9863Z"></path><path transform="translate(273 200)" d="M18.7988,-38.0859Q21.0449,-43.5059 25.8301,-47.5098Q30.0293,-50.8301 34.7168,-50.8301Q40.4297,-50.8301 40.4297,-45.7031Q40.4297,-41.1133 36.2305,-41.1133Q32.0312,-41.1133 32.0312,-45.2148Q32.0312,-45.5566 32.2266,-46.6309Q28.3203,-46.2891 24.2188,-41.6016Q20.9473,-37.793 19.2871,-32.3242L19.2871,-10.1074Q19.2871,-5.56641 21.4844,-4.6875Q23.7793,-3.75977 28.3203,-3.75977L28.3203,-0.976562L3.80859,-0.976562L3.80859,-3.75977Q7.37305,-3.75977 9.32617,-4.39453Q12.5977,-5.27344 12.5977,-10.1074L12.5977,-39.9902Q12.5977,-44.7266 10.2051,-45.6055Q8.54492,-46.1914 3.90625,-46.1914L3.90625,-49.2188Q12.4512,-49.3652 18.7988,-50.8301L18.7988,-38.0859Z"></path><path transform="translate(313 200)" d="M29.4434,-51.123Q39.3066,-51.123 45.9961,-44.4336Q53.2227,-37.207 53.2227,-25.5371Q53.2227,-13.2324 45.9961,-6.00586Q39.2578,0.585938 29.4434,0.585938Q19.5312,0.585938 12.8906,-6.00586Q5.71289,-13.2324 5.71289,-25.3418Q5.71289,-37.207 13.0371,-44.5312Q19.6289,-51.123 29.4434,-51.123ZM29.4434,-47.6074Q22.0215,-47.6074 17.5293,-41.3086Q13.1348,-35.2539 13.1348,-25.293Q13.1348,-14.8438 17.9199,-8.83789Q22.3145,-3.22266 29.4434,-3.22266Q38.3301,-3.22266 42.5293,-11.0352Q45.8008,-17.1875 45.8008,-25.1953Q45.8008,-35.7422 41.0156,-41.8945Q36.5234,-47.6074 29.4434,-47.6074Z"></path><path transform="translate(372 200)" d="M15.7715,-71.7773Q17.8711,-71.7773 19.3848,-70.2637Q20.8984,-68.75 20.8984,-66.6504Q20.8984,-61.6699 15.7715,-61.6699Q10.791,-61.6699 10.791,-66.6504Q10.791,-71.7773 15.7715,-71.7773ZM18.9941,-50.8301L18.9941,2.88086Q18.9941,19.873 4.98047,19.873Q0.390625,19.873 -2.73438,17.3828Q-5.41992,15.1367 -5.41992,12.4512Q-5.41992,7.66602 -0.732422,7.66602Q3.56445,7.66602 3.56445,11.7676Q3.56445,14.5996 0.878906,15.4785Q2.24609,17.1875 4.98047,17.1875Q12.5,17.1875 12.5,3.75977L12.5,-40.0391Q12.5,-44.7266 10.1074,-45.6055Q8.44727,-46.2402 3.75977,-46.2402L3.75977,-49.2188Q11.9141,-49.3652 18.9941,-50.8301Z"></path><path transform="translate(402 200)" d="M50.3906,-26.5137L12.6953,-26.5137L12.6953,-24.8047Q12.6953,-14.9902 18.7012,-8.78906Q23.7305,-3.80859 30.9082,-3.80859Q41.6504,-3.80859 47.5098,-14.209L50.1953,-12.1094Q43.7988,0.585938 29.7363,0.585938Q19.3359,0.585938 12.5,-6.20117Q5.71289,-13.1836 5.71289,-24.9023Q5.71289,-37.3047 12.8906,-44.5312Q19.1406,-50.9277 28.8086,-50.9277Q38.1836,-50.9277 43.9941,-44.9219Q50.3906,-38.5254 50.3906,-28.3203L50.3906,-26.5137ZM43.6035,-30.3223Q43.3105,-38.916 38.623,-43.6035Q34.5703,-47.5098 28.7109,-47.5098Q21.7285,-47.5098 17.0898,-41.4062Q13.7695,-37.0605 13.0371,-30.3223L43.6035,-30.3223Z"></path><path transform="translate(458 200)" d="M49.3164,-12.1094Q42.7246,0.585938 29.1016,0.585938Q19.1406,0.585938 12.5977,-6.10352Q5.71289,-13.1836 5.71289,-24.8047Q5.71289,-37.0117 13.0371,-44.3359Q19.4824,-50.9277 29.3945,-50.9277Q37.793,-50.9277 43.4082,-46.5332Q47.7051,-43.1152 47.7051,-39.209Q47.7051,-34.1309 43.1152,-34.1309Q38.7207,-34.1309 38.7207,-38.2324Q38.7207,-41.0645 41.1133,-42.0898Q37.5,-47.5098 29.7363,-47.5098Q20.9961,-47.5098 16.6504,-39.6973Q13.1348,-33.4473 13.1348,-25.293Q13.1348,-16.1133 17.9199,-10.1074Q22.7051,-4.00391 30.3223,-4.00391Q40.5762,-4.00391 46.4355,-14.3066L49.3164,-12.1094Z"></path><path transform="translate(512 200)" d="M33.3008,-5.51758Q28.2227,1.2207 21.3867,1.2207Q10.3027,1.2207 10.3027,-11.377L10.3027,-45.5078L1.80664,-45.5078L1.80664,-48.6328Q8.00781,-48.7793 10.498,-52.3926Q12.6953,-55.4688 13.916,-62.793L16.8945,-62.793L16.8945,-49.2188L31.6895,-49.2188L31.6895,-45.5078L16.8945,-45.5078L16.8945,-13.2812Q16.8945,-3.07617 23.0957,-3.07617Q27.5391,-3.07617 31.1035,-7.71484L33.3008,-5.51758Z"></path><path transform="translate(545 200)" d=""></path><path transform="translate(574 200)" d="M62.4023,-51.709L59.375,-51.709Q58.9355,-58.8379 56.4941,-62.9883Q53.1738,-68.2617 39.3555,-68.2617L30.7617,-68.2617Q26.4648,-68.2617 24.2676,-67.1875Q21.9727,-65.7715 21.9727,-60.791L21.9727,-39.0137L32.666,-39.0137Q38.8672,-39.0137 40.7715,-41.7969Q42.7246,-44.6777 43.1641,-49.4141L46.0938,-49.4141L46.0938,-25.0977L43.1641,-25.0977Q42.7246,-29.9316 41.1621,-32.2754Q39.0625,-35.5957 32.666,-35.5957L21.9727,-35.5957L21.9727,-11.5723Q21.9727,-6.68945 24.9512,-5.17578Q27.0508,-4.05273 32.959,-3.75977L32.959,-0.976562L4.98047,-0.976562L4.98047,-3.75977Q10.2051,-4.10156 12.207,-4.98047Q15.1855,-6.34766 15.1855,-11.5723L15.1855,-60.6934Q15.1855,-65.4297 13.2812,-66.748Q11.4258,-68.2129 4.98047,-68.6523L4.98047,-71.4844L61.1816,-71.4844L62.4023,-51.709Z"></path><path transform="translate(638 200)" d="M29.4434,-51.123Q39.3066,-51.123 45.9961,-44.4336Q53.2227,-37.207 53.2227,-25.5371Q53.2227,-13.2324 45.9961,-6.00586Q39.2578,0.585938 29.4434,0.585938Q19.5312,0.585938 12.8906,-6.00586Q5.71289,-13.2324 5.71289,-25.3418Q5.71289,-37.207 13.0371,-44.5312Q19.6289,-51.123 29.4434,-51.123ZM29.4434,-47.6074Q22.0215,-47.6074 17.5293,-41.3086Q13.1348,-35.2539 13.1348,-25.293Q13.1348,-14.8438 17.9199,-8.83789Q22.3145,-3.22266 29.4434,-3.22266Q38.3301,-3.22266 42.5293,-11.0352Q45.8008,-17.1875 45.8008,-25.1953Q45.8008,-35.7422 41.0156,-41.8945Q36.5234,-47.6074 29.4434,-47.6074Z"></path><path transform="translate(697 200)" d="M18.7988,-38.0859Q21.0449,-43.5059 25.8301,-47.5098Q30.0293,-50.8301 34.7168,-50.8301Q40.4297,-50.8301 40.4297,-45.7031Q40.4297,-41.1133 36.2305,-41.1133Q32.0312,-41.1133 32.0312,-45.2148Q32.0312,-45.5566 32.2266,-46.6309Q28.3203,-46.2891 24.2188,-41.6016Q20.9473,-37.793 19.2871,-32.3242L19.2871,-10.1074Q19.2871,-5.56641 21.4844,-4.6875Q23.7793,-3.75977 28.3203,-3.75977L28.3203,-0.976562L3.80859,-0.976562L3.80859,-3.75977Q7.37305,-3.75977 9.32617,-4.39453Q12.5977,-5.27344 12.5977,-10.1074L12.5977,-39.9902Q12.5977,-44.7266 10.2051,-45.6055Q8.54492,-46.1914 3.90625,-46.1914L3.90625,-49.2188Q12.4512,-49.3652 18.7988,-50.8301L18.7988,-38.0859Z"></path><path transform="translate(737 200)" d=""></path><path transform="translate(766 200)" d="M96.6797,-68.6035Q94.3359,-68.6035 92.3828,-67.9688Q88.3301,-66.9434 86.377,-60.3027L67.8223,0.585938L64.5996,0.585938L49.3164,-51.1719L48.9746,-51.1719L32.1777,0.585938L29.0039,0.585938L10.1074,-59.7656Q7.95898,-66.5527 4.49219,-67.7734Q2.73438,-68.4082 0,-68.6035L0,-71.4844L25.8789,-71.4844L25.8789,-68.7012Q20.4102,-68.5547 18.6035,-67.6758Q16.6992,-66.7969 16.6992,-64.3066Q16.6992,-62.3047 17.6758,-59.1797L31.8848,-12.4023L32.1777,-12.4023L47.2168,-58.3984L46.582,-60.6934Q44.9219,-67.041 41.2109,-68.0664Q39.209,-68.5547 36.2793,-68.7012L36.2793,-71.4844L61.9141,-71.4844L61.9141,-68.7012Q57.6172,-68.5059 56.0059,-68.3105Q52.5879,-67.6758 52.5879,-64.502Q52.5879,-63.1348 53.5156,-60.0098L67.2852,-12.8906L67.627,-12.8906L81.5918,-60.3027Q82.373,-63.1836 82.373,-64.502Q82.373,-68.5547 72.998,-68.7012L72.998,-71.4844L96.6797,-71.4844L96.6797,-68.6035Z"></path><path transform="translate(862 200)" d="M50.3906,-26.5137L12.6953,-26.5137L12.6953,-24.8047Q12.6953,-14.9902 18.7012,-8.78906Q23.7305,-3.80859 30.9082,-3.80859Q41.6504,-3.80859 47.5098,-14.209L50.1953,-12.1094Q43.7988,0.585938 29.7363,0.585938Q19.3359,0.585938 12.5,-6.20117Q5.71289,-13.1836 5.71289,-24.9023Q5.71289,-37.3047 12.8906,-44.5312Q19.1406,-50.9277 28.8086,-50.9277Q38.1836,-50.9277 43.9941,-44.9219Q50.3906,-38.5254 50.3906,-28.3203L50.3906,-26.5137ZM43.6035,-30.3223Q43.3105,-38.916 38.623,-43.6035Q34.5703,-47.5098 28.7109,-47.5098Q21.7285,-47.5098 17.0898,-41.4062Q13.7695,-37.0605 13.0371,-30.3223L43.6035,-30.3223Z"></path><path transform="translate(918 200)" d="M16.6016,-40.7227Q22.7051,-50.7324 33.3984,-50.7324Q41.6992,-50.7324 47.6074,-44.8242Q54.6875,-37.7441 54.6875,-25.5371Q54.6875,-13.2324 47.5098,-6.00586Q41.4062,0.0976562 33.2031,0.0976562Q22.8027,0.0976562 16.7969,-8.30078L13.5254,-0.195312L10.1074,-0.195312L10.1074,-62.3047Q10.1074,-66.8945 7.91016,-67.7734Q6.39648,-68.4082 1.51367,-68.4082L1.51367,-71.4844Q10.0098,-71.6309 16.6016,-72.998L16.6016,-40.7227ZM16.6016,-31.2012L16.6016,-18.2129Q16.6016,-11.9629 23.0957,-7.32422Q27.5391,-4.10156 32.5195,-4.10156Q40.0879,-4.10156 44.2871,-11.3281Q47.6074,-16.8457 47.6074,-25.293Q47.6074,-36.6211 41.7969,-42.4316Q37.5977,-46.6309 32.0312,-46.6309Q24.6582,-46.6309 19.6777,-39.6973Q16.6016,-35.5957 16.6016,-31.2012Z"></path></svg>