<svg  xmlns="http://www.w3.org/2000/svg" xmlns:xlink="http://www.w3.org/1999/xlink" width="1530" height="100" viewBox="0 0 1554 124"><path transform="translate(0 100)" d="M45.2,4.3C45.7,4.7 47.2,6.3 47.6,6.7C47.9,6.9 49.6,8.9 49.8,9.1L51.3,10.6C51.8,10.8 52.6,10.8 53.1,10.8L53.9,10.8C54.6,10.6 54.6,9.5 54.6,9.1C54.6,8.7 54.8,6.9 54.8,6.7L54.8,1C54.2,-0.7 54.4,-2.7 54.4,-4.4C54.4,-4.6 54.2,-5.7 54.2,-5.9L54.2,-9C54.2,-9.2 53.9,-9.9 53.7,-10.1L53.7,-17.3C53.7,-17.5 53.3,-18.1 53.3,-18.4L53.3,-18.6C53.3,-19.2 53.9,-19.4 53.9,-20.1L53.9,-20.3C53.9,-20.5 53.7,-22.1 53.7,-22.3L53.7,-24.5C53.7,-25.1 53.3,-25.5 53.3,-26.2C53.3,-26.4 53.9,-28.2 54.2,-28.4L56.6,-28.4L57.2,-28.6C57.4,-28.6 59.8,-28.8 60,-28.8C60.5,-28.8 61.1,-29 61.6,-29.2L64,-29.2C64.8,-29.2 68.3,-29.7 69.2,-29.7C70.1,-30.1 71.6,-29.9 72.7,-30.1L73.3,-30.3C76.8,-30.8 80.5,-30.8 84,-30.8C85.1,-31.4 85.1,-31.9 85.1,-33.2C85.1,-34.5 81.8,-34.9 80.9,-36.4L80.9,-36.9C80.9,-37.5 81.2,-38.6 81.4,-39.3L81.6,-39.7L81.6,-41L82.2,-41.9L82.7,-42.8L83.1,-43.2L83.6,-44.3C83.8,-44.5 84.6,-46.7 84.9,-46.9C84.9,-47.1 85.3,-48 85.3,-48.2C85.7,-49.1 86.4,-49.7 86.6,-50.6C86.8,-51 87.3,-52.8 87.3,-53L87.3,-53.9C87.3,-54.1 87.7,-54.7 87.7,-55C87.9,-55.6 89,-55.4 89.4,-55.6C89.6,-55.6 90.7,-56.7 91,-56.7L91.6,-56.9L92,-57.1C92.5,-57.3 92.5,-58.2 92.9,-58.4L93.8,-58.7L93.8,-58.9C93.8,-60.4 92,-60.6 91.4,-61.7L90.7,-62.8C90.5,-63.2 89.4,-64.8 89.2,-65C89.2,-65.2 88.1,-65.8 88.1,-66.1C87.3,-67.1 86.8,-68.5 85.9,-69.3C85.5,-69.8 85.1,-69.8 84.6,-69.8C84.2,-69.8 82.9,-68.9 82.7,-68.5L82,-67.4C81.8,-66.9 80.3,-65.6 80.1,-65.4L79.2,-65L78.3,-64.3C78.1,-64.3 77.2,-64.1 77,-64.1C76.8,-64.1 76.2,-63.9 76.2,-63.9C75.9,-63.9 75.1,-63.2 74.8,-63.2C74,-62.8 73.1,-62.8 72.2,-62.6C72,-62.6 70.9,-62.1 70.7,-62.1L69.8,-62.1C69.8,-62.1 69.2,-61.9 69,-61.9L68.3,-61.7L66.4,-61.7C65.3,-61.7 64.2,-61 63.3,-60.8C63.1,-60.8 60.7,-60.4 60.5,-60.4C60.3,-60.4 59,-60 58.7,-60L58.1,-60L57.2,-59.5L56.1,-59.5C55.9,-59.5 55,-59.3 54.6,-59.7C54.6,-60.2 54.4,-61.9 54.4,-62.4L54.4,-62.6C54.4,-62.8 54.6,-63.9 54.6,-64.1C54.6,-65.4 54.2,-66.7 54.2,-68C54.2,-68.9 54.4,-69.5 54.4,-70.4L54.4,-70.6L54.2,-71.5C54.2,-71.5 54.4,-72.4 54.4,-72.6L54.6,-73.5C54.6,-73.7 54.8,-75.2 54.8,-75.4C54.8,-75.9 55.9,-78.3 55.9,-78.7L55.9,-79.3C55.9,-80.4 55.7,-80.4 54.8,-81.1C54.6,-81.1 53.9,-82.2 53.7,-82.2L52.6,-82.6L52.2,-82.8C49.8,-84.6 47.2,-86.8 44.2,-86.8C43.7,-86.8 43.5,-86.5 43.5,-86.1C43.5,-84.8 45.2,-84.6 45.7,-83.9C45.9,-83.7 46.3,-82.8 46.3,-82.8L46.5,-82C47,-80.9 47.6,-80.4 47.6,-78.9C47.6,-78.5 47.6,-78.3 47.4,-77.8C47.9,-75.9 48.1,-74.1 48.1,-72.2L48.3,-71.7L48.3,-64.3C48.3,-63.9 48.7,-62.1 48.7,-61.7L48.7,-61.5C48.7,-61 48.5,-59.5 48.5,-59.3C48.1,-58.4 46.1,-58.4 45.2,-58.4C45,-58.4 43.5,-58.2 43.3,-58.2C43.1,-58.2 42.2,-58 42,-58L40.5,-58C39.4,-58 38.1,-57.6 37,-57.3C36.5,-57.3 32.2,-56.7 31.7,-56.7C31.5,-56.7 30.7,-56.5 30.4,-56.5L27.8,-56.5C27.2,-55.8 26.1,-55.8 25.2,-55.8C24.8,-55.8 21.3,-55.6 20.2,-55.6L19.1,-55.6C18,-55.4 16.9,-54.7 15.6,-54.7C14.3,-54.7 14.3,-55.8 14.1,-56.7C13.7,-58 12.6,-59.1 11.7,-60.2C10.4,-61.9 9.5,-63.7 8.5,-65.6C7.8,-66.7 7.4,-67.8 6.3,-68.5L6.1,-68C6.1,-67.8 6.5,-67.1 6.5,-66.9C6.5,-66.7 6.9,-65.8 6.9,-65.6C6.9,-65.4 7.8,-64.1 7.8,-63.9C8.2,-62.8 8.2,-61.7 8.7,-60.8C8.9,-60.4 9.5,-58.9 9.5,-58.9C10,-57.6 10.6,-56.3 10.4,-54.7L11.7,-50.4C11.7,-50.2 11.9,-48.6 11.9,-48.4C11.9,-47.8 12.6,-47.3 12.6,-46.7C12.6,-46.2 12.4,-46 12.4,-45.6L12.4,-45.4L12.6,-44.7C13,-42.1 13.2,-39.9 13.5,-37.3L13.5,-35.3C13.5,-34.3 13.9,-33.2 13.9,-32.1C13.9,-31.6 13.7,-31.2 13.7,-31C13.7,-30.1 13.9,-29.2 13.9,-28.6C13.9,-26.9 13.5,-25.5 12.8,-24C12.4,-22.9 11.9,-22.5 11.9,-21.4C11.9,-20.8 11.9,-20.3 12.2,-19.4C12.4,-18.8 13,-18.4 13.2,-17.7C14.1,-16 14.5,-14.4 15.6,-12.9C16.1,-12 16.9,-10.7 18,-10.7C18.2,-10.7 18.2,-10.7 18.5,-11C18.7,-11.4 19.3,-12.5 19.3,-12.7L19.3,-13.6L19.6,-14.2C19.6,-14.7 19.8,-16.6 19.8,-17L19.8,-19.7C19.8,-19.9 20,-20.8 20,-21L20,-22.3C20,-22.5 20.2,-23.1 20.2,-23.4C20.2,-23.6 20.9,-23.8 20.9,-23.8C21.1,-23.8 23.5,-24.2 23.7,-24.2C25,-24.5 26.5,-24.7 27.8,-25.1L28.5,-25.3C30,-25.5 31.7,-26 33.5,-26.2C33.7,-26.2 36.1,-26.4 36.3,-26.4C37.4,-26.6 38.3,-26.9 39.4,-26.9C39.8,-26.9 41.1,-27.1 41.3,-27.1C43.1,-27.3 44.8,-27.7 46.5,-27.7L47.6,-27.7L47.9,-27.5C47.9,-27.5 48.1,-25.8 48.1,-24.9L48.1,-24.2C48.1,-23.8 47.9,-21 47.9,-20.5L47.9,-20.1C47.9,-19.9 48.1,-18.6 48.1,-18.4L48.1,-18.1C48.1,-17.9 47.6,-16.8 47.6,-16.6L47.6,-16.4C47.6,-16.2 47.9,-15.5 47.9,-15.3L48.1,-14.7L48.1,-13.3C48.1,-11.8 47.9,-10.3 47.9,-8.8C47.9,-7 48.3,-5.5 48.3,-4L48.3,-3.3L48.1,-2.7L48.1,-0.9C48.1,-0.7 47.6,0.8 47.6,1C47.2,1.5 45.2,3.6 45.2,3.9L45.2,4.3ZM20.2,-30.1C19.8,-31.9 19.6,-33.6 18.9,-35.1C18.7,-36 18.2,-40.6 18.2,-41.4L18.2,-43.4C18.2,-43.6 17.8,-44.5 17.8,-44.7L17.4,-47.3L17.2,-48L17.2,-48.6C17.2,-50.2 18.7,-49.1 18.9,-49.9C20.6,-49.9 21.9,-49.9 23.5,-50.4C23.7,-50.4 24.8,-50.8 25,-50.8L27.2,-50.8L34.4,-51.9L35,-51.9C35,-51.9 39.4,-52.6 41.1,-52.8L42.2,-53C42.4,-53 43.7,-53.2 43.9,-53.2L44.6,-53.4L44.8,-53.4C45.9,-53.4 47.4,-53.2 47.6,-51.9C47.9,-50.4 47.6,-48.2 48.3,-46.9L48.5,-40.4L48.5,-33.2L48.3,-33C46.5,-31.9 44.6,-32.5 42.8,-32.1C42.6,-32.1 41.8,-31.6 41.5,-31.6C41.3,-31.6 39.4,-31.4 38.7,-31.4L37,-31.4L36.1,-31.2C34.1,-30.8 32.2,-30.8 30.2,-30.6C30,-30.6 28.9,-30.1 28.7,-30.1C28.5,-30.1 27.6,-29.9 27.6,-29.9L25,-29.9C24.8,-29.7 24.6,-29.7 24.3,-29.7C23.7,-29.7 23,-29.9 22.4,-29.9C21.9,-29.9 21.5,-29.7 20.9,-29.7C20.6,-29.7 20.4,-29.7 20.2,-30.1ZM53.9,-34.9L54.2,-35.6L54.2,-36.4C54.2,-37.1 53.7,-37.7 53.7,-38.6C53.7,-39.9 53.9,-41.4 53.9,-42.8C53.9,-43.6 53.9,-44.3 53.7,-45.1L53.7,-51.2C53.7,-51.9 54.4,-53.6 55,-53.9C55.3,-53.9 56.6,-54.1 56.8,-54.1L57.6,-54.7L58.1,-55C58.5,-55 61.1,-55.4 61.6,-55.4C63.3,-55.6 64.8,-55.6 66.6,-55.8C67.7,-55.8 69,-56.5 70.1,-56.5L71.8,-56.5C72,-56.5 72.9,-56.7 73.1,-56.7C73.3,-56.7 77.9,-56.9 79.6,-57.1L79.9,-57.1C80.1,-57.1 80.1,-55.8 80.1,-55.8C80.1,-54.1 79.2,-52.8 79,-51.2L79,-50.4C79,-50.4 78.8,-49.9 78.8,-49.7C77.9,-47.5 77.2,-45.6 76.4,-43.4C76.4,-43.2 75.5,-41.7 75.5,-41.4C75.5,-41.2 75.3,-40.4 75.3,-40.1L74.6,-39.3C73.8,-38.2 74,-35.3 72.5,-34.9L69.2,-34.9C69.2,-34.9 68.3,-34.7 68.1,-34.7L67.4,-34.5L66.1,-34.5L65.3,-34.3C65.1,-34.3 63.7,-34 63.3,-34L62.4,-34C60.7,-33.8 58.7,-33.2 57,-33.2C55.9,-33.2 54.2,-33.4 53.9,-34.9Z"></path><path transform="translate(100 100)" d="M68.7,-1.4C70.2,-0.5 71.3,1 72.4,2.3C72.4,2.6 73.5,3.2 73.5,3.4L75.2,5.8L76.3,6.7L76.5,6.9C77.2,7.8 78.3,9.3 79.1,10C79.6,10.2 80,10.4 80.4,10.4L80.7,10.4L81.3,10.2L83.1,10.2C83.3,10.2 84.1,10 84.4,10C84.8,10 88.3,8.9 88.7,8.9C88.9,8.9 90.9,8.4 91.1,8.4L91.8,8.2C93.7,8 96.1,8 98.1,7.3C98.5,7.1 98.5,6.5 98.5,6.3C98.5,5.8 98.5,5.6 98.1,5.4C96.5,4.7 94.8,4.9 93.3,4.5C93.1,4.5 91.5,3.9 91.3,3.9L90.2,3.6C89.6,3.4 88.9,2.8 88.3,2.6L87.4,2.3C87.2,2.3 85.7,1.7 85.4,1.7C84.4,1.2 83.7,0.6 82.6,0.2C82,-0.1 81.3,-0.1 80.7,-0.5C80.2,-0.7 78.5,-2 78,-2.2C77.8,-2.5 75.9,-3.8 75.7,-4C75.4,-4.2 73.7,-4.9 73.5,-5.1L72.6,-5.7C72.4,-5.9 71.5,-6.4 71.3,-6.4L67.6,-9.6L66.5,-10.5L65.2,-12C62.6,-14.9 59.5,-17.3 56.9,-20.1L56.9,-20.8C56.9,-22.1 57.8,-23.2 58.5,-24.2L58.9,-25.1L59.8,-26C59.8,-26.2 60.4,-27.1 60.4,-27.3L61.1,-27.9L61.3,-28.8L61.5,-29.3C62.2,-30.3 62.6,-30.8 63,-32.1L63.2,-33C63.7,-33.8 64.6,-34.9 64.8,-35.6C64.8,-35.8 65,-36.7 65,-36.9C65,-37.1 65.9,-38.4 65.9,-38.6C66.1,-38.8 66.7,-40.8 66.9,-41.2C67.2,-41.9 67.2,-42.8 67.6,-43.4C67.6,-43.6 68.7,-44.3 68.7,-44.5L69.1,-45.2L69.3,-45.4C70.4,-46.2 71.7,-46 73,-46.5L73,-46.7C73,-46.9 72.4,-47.5 72.4,-47.8L72.2,-48.4C72,-48.6 71.5,-49.7 71.5,-49.7C71.3,-49.9 69.6,-52.1 68.9,-52.8C68.3,-53.4 66.9,-54.3 66.9,-55.6C66.9,-56.5 68.5,-56.7 69.1,-56.9L77,-56.9C78,-56.9 78.9,-57.1 79.8,-57.3L80.4,-57.6C82.6,-58 84.8,-58 87,-58C87,-58 88.3,-58.2 88.7,-58.2C88.9,-58.2 89.8,-58.4 90,-58.4L90.9,-58.2L93.1,-58.2L93.7,-58C93.9,-58 94.6,-57.8 94.6,-57.8L97.6,-57.8C97.6,-60.4 95.5,-61.7 93.9,-63.7C93.7,-63.9 92.8,-65 92.8,-65C92.6,-65.2 91.3,-66.5 90.9,-66.7C90.7,-66.9 90.4,-66.9 90,-66.9L89.6,-66.9C88.7,-66.1 88.3,-65.6 87.2,-65.2C87,-65.2 85.4,-64.5 85.2,-64.5C83.9,-64.1 83.1,-63.4 81.7,-63.2L80.2,-63.2C80,-63.2 79.1,-62.8 78.9,-62.8C78.7,-62.8 77.4,-62.6 77.2,-62.6C77,-62.6 75.2,-62.1 74.8,-62.1L71.7,-61.5C71.5,-61.5 69.1,-61.3 68.9,-61.3L68,-61.1C67.8,-61.1 66.9,-60.8 66.9,-60.8C66.3,-60.8 61.3,-60.2 60.6,-60.2C60.4,-60.2 59.3,-60 59.1,-60L56.6,-60C56.5,-61 56.8,-63.6 56.8,-63.6C58.7,-71.3 58.9,-72.4 58.9,-72.6L59.3,-73.5L59.5,-74.1C59.5,-74.3 60,-75.2 60,-75.2C60.2,-75.6 61.1,-75.9 61.3,-76.1C61.5,-76.3 62.4,-77 62.4,-77.2C62.4,-77.4 62.6,-77.8 62.6,-77.8C62.6,-78 62.4,-78.3 62.2,-78.3C60.9,-79.1 55.2,-82.6 53.9,-83.5C53.7,-83.5 52.6,-84.4 52.4,-84.4L50.2,-86.1C50.2,-86.1 49.8,-86.3 49.5,-86.3L49.3,-86.3C48.7,-86.3 47.6,-85.9 47.1,-85.2C48.7,-82.6 50.4,-82.6 50.8,-79.6C51.1,-78.7 51.3,-75.9 51.3,-75.6L51.3,-72.4C51.3,-71.7 51.5,-69.3 51.5,-68.9C51.7,-64.5 51.5,-60.8 51.3,-59.2L50.9,-58.8C50,-58.7 46.7,-58.4 46.5,-58.4C44.3,-58.2 36.3,-57.3 35,-57.1C34.7,-57.1 31.9,-56.9 31.7,-56.9C31.5,-56.9 30.8,-56.5 30.6,-56.5C30.4,-56.5 28.2,-56 27.6,-56L26.5,-56C25.6,-56 19.3,-55.2 18.4,-55.2L8.6,-54.5L8,-54.3L6.2,-54.3L5.6,-54.5L3.4,-54.5L2.5,-55L2.1,-55C1.4,-55 1.4,-55 1.4,-54.3C1.4,-53.2 1.9,-52.8 2.8,-52.1L3.4,-51.9L4.3,-51.3C4.5,-51 6.7,-50.2 6.9,-49.9C7.1,-49.9 9.1,-48.6 9.7,-48.2C9.9,-48 10.6,-47.5 10.8,-47.5C12.1,-47.5 13.6,-48.2 14.9,-48.4C15.2,-48.4 17.5,-48.6 17.8,-48.6C18,-48.6 18.9,-49.1 19.1,-49.1C19.5,-49.1 20.6,-49.5 20.8,-49.5C25.6,-50.7 34.8,-51.8 37.4,-52.3C38.9,-52.6 40.6,-53 42.4,-53.2C44.5,-53.4 46.7,-53.6 48.9,-54.1C53.8,-55 59.6,-55.8 59.8,-55.8L60,-55.8C61.5,-55.4 61.7,-54.3 61.7,-53C61.7,-52.1 61.3,-51.3 61.3,-50.6L61.3,-49.1C61.3,-48.9 60.9,-46.9 60.9,-46.7C60.9,-46.5 60.6,-44.5 60.6,-44.3C60.6,-44.1 60.2,-43.4 60.2,-43.2L58.2,-37.3L58,-36.7C57.8,-36.2 57.2,-33.2 56.9,-32.7L55.2,-30.3L55,-29.9L54.8,-29.3C54.5,-28.8 53.5,-26.2 53.2,-25.8C53,-25.3 52.8,-25.1 52.4,-25.1L52.1,-25.1C49.1,-28.4 45.6,-31.2 42.6,-34.5C41.9,-36 40.6,-36.4 39.5,-37.7L38.7,-38.8L35.2,-42.3C34.3,-43.2 33.2,-44.9 31.9,-44.9L31.7,-44.9C31.5,-44.9 30.2,-44.3 30,-44.1L29.3,-43.4C29.3,-43.4 28.9,-43 28.6,-43C27.3,-42.1 25.8,-41.4 24.5,-40.8L20.2,-38.6C19.9,-38.6 18.9,-38 18.6,-38C18.2,-37.7 16.7,-37.1 16.7,-36.7L16.7,-36.4C17.3,-36.2 18.4,-35.8 19.1,-35.8L19.3,-35.8L20.2,-36C22.3,-36.2 24.5,-36.2 26.7,-36.2C29.3,-36.2 31.9,-35.8 34.3,-34.5C35,-34 35.6,-33.8 36.3,-33.4C36.7,-33 39.1,-31 39.7,-30.3C40,-30.1 41.7,-28.4 41.9,-28.2C43,-27.3 44.3,-26.9 45.2,-25.8L45.6,-25.1C46.1,-24.7 48.5,-22.3 48.9,-21.8L49.1,-21.4L48.9,-20.8C48.4,-19.5 47.4,-17.7 47.1,-17.5C44.5,-14.9 42.4,-12.7 42.1,-12.5C42.1,-12.5 41.1,-11.6 40.6,-11.4L40.2,-11.2L37.4,-8.3L36.9,-8.1C35.2,-6.6 33.4,-4.9 31.3,-4L30.8,-3.8C30.6,-3.5 29.5,-2.7 29.3,-2.5L28.6,-2.2C28.4,-2.2 27.8,-1.8 27.8,-1.8C27.6,-1.6 25.2,-0.1 24.9,0.2C24.7,0.4 23.2,1 22.8,1.2C22.6,1.2 21.7,1.7 21.5,1.7C20.6,1.9 19.9,2.8 19.1,3C18.9,3 17.8,3.4 17.5,3.4C16,4.1 14.7,4.9 13.2,5.4C13,5.4 12.5,5.6 12.5,5.6L11.7,6C11.5,6 9.7,6.3 9.5,6.3C9.3,6.3 8,7.1 7.8,7.1C6.9,7.6 5.8,7.1 4.9,7.6C4.1,8 3.6,8.4 3.6,9.3L5.1,9.3C5.4,9.3 6.5,8.9 6.7,8.9C6.9,8.9 9.3,8.7 9.5,8.7C9.7,8.7 10.2,8.4 10.4,8.4C14.3,7.6 15.6,7.3 16.2,7.1L16.9,6.7C17.3,6.5 18.2,6.3 18.6,6.3L19.1,6.3L19.9,5.6C20.2,5.6 21,5.4 21.2,5.4C23.9,4.5 26,2.6 28.6,1.9L29.5,1.7C30.8,1 31.5,0.4 32.8,-0.3C33,-0.5 34.7,-1.2 35,-1.4C35.4,-1.6 36.7,-2.5 36.9,-2.5C37.1,-2.5 37.8,-3.3 38,-3.3C38.9,-4 39.7,-4.2 40.6,-4.9C41.9,-5.7 43,-6.6 44.1,-7.5L45.2,-8.3C47.8,-10.7 50.4,-12.9 52.8,-15.5C53,-15.7 53.5,-15.7 53.9,-15.7L54.3,-15.7C54.8,-15.5 56.3,-14.2 56.5,-14L56.9,-13.6L57.4,-12.9L58,-12.3C58.5,-11.8 59.1,-11.8 59.5,-11.4L60,-10.7L61.5,-8.8L61.9,-7.9L62.4,-7.5C62.6,-7.5 63,-6.8 63.2,-6.8L68.7,-1.4Z"></path><path transform="translate(200 100)" d="M63.4,-4.7C63.8,-3.2 67.5,-1.6 68.8,-0.8C69,-0.5 71,0.8 71.2,1L72.3,1.6C72.7,2.1 74.3,2.9 74.3,2.9C74.5,3.2 76.4,5.1 76.7,5.3C76.9,5.6 78.6,6.6 78.8,6.9L81.7,9C82.1,9.3 82.1,10.1 82.5,10.3C83.2,10.8 84.1,10.8 84.9,10.8C85.6,10.8 86.5,11 86.9,10.3C87.3,9.7 87.8,8.4 88.2,7.5C88.9,5.8 89.5,4.9 89.9,3.2L89.9,2.5C89.9,1.9 89.7,-4 89.7,-4.7L89.7,-6.9L89.5,-7.7L89.5,-8.6C89.5,-9.7 89.7,-10.6 89.7,-11.7C89.7,-12.3 89.7,-12.5 89.5,-13.4L89.5,-31.9C89.3,-33.2 89.3,-34.3 89.3,-35.6C89.3,-37.1 89.1,-39.1 89.7,-40.6L89.7,-48C89.7,-48.5 89.9,-51.7 89.9,-52.2L89.9,-64.6C90.2,-65.2 90.2,-65.5 90.2,-65.9C90.2,-67.6 89.7,-69.4 89.7,-71.1C89.7,-71.8 89.7,-72.6 90.2,-73.3C90.8,-74.2 93.2,-75.5 93.2,-76.6C93.2,-77.4 92.6,-78.1 92.1,-78.7L90.2,-81.1C88.9,-82.4 87.3,-83.5 86.2,-85.1C86.2,-85.3 85.6,-86.1 85.6,-86.4C85.6,-86.6 85.2,-86.8 85.2,-86.8L83.6,-86.8C83.4,-86.8 83.2,-86.1 83.2,-86.1L83,-85.3C81.7,-83.5 79.9,-83.1 78,-82.7C75.6,-82 73.2,-81.1 70.8,-80.9L69.5,-80.9C69.5,-80.9 68.8,-80.7 68.6,-80.7C67.7,-80.5 68.2,-79.4 67.7,-79.4C66.4,-79.4 65.3,-80 64,-80L63.6,-80L62.9,-79.8C62.7,-79.8 61.2,-79.6 60.8,-79.6L59,-79.6L53.8,-79L51.8,-79C51.6,-79 49.2,-78.5 49,-78.5L47.9,-78.5C46.6,-78.3 45.1,-77.9 44,-77.9L41.8,-77.9C40.3,-77.9 36.4,-77.4 36.4,-77.4L35.5,-77C34.4,-76.8 28.8,-76.3 27.7,-76.1C26.4,-75.9 24.8,-75.9 23.5,-75.5L22.7,-75C22,-75 21.4,-75.5 20.7,-75.5L20.5,-75.5C20,-75.5 15.9,-75 15.5,-75L15,-75C14.6,-75 14.4,-75 14.2,-75.5C14.2,-75.9 14,-77.4 14,-77.9C14,-78.1 13.5,-78.5 13.5,-78.7C13.3,-79 11.8,-80.5 11.6,-80.7L11.1,-81.6C11.1,-81.6 10.7,-82.2 10.5,-82.2C9.8,-82.2 9.2,-81.8 8.9,-81.1L8.9,-77C8.9,-76.8 9.4,-75.7 9.4,-75.5L9.4,-73.1C9.4,-72.2 10,-71.1 10,-70.2C10,-69.4 10.5,-65.7 10.5,-65L10.5,-61.3C10.5,-60.9 10.7,-58.7 10.7,-58.3L10.9,-57.6L10.9,-42.8C10.9,-42.4 10.7,-38.4 10.7,-38L10.7,-37.1C10.7,-35.8 10.9,-34.7 10.9,-33.4L10.9,-33C10.9,-32.8 10.7,-30.6 10.7,-30.4C10.7,-29.7 10.9,-28.9 10.5,-28.2L10.5,-23C10.5,-22.8 10.3,-22.3 10.3,-22.1C10.3,-21.2 9.8,-18.2 9.8,-17.5L9.8,-15.1L10,-14.5L10,-14C10,-13.8 9.6,-11 9.6,-10.8L9.6,-9C9.6,-7.7 9.2,-6.4 8.7,-5.3C8.3,-4.2 6.8,-3.4 6.8,-2.5C6.8,-0.8 8.3,1 8.9,2.5C10,4.9 11.1,7.1 12.4,9.5L12.6,9.7C13.3,10.1 13.5,9.9 14.2,9.9L15,9.9L15.3,9.7L15.3,7.7C15.3,7.1 15.5,1 15.5,0.3L15.5,-6.6C15.5,-8.6 16.6,-9.7 17.9,-10.8L18.5,-11.2L19.8,-13C20.5,-13.8 21.1,-14 22,-15.1L22.4,-15.8C24.6,-18.4 27,-20.6 29,-23.4C29,-23.6 29.8,-24.7 29.8,-24.9C29.8,-25.2 30.3,-25.6 30.3,-25.6L31.2,-26.5L31.4,-26.9L31.6,-27.6C32.5,-29.7 33.8,-31.9 34.4,-34.3C34.6,-34.7 34.9,-35 35.3,-35L35.5,-35C37,-33.9 37.7,-32.1 38.6,-30.6L39.2,-29.7C39.2,-29.7 39.6,-29.1 39.6,-28.9C39.6,-28.6 40.3,-27.3 40.3,-27.1C40.3,-26.9 41.2,-26 41.2,-25.8C41.2,-25.6 41.6,-24.7 41.6,-24.5C41.6,-24.5 42,-23.8 42,-23.6C42.3,-23.2 43.1,-21.7 43.3,-21.5L43.6,-21.2L44.2,-21.2C44.9,-21.2 45.1,-21.2 45.3,-21.9C45.5,-22.3 46,-24.1 46.2,-24.5C46.6,-25.6 47,-26.9 47,-28C47,-29.3 46,-29.3 45.3,-30.2C44.9,-30.6 43.1,-33.2 42.7,-33.9L42,-35L41.2,-35.8C41,-36 40.1,-37.6 39.9,-37.8C39.9,-38 39.2,-38.7 39.2,-38.7L37.7,-40.4C37.5,-40.6 37.5,-40.8 37.5,-41.1L37.5,-41.3L39,-43C39.4,-43.5 39.2,-43.9 39.4,-44.3C40.3,-46.1 41.2,-47.8 41.8,-49.6C41.8,-49.8 42.5,-51.3 42.5,-51.5C42.5,-51.7 43.1,-52.6 43.1,-52.8C43.6,-54.1 43.6,-55.7 44.2,-56.7L47.5,-61.8L47.5,-62.2C47.5,-62.8 47,-63.1 46.4,-63.5L40.5,-69.2L40.3,-69.2C39.6,-69.2 39.4,-68.3 39.4,-67.8L39.4,-67.6L39.6,-67L39.6,-63.3C39.6,-62.4 39.2,-58.9 39,-58C38.3,-56.5 38.1,-55 37.7,-53.5C37.7,-53.3 36.6,-50.9 36.6,-50.6C36.6,-50.4 36.4,-49.3 36.4,-49.1C36.4,-49.1 36.2,-48.5 36.2,-48.2L35.9,-47.6C35.9,-47.4 35.7,-46.1 35.7,-45.8C35.7,-45.4 35.1,-44.3 34.6,-44.3L34.4,-44.3C34.4,-44.3 33.5,-44.8 33.3,-45C33.1,-45 32.7,-45.4 32.7,-45.4L31.2,-46.9L30.5,-47.2C29.2,-48 27.9,-50 26.8,-51.1C25.3,-52.4 23.7,-53.7 22.2,-54.8C21.8,-55 21.4,-55 20.9,-55L20.9,-54.1C23.7,-51.1 25.9,-47.6 28.8,-44.3C29.8,-43 32,-41.5 32.5,-39.8L32.5,-38.9C32.5,-37.1 31.6,-35.8 30.9,-34.3C30.5,-33.2 30.1,-32.1 29.4,-31.3C29.2,-30.8 28.3,-29.5 28.1,-29.3C27,-27.8 25.5,-26.2 24.8,-24.5C24.8,-24.3 24.4,-23.2 24.4,-23L24,-22.3C24,-22.1 23.3,-21.2 23.3,-21C23.3,-20.8 22.7,-19.9 22.4,-19.7L22.2,-19.5L21.8,-19.3C21.4,-18.8 19.8,-17.3 19.6,-17.1C19.6,-17.1 19.2,-16.2 19,-16C18.7,-15.8 18.1,-14 17.9,-13.8C17.7,-13.4 16.3,-11.9 15.9,-11.4L15.7,-11.4C15.5,-11.4 15.3,-11.4 15.3,-11.7C15.3,-12.1 15,-13.6 15,-14L15,-14.5C15,-15.6 15.3,-16.9 15.3,-18.2L15.3,-19.7L15,-20.4L15,-20.8L15.3,-21.7L15.3,-24.5C15.3,-24.7 15.5,-26.5 15.5,-26.7C15.7,-29.3 15.5,-31.7 15.7,-34.3C15.7,-34.7 16.1,-39.3 16.1,-39.8L16.1,-40.2C16.1,-41.9 15.9,-43.7 15.9,-45.4L15.9,-45.6L16.1,-46.3L15.9,-46.9L15.9,-49.3C15.9,-49.6 15.7,-51.1 15.7,-51.3L15.7,-51.5C15.7,-51.7 15.9,-53.9 15.9,-54.1L15.9,-55.2L15.7,-55.9C15.5,-57.8 15.3,-60 15.3,-62.2L15.3,-64.4C15.5,-64.6 15.5,-65 15.5,-65.2L15.5,-65.9L15.3,-66.5C15.3,-67 15,-68.7 15,-68.9C15,-70 16.8,-70.5 17.7,-70.5C18.1,-70.5 20.7,-70.7 21.4,-70.7L24.8,-70.7C25.1,-70.7 25.9,-71.1 26.1,-71.1L27,-71.1C27.2,-71.1 28.1,-71.6 28.3,-71.6C28.5,-71.6 29,-71.8 29.2,-71.8C31.6,-72.2 34.6,-72.4 37,-72.6L40.1,-72.6C40.1,-72.6 40.7,-72.9 41,-72.9C41.2,-72.9 42,-73.3 42.3,-73.3C42.7,-73.3 46.4,-73.7 46.8,-73.7C47,-73.7 48.8,-74.2 49,-74.2L51,-74.2C51.4,-74.2 55.8,-74.6 56.2,-74.6L59.9,-74.6L60.8,-74.8C61,-74.8 63.2,-75 63.4,-75C63.4,-75 63.8,-75.3 64,-75.3C64,-75.3 64.9,-75.7 65.1,-75.7L67.3,-75.7C67.5,-75.7 69.7,-75.9 69.9,-75.9L73.2,-75.9C74.3,-75.9 75.4,-76.6 76.4,-76.8C78,-77.2 80.4,-77.4 81.9,-77.4C82.3,-77.4 82.8,-77.7 83.2,-77.2L83.8,-76.6L83.8,-75.3C83.8,-75 84.1,-73.3 84.1,-73.1L84.1,-67.4L84.3,-66.8C84.3,-66.3 84.5,-64.4 84.5,-63.9L84.5,-61.8C84.5,-61.5 84.7,-60.4 84.7,-60.2L84.7,-55.7L84.9,-55L84.9,-54.8C84.9,-54.6 84.5,-53.3 84.5,-53L84.5,-50.2C84.5,-50 84.3,-49.3 84.3,-49.1L84.3,-45C84.3,-44.8 84.1,-43.5 84.1,-43.2L84.1,-42.8C84.1,-42.4 84.3,-42.1 84.3,-41.7C84.3,-40.6 84.1,-39.5 84.1,-38.7L84.1,-38L84.3,-37.4L84.3,-36.3C84.3,-36 84.5,-35.2 84.5,-35L84.5,-30.2C84.5,-29.9 84.7,-28.6 84.7,-28.4C84.7,-28.2 84.5,-27.6 84.5,-27.3L84.5,-26.2C84.5,-24.9 84.9,-24.1 85.6,-22.8C85.4,-21.9 84.9,-17.3 84.7,-16.2L84.7,-14.9C84.7,-14.7 84.5,-14.3 84.5,-14L84.5,-8.4L84.7,-7.7L84.7,-7.3C84.7,-7.1 84.3,-5.8 84.3,-5.6L84.3,-4L84.1,-3.4C83.8,-1.2 83.8,1.4 83.8,3.6C83.6,3.8 83.4,3.8 83.2,3.8L83,3.8C82.5,3.8 81.4,3.6 81.4,3.6L80.6,2.9C79.7,2.5 78,2.3 77.1,2.3L75.1,0.5C74,0.5 73.4,-0.1 72.5,-0.5L68.2,-2.5C67.7,-2.7 66.4,-3.4 66.2,-3.4L65.3,-4C65.1,-4 64.2,-4.5 64,-4.5L63.6,-4.7L63.4,-4.7ZM40.3,-7.9L40.3,-7.7L40.5,-7.7C40.7,-7.7 41.4,-7.9 41.4,-7.9C44.2,-9.3 44.7,-11 46.8,-13L47.9,-13.8C47.9,-14 48.6,-14.9 48.6,-15.1C48.6,-15.4 49,-15.8 49.2,-16L51.6,-18.6C52.1,-19.3 51.8,-19.3 52.5,-19.7L52.9,-19.9L54.5,-21.5C55.3,-22.3 55.8,-23.4 56.4,-24.3C56.6,-24.7 57.5,-25.6 57.7,-26C59,-28.4 60.1,-31 61.2,-33.7C61.4,-34.3 62.3,-36 63.4,-36L63.8,-35.8L65.3,-34.3L65.8,-33.4C65.8,-33.4 66.2,-33 66.2,-32.8C66.9,-31.7 68,-30.8 68.6,-29.7C69.3,-28.9 69.5,-27.3 70.1,-26.7L71.9,-24.7C71.9,-24.7 72.3,-24.1 72.3,-23.8L72.5,-23.2C72.5,-23 73.4,-22.1 73.4,-21.9L75.1,-18.2C75.8,-17.1 76.4,-16.4 76.9,-15.1L77.1,-14.3C77.3,-14 78,-12.5 78.2,-12.3C79.3,-13.2 79.3,-14 79.7,-15.1C79.7,-15.1 79.9,-15.6 79.9,-15.8C79.9,-16 80.1,-16.7 80.1,-16.7L80.1,-18.6C80.1,-22.8 79.5,-23.6 77.3,-26.7C77.1,-27.1 76.2,-28.2 76,-28.4C76,-28.6 74.9,-29.3 74.9,-29.5L74.5,-30.4C74.5,-30.4 73.8,-31.3 73.6,-31.5C73.2,-32.1 71.2,-33 71,-33.7L70.8,-34.5C69.9,-36.3 68.6,-36.9 67.3,-38C67.3,-38 65.8,-39.5 65.1,-40C64.9,-40.2 64.9,-40.2 64.9,-40.4C64.9,-41.9 66.4,-44.3 67.1,-45.8L67.3,-46.3C67.3,-46.5 68.4,-48 68.4,-48.2L68.6,-48.7C69,-49.8 69.5,-51.1 70.1,-52.2C70.1,-52.4 71.2,-53.3 71.2,-53.5L71.2,-54.3C71.2,-54.3 71.7,-55.4 71.9,-55.9L72.3,-56.7C72.7,-57.6 72.7,-58 73.2,-58.9C73.8,-60 75.4,-59.1 75.4,-60.9L75.1,-61.5C73,-63.7 70.6,-66.3 68.6,-68.7C68.6,-68.9 67.7,-69.8 67.7,-70C67.5,-70.2 67.1,-70.7 67.1,-70.7L66.9,-70.7C66,-70.7 66,-69.6 66,-69.2C66,-67.4 66.4,-65.9 66.4,-64.4L66.4,-62.6L66.2,-62C66,-60.2 66,-58.9 65.6,-57.2C65.6,-57 64.7,-55.7 64.7,-55.4L64.5,-54.8L63.8,-53.9L63.8,-52.6C63.8,-52.4 63.4,-50.6 63.4,-50.4C63.2,-49.1 63.4,-48.2 62.9,-46.9C62.7,-46.5 62.1,-44.1 61.9,-43.7C61.6,-43.2 61.4,-43.2 61.2,-43.2L61,-43.2C60.8,-43.5 59.2,-44.5 59,-44.8L58.4,-45.2C57.5,-45.8 57.1,-46.3 56.2,-46.9L55.1,-47.6C54.2,-48.2 52.7,-50.2 51.6,-50.6L50.5,-51.1C48.6,-52.2 48.6,-53.5 46,-53.5L46,-53L47.7,-51.3L48.1,-51.1C48.4,-50.9 49,-50.4 49,-50.4C51.4,-48 53.8,-45.6 56,-43L56.8,-41.9L57.1,-41.5C57.7,-40.6 58.8,-40.4 59.2,-39.5C59.2,-39.5 59.7,-38.2 59.9,-37.8L59.9,-37.6C58.6,-35.8 57.7,-33.9 56.6,-31.9C56.2,-31 56,-30.2 55.5,-29.5C54.9,-28.4 53.8,-27.3 53.1,-26.2C52.1,-24.3 51.2,-22.5 50.1,-20.6C49.4,-19.5 48.1,-18.4 47.5,-17.3L46.8,-16.2L45.5,-14.7C45.5,-14.5 44.7,-13.4 44.7,-13.2L44,-12.5C42.7,-11 41.8,-9.5 40.3,-7.9ZM81.2,-18.6L81.2,-18.4L81.4,-18.2C82.5,-19.1 83,-20.6 83,-21.9C83,-22.1 83.2,-23.4 82.3,-23.4C82.1,-23.4 82.1,-23 82.1,-23C82.1,-22.3 82.3,-21.9 82.3,-21.5L82.3,-21L81.2,-18.6Z"></path><path transform="translate(300 100)" d="M31,-4.5C31,-4.3 31.2,-3.9 31.2,-3.9L31.7,-3.7C31.9,-3.4 32.8,-2.6 33,-2.4L33.6,-2.1C33.8,-1.9 34.9,-1.5 34.9,-1.5C35.2,-1.5 35.8,-0.4 36,-0.4L37.1,-0L38,0.7C39.1,1.3 39.9,2 41,2.7C41.9,3.3 42.8,3.7 43.6,4.4L45.6,6.1C45.6,6.1 46.5,6.6 46.7,6.8L47.6,7.2C47.8,7.4 48.9,8.5 49.3,9C50,9.6 50.4,10.7 51.3,10.9L51.5,10.9L52.1,10.7L52.6,10.5L53,10.7L53.9,10.7C54.1,10.7 55,10.3 55.2,10.1C56,9.4 55.8,9 56.5,8.1C56.5,7.9 57.3,7.2 57.3,7L57.8,6.4C58,5.7 59.3,2.4 59.5,1.8C59.5,1.6 59.7,1.1 59.7,1.1C60.6,-4.1 60.8,-10.2 60.8,-15.6L60.8,-16.1C60.8,-16.3 60.6,-17.4 60.6,-17.6C60.6,-18 60.2,-21.7 60.2,-22.2L60,-23C60,-23.9 60.8,-24.6 61.7,-24.6C62.4,-24.6 63,-24.4 63.4,-24.4L64.1,-24.4C64.3,-24.4 66.9,-24.8 67.1,-24.8C69.3,-25 71.5,-24.8 73.7,-25C76.7,-25.2 79.5,-25.7 82.6,-25.9L84.8,-25.9C85,-25.9 87.2,-26.3 87.4,-26.3L87.6,-26.3C88,-26.3 88.5,-26.1 88.9,-26.1C90.6,-26.1 92.8,-26.8 94.3,-26.8C95.4,-26.8 96.3,-26.5 97.4,-26.5C97.8,-26.5 98.5,-26.8 98.9,-27L98.9,-28.1C98.9,-30 97.4,-31.3 96.1,-32.9C95.6,-33.3 93.3,-35.7 92.8,-36.1C92.6,-36.3 92.2,-36.3 91.9,-36.3L91.5,-36.3C91.3,-36.3 90.6,-35.2 90.4,-35.2C90.2,-35.2 89.3,-34.4 89.1,-34.4C88.9,-34.4 88.3,-33.5 88,-33.5L87.2,-33.3C86.9,-33.3 84.6,-32.2 84.3,-32.2C84.1,-32 83,-31.8 83,-31.8C82.8,-31.8 80,-31.3 79.8,-31.3C79.3,-31.3 76.5,-30.5 76.1,-30.5C73.5,-30 70.8,-30.2 68.4,-29.4L63,-28.7C62.6,-28.5 61.7,-28.1 61,-28.1L60.8,-28.1C60.6,-28.1 60.4,-28.5 60.4,-28.5L60.4,-30.7C60.4,-30.9 59.5,-31.1 59.3,-31.5C59.3,-31.8 59.1,-32.6 59.1,-32.9C58.9,-33.7 58.2,-34.6 58,-35.5L57.8,-36.6C57.6,-37.2 56.9,-37.4 56.9,-38.1C56.9,-38.5 56.9,-38.5 57.3,-38.7C57.6,-38.7 58.4,-39.4 58.7,-39.4L59.1,-39.8C59.3,-39.8 60.2,-40.3 60.4,-40.3L63.2,-42.4L64.1,-42.9L64.7,-43.3C65,-43.3 65.6,-44.2 65.8,-44.2C66.5,-44.6 67.1,-44.6 68,-45.3C69.5,-46.4 71.1,-47.2 72.8,-48.1L76.3,-49.8C77.4,-50.3 80.4,-49.6 80.4,-50.5L80.4,-50.7C79.8,-52.9 78.7,-54 77.4,-55.7C77.4,-55.9 76.5,-56.8 76.5,-57L75.6,-57.9C75.6,-58.1 74.8,-59 74.8,-59.2L74.3,-59.6C74.1,-59.9 73,-60.7 72.8,-60.9L72.6,-60.9L72.4,-60.7L71.9,-59.9C71.9,-59.6 71.1,-58.8 71.1,-58.6C70.8,-58.1 70.8,-57 70,-57L68.7,-57L64.7,-56.4C64.3,-56.4 61.5,-55.9 61,-55.9C59.5,-55.7 58,-55.1 56.5,-54.9C56.3,-54.9 54.7,-54.6 54.5,-54.6C54.1,-54.6 51.5,-53.8 51,-53.8C50.8,-53.8 50.2,-53.5 50,-53.5C49.7,-53.5 48.4,-53.3 48.2,-53.3C46.9,-53.1 45.4,-52.7 44.1,-52.5C43.6,-52.5 40.2,-52 39.7,-52C39.5,-52 37.8,-51.6 37.5,-51.6C35.4,-51.4 33.6,-51.6 31.5,-50.9L20.8,-49.6C20.8,-49.6 19.9,-49.4 19.7,-49.2L19.5,-49C19.5,-48.8 19.7,-48.3 19.9,-48.3C20.1,-48.3 21,-47.7 21.2,-47.7C21.4,-47.4 23.2,-46.6 23.4,-46.4L23.8,-46.1C24.7,-45.5 25.6,-45 26.4,-44.4L26.9,-44.2L28.4,-44.2C28.6,-44.2 29.9,-44.8 30.1,-44.8L31.2,-44.8C31.5,-44.8 32.1,-45 32.3,-45C34.1,-45.5 35.6,-46.4 37.3,-46.6C37.5,-46.6 39.3,-46.8 39.5,-46.8C39.7,-46.8 40.4,-47.2 40.6,-47.2C41.5,-47.7 44.1,-48.5 44.3,-48.5C45.8,-49 47.3,-48.5 48.6,-49.4C49.3,-49.6 52.8,-50.3 53.4,-50.5C53.6,-50.5 54.5,-50.9 54.5,-50.9C54.7,-50.9 55.2,-51.1 55.2,-51.1C56.9,-51.6 59.1,-51.6 60.8,-52L65.2,-53.3C66.3,-53.8 67.1,-54.2 68.2,-54.2L68.7,-54.2C68.7,-54.2 69.1,-53.5 69.1,-53.3C69.1,-52.9 68,-51.6 67.6,-51.1L66.1,-49.4L65.4,-48.5L65.2,-48.3L64.3,-47.7C64.1,-47.4 63,-46.4 62.8,-46.1L61.9,-45L61.7,-44.8L60,-43.5C59.7,-43.3 57.8,-41.6 57.6,-41.3C57.3,-41.1 56.3,-40.7 56.3,-40.7L55.8,-40.9C55.2,-41.3 52.6,-43.7 51.9,-44.2C51.9,-44.2 50.4,-45 49.7,-45.3L49.1,-45.5C48.6,-45.7 48.2,-46.4 47.6,-46.4C47.3,-46.4 47.1,-45.9 47.1,-45.7C47.1,-44.8 48.6,-43.3 49.1,-42.7C49.3,-42.4 50.4,-41.6 50.4,-41.3C50.4,-41.1 51.5,-39.4 51.7,-38.7C51.7,-38.5 52.1,-37.9 52.1,-37.6L52.3,-36.8C52.3,-36.6 53,-35.7 53,-35.5C53.2,-34.6 53.2,-33.1 53.9,-32.2C53.9,-32 54.7,-31.3 54.7,-31.1C55.2,-30.5 55.6,-29.1 55.6,-28.1L55.2,-27.6C53.4,-27.8 51.9,-27.2 50.2,-27L48.4,-27L47.8,-26.8C47.3,-26.8 44.1,-26.3 43.6,-26.3L42.8,-26.1C42.6,-26.1 40.6,-25.9 40.2,-25.9L39.1,-25.9C38.6,-25.9 35.6,-25.2 35.2,-25.2C34.3,-25 29.9,-24.6 29.1,-24.6C28.4,-24.1 27.1,-24.4 26.4,-24.4C26.2,-24.4 25.1,-23.9 24.9,-23.9L23.2,-23.9C22.5,-23.9 18,-23.5 16.7,-23.3L12.3,-22.6L2.7,-22C2.5,-22 1.4,-21.5 1.2,-21.5C1,-21.5 1,-21.3 1,-21.1L1,-20.9C2.1,-19.3 3.4,-19.1 4.9,-18.3C5.8,-17.6 7.1,-16.3 8.4,-16.3L8.8,-16.3L9.7,-16.5C10.1,-16.5 13.4,-16.9 13.8,-16.9L14.5,-17.2C14.7,-17.2 15.3,-17.4 15.6,-17.4C18,-17.8 20.4,-18 22.7,-18.3C23.2,-18.9 24.5,-18.7 25.1,-18.9L33.2,-20C34.7,-20.2 36,-20.7 37.5,-20.9C38.9,-21.1 39.9,-21.1 41.2,-21.3C41.9,-21.5 43.9,-22 44.1,-22L46.5,-22C46.7,-22 47.8,-22.4 48,-22.4C48.4,-22.4 51.9,-22.8 52.3,-22.8L53,-23L53.6,-23C55,-23 55.2,-21.5 55.4,-20.4L55.4,-16.3C55.4,-12.4 55,-8.7 54.5,-4.8C54.5,-4.5 54.1,-2.6 54.1,-2.4C53.9,-1.3 53.9,1.8 51.9,1.8C51.7,1.8 51.5,1.8 51.3,1.3C48.6,1.1 46.3,-0 43.6,-0.6C43.4,-0.6 42.3,-0.8 42.1,-0.8C39.9,-1.3 38,-2.1 36,-2.8C35.8,-2.8 33.8,-3.4 33.6,-3.4C33.4,-3.4 32.1,-4.3 31.9,-4.3C31.9,-4.3 31.2,-4.5 31,-4.5ZM4.5,-49C4.5,-47.7 5.6,-47 6,-45.9C6.2,-45.5 6.6,-44.2 6.6,-44C6.9,-43.5 6.6,-42.9 7.1,-42.4C7.3,-42.2 7.7,-41.8 8.2,-41.6L8.4,-41.6L9.3,-42L10.1,-42.2C10.1,-42.2 11.2,-43.1 11.7,-43.5C12.1,-44 12.1,-44.4 12.3,-44.8C12.7,-45.7 13.4,-46.4 14,-47.2C14.9,-48.3 15.6,-49.8 16.2,-51.1C16.4,-51.4 16.9,-52.7 17.1,-52.9C17.5,-53.5 17.3,-54 17.5,-54.9C18,-56.6 18.8,-58.6 19.5,-60.3C19.5,-60.5 19.7,-60.7 19.9,-60.9L22.7,-60.9C23.2,-60.9 25.8,-61.6 26.2,-61.6L28.4,-61.6C28.6,-61.6 29.5,-62 29.7,-62C31.7,-62.5 33.6,-62.3 35.6,-62.5C36,-62.5 40.2,-63.3 40.6,-63.3L42.1,-63.3C44.3,-63.6 46.3,-63.6 48.4,-64C49.1,-64.2 51,-64.4 51.3,-64.4C51.7,-64.4 54.3,-64.7 54.7,-64.7C55,-64.7 55.8,-64.9 56,-64.9L57.6,-64.9L58.2,-65.1C58.4,-65.1 59.7,-65.3 60,-65.3C64.3,-65.5 68.7,-66 73,-66.4L73.7,-66.6C74.1,-66.6 76.5,-67 77.2,-67L78,-67C78.9,-67 82.4,-67.7 83,-67.7L83.7,-67.9L84.1,-67.9C85.2,-67.9 86.3,-67.5 86.3,-66.2C86.3,-64.7 84.8,-62.3 84.1,-60.7L83.9,-60.3C82.6,-58.3 81.7,-57 81.7,-54.6C82.2,-54.6 83.5,-55.1 83.9,-55.5L85.6,-57.2C85.9,-57.2 86.7,-57.9 86.9,-57.9L87.6,-58.6C87.8,-58.8 89.1,-59.4 89.3,-59.6L90.6,-60.9C91.9,-62 93.3,-62.7 94.6,-63.6C94.8,-63.6 95.2,-64 95.2,-64C96.1,-64.4 97.4,-64.9 97.4,-66C97.4,-66.2 97.4,-66.4 97.2,-66.6C96.1,-68.6 94.6,-70.1 93.3,-71.8C93,-72.3 91.9,-73.6 91.7,-73.8L90.2,-75.5L89.8,-76.4C89.6,-76.9 88.7,-77.3 88.3,-77.5C87.4,-77.5 87.4,-77.3 87.2,-76.9C86.9,-76.4 86.1,-75.1 85.9,-74.9C85.2,-74.2 84.8,-74 83.9,-73.6L83.2,-73.4C83,-73.4 81.3,-72.3 81.1,-72.3L79.5,-72.3L78.7,-71.8C78.5,-71.8 77.2,-71.6 76.9,-71.6C76.7,-71.6 75,-70.8 74.8,-70.8L72.8,-70.8C72.6,-70.8 71.9,-70.5 71.7,-70.5C71.5,-70.5 69.5,-70.3 69.3,-70.3C68.9,-70.3 67.1,-69.9 66.7,-69.9L66.1,-69.7L63.7,-69.7C63,-69.7 60.2,-69.2 59.5,-69.2L58.9,-69L57.3,-69C56.9,-69.2 56.9,-69.4 56.9,-69.9L56.9,-70.3C56.9,-70.8 57.3,-74.7 57.3,-75.1C57.3,-76 57.3,-77.1 57.8,-77.9C58.2,-79 59.7,-77.9 59.7,-80.3C59.7,-80.8 59.5,-81 59.3,-81.2C58.9,-81.6 57.3,-82.7 57.3,-82.7C57.1,-82.7 55.8,-83.6 55.6,-83.6C53.4,-84.9 51.3,-86.2 48.9,-86.9L48.4,-86.9C47.8,-86.9 46.5,-86.9 46.3,-86.4C46.9,-86.2 47.1,-85.6 47.6,-85.1L48.4,-84.7L48.6,-84.5C48.9,-84 49.7,-83.2 49.7,-82.9C50.8,-81 50.8,-79.2 51,-77.1C51,-76.6 51.7,-73.4 51.7,-72.9L51.7,-72.7C51.7,-71.4 51,-69.7 51,-68.4L50.8,-68.1L48.4,-68.1C47.1,-68.1 43,-67.7 42.3,-67.7C41.9,-67.7 39.3,-67 38.9,-67C38.6,-67 35.8,-66.8 34.7,-66.8C33.8,-66.8 33.4,-67 32.5,-66.6C31.5,-66.6 26.4,-66.2 25.4,-66C24.7,-66 22.3,-65.5 21.7,-65.3C21.4,-65.1 21.2,-65.1 21,-65.1L20.8,-65.1C20.6,-65.1 20.1,-65.7 19.9,-66C19.5,-66.6 19.7,-67.7 19.7,-68.1C19.7,-68.4 19.5,-69.4 19.5,-69.7C19.3,-70.5 17.7,-75.1 17.3,-76C17.3,-76.2 16.2,-78.2 16.2,-78.4C16.2,-78.6 16,-79.7 16,-79.9C16,-80.3 15.8,-80.3 15.6,-80.3C14.9,-80.3 14.3,-79.5 14.3,-78.8C14.3,-77.9 14.7,-76.9 14.7,-76.2C15.1,-73.1 15.6,-69.9 15.6,-66.8L15.6,-64.9C14.7,-63.6 14.9,-61.8 14.5,-60.5C14.5,-60.3 13.8,-59.4 13.8,-59.2C13.8,-59 13.6,-57.9 13.6,-57.7C13.4,-57 12.7,-56.4 12.3,-55.7L8.4,-51.8C6.9,-51.1 5.6,-50.3 4.5,-49.2L4.5,-49ZM29.1,-5.6C29.1,-4.8 29.9,-4.3 30.4,-4.3C30.4,-5 29.5,-5.4 29.1,-5.6ZM97.6,-27.2C97.8,-27.2 98,-27.2 98,-27L97.8,-26.8C97.6,-26.8 97.6,-27 97.6,-27.2ZM81.5,-54.2L81.5,-54L81.7,-54L81.5,-54.2Z"></path><path transform="translate(400 100)" d="M68.1,1C68.1,1.4 68.7,2.3 68.7,2.7L68.7,3.6C69,4.2 69.4,4.7 69.6,5.1L70,6C70.3,6.2 71.6,7.5 71.8,7.7C72.9,9 74,11.6 76.1,11.6C76.8,11.6 77.9,11.2 78.3,10.6L78.3,9.5C78.3,7.5 78.1,5.5 77.9,3.6L77.7,2.7L77.7,-1L77.4,-1.9L77.4,-6C77.7,-6.4 77.7,-6.7 77.7,-7.1L77.7,-7.7C77.7,-8 77.4,-9.3 77.4,-9.5L77.4,-14.1C77.4,-14.5 77,-17.8 77,-18.2L77,-18.6C77,-19.1 77,-19.3 77.2,-19.7L77.2,-21.7C77.2,-25.2 77.2,-28.7 76.8,-32.1L76.8,-32.4C76.8,-32.8 77,-33 77,-33.7L77,-34.3C77,-34.5 76.8,-36.7 76.8,-36.9L76.8,-41.9C76.6,-42.4 76.6,-42.6 76.6,-43.2C76.6,-45 79.6,-44.6 80.7,-45L81.1,-45.2C82,-45.2 83.1,-44.8 84,-45.6L89.4,-45.6C90.5,-46.3 91.8,-46.1 93.1,-46.1C93.3,-46.3 93.6,-46.3 93.8,-46.3L94,-46.3C94.2,-46.3 95.5,-45.6 95.7,-45.6L98.1,-45.6L98.3,-45.9L98.3,-46.5C98.3,-49.6 94.6,-53.5 92.7,-55.2L91.8,-55.2C91.6,-55.2 90.9,-54.1 90.7,-54.1L89.9,-53.7C89.6,-53.7 89,-52.8 88.8,-52.8L88.3,-52.6L87.7,-52.4L82,-50.4C81.8,-50.4 81.1,-50 80.9,-50C80.7,-50 79,-49.8 78.8,-49.8L78.3,-49.6L77.7,-49.6C77.4,-49.6 77.2,-49.3 77,-49.8C77,-50 76.8,-50.4 76.8,-50.7L76.8,-54.4C76.8,-59.6 77,-65 77,-70.3C77.4,-71.3 77,-72.4 77.4,-73.5L77.7,-74C77.7,-74.2 78.1,-75.1 78.1,-75.3C78.5,-76.1 80.7,-76.4 80.7,-77.4L80.7,-77.9L80.1,-78.5C79.8,-78.8 78.1,-79.8 77.7,-80.3C77.4,-80.5 76.6,-80.9 76.4,-81.1C76.1,-81.4 75.3,-81.8 75.3,-81.8L74.2,-82C74,-82 73.3,-83.1 73.1,-83.1C72.7,-83.3 71.1,-84.9 70.7,-85.1C70,-85.7 69,-86.4 68.1,-86.8C67.7,-87 67,-87 66.3,-87L65.9,-87C65.7,-87 65.3,-86.4 65,-86.2L65,-85.7C65,-85.5 65.5,-84.9 65.5,-84.9C65.7,-84.6 67.4,-82.9 67.7,-82.7C67.9,-82.5 68.5,-80.7 68.7,-80.3L68.7,-79.4C68.7,-79.2 69.4,-77.4 69.4,-77.2C69.4,-76.8 69.6,-75.3 69.6,-74.8L70,-74.2C70,-73.7 70.3,-71.8 70.3,-71.3C70.3,-71.1 70.7,-70.7 70.7,-70.5L70.7,-65.5C71.1,-64.6 71.1,-64.2 71.1,-63.1C71.1,-61.5 70.9,-60 70.9,-58.5L70.9,-57L71.1,-56.1L71.1,-54.1C71.1,-53.9 71.4,-53.1 71.4,-52.8C71.4,-52.6 71.1,-51.3 71.1,-51.1L71.1,-50.4L71.4,-49.6C71.4,-49.3 71.1,-49.1 70.9,-48.9C70.7,-48.9 69.2,-48.5 69,-48.5C68.7,-48.5 67.9,-48.3 67.7,-48.3C66.6,-48.3 65.7,-48.3 64.6,-48C63.9,-48 63.5,-47.4 62.9,-47.2C62.6,-47.2 62,-47 62,-47L58.9,-47C56.3,-46.7 53.9,-46.3 51.3,-45.6C51.1,-45.6 50.2,-45.4 50,-45.4L49.4,-45L48.3,-45C48.1,-45 46.8,-44.8 46.5,-44.8C46.3,-44.8 46.3,-44.6 46.3,-44.3C46.3,-43.5 47.2,-43.5 47.8,-43L48.5,-42.6C48.7,-42.4 49.6,-41.9 49.6,-41.9C49.8,-41.9 50.7,-41.5 50.9,-41.5L52.4,-40.2L52.8,-40.2C53.9,-40.2 55,-41.1 56.1,-41.3L57,-41.3C57.2,-41.3 59.4,-42.2 59.6,-42.2C59.8,-42.2 61.6,-42.6 61.8,-42.6L62.6,-43L63.9,-43C64.6,-43 67,-43.5 67.7,-43.5C68.3,-44.1 69,-43.9 69.8,-43.9L70.9,-43.9C71.8,-43.5 71.6,-42.2 71.6,-41.5C71.6,-38.9 71.1,-36.5 71.1,-33.9L71.1,-28.2C71.4,-27.6 71.4,-27.3 71.4,-26.9L71.4,-26.5C71.4,-26.3 71.1,-24.3 71.1,-24.1L71.1,-18.9C70.9,-18.4 70.9,-18.2 70.9,-18C70.9,-16.9 71.4,-16 71.4,-15.1C71.4,-14.1 70.9,-13.2 70.9,-12.1L70.9,-6.7C71.4,-5.6 71.4,-4.7 71.4,-3.6L71.4,-2.3L71.1,-1.9C70.9,-1.6 69.6,-0.3 69.4,-0.1C69,0.1 68.1,0.1 68.1,1ZM12.4,1.6C12.4,2.1 12.4,2.3 12.6,2.7C12.8,3.1 13.4,4.7 13.7,4.9C13.9,5.1 15.2,7.5 15.4,7.7L15.6,8.2L15.8,9.2C16.1,9.5 16.5,10.1 16.7,10.1L17.4,10.1C22.2,10.1 20.8,4.5 21.5,4.2C21.7,4.2 22.4,4 22.6,4L24.3,4C24.5,4 25.2,3.6 25.4,3.6C25.6,3.6 26.5,3.4 26.7,3.4C26.9,3.4 28.2,2.7 28.5,2.7C28.9,2.7 32,2.3 32.4,2.3C32.6,2.3 33.7,1.6 33.9,1.6C34.1,1.6 35.4,1.2 35.9,1.2C36.1,1.2 37.8,1 38,1L38.9,0.5C39.1,0.5 39.8,0.3 40,0.3C40.2,0.3 42.6,0.1 42.8,0.1L43.5,-0.1C43.7,-0.1 45.2,-0.3 45.7,-0.3L46.1,-0.3C46.5,-0.3 46.8,-0.6 46.8,-1L46.8,-1.2C46.5,-1.4 45.2,-2.7 45,-3C44.8,-3 43.9,-3.6 43.7,-3.6L42.8,-4.3C42.2,-4.5 42,-4.5 41.3,-4.9C41.1,-5.1 40.7,-5.3 40.7,-5.3L39.6,-5.6C39.6,-5.6 39.4,-6.2 39.4,-6.4L39.4,-6.7C39.4,-6.9 40.2,-9.7 40.2,-9.9C40.2,-10.1 40.4,-11.2 40.4,-11.4C40.4,-11.4 40.7,-12.3 40.9,-12.5L41.1,-13C41.5,-14.5 42.2,-15.8 42.2,-17.5L42.2,-18L42,-18.6C42,-18.6 42.2,-19.1 42.4,-19.1L43.3,-19.5C43.5,-19.5 44.1,-20.6 44.4,-20.6C44.4,-20.6 45,-21 45.2,-21L45.9,-21.2C46.1,-21.2 46.8,-22.1 47,-22.1C47.2,-22.1 48.1,-22.6 48.3,-22.6L48.3,-23.2C48.3,-23.2 47,-24.7 46.5,-25.2L45.4,-26L45,-26.5C45,-26.5 44.6,-27.3 44.4,-27.6L43.9,-28.4L42,-30.8L41.5,-31.7C41.5,-31.9 40.9,-32.4 40.7,-32.6C39.8,-32.6 40,-31.9 39.8,-31.3C38.7,-29.1 37,-27.3 35.2,-25.6C34.6,-25 33,-25.2 32.2,-25C31.1,-24.7 30,-24.1 28.9,-23.9L27.8,-23.6L26.9,-23.2C26.7,-23.2 25.9,-23 25.6,-23L24.5,-23C22.8,-22.6 21.3,-21.5 19.5,-21.2C18.7,-21 17.6,-21 16.7,-21C16.3,-21 16.1,-20.8 15.8,-21.2C15.8,-21.5 15.4,-22.3 15.4,-22.6C15,-23.4 14.3,-24.3 13.9,-25.2C13.4,-25.8 12.4,-27.3 12.4,-27.3C12.4,-27.3 11.3,-28 11.1,-28L10.8,-28.2C10.4,-29.1 9.7,-30.6 8.7,-30.6C8.4,-30.6 8,-30.6 8,-30.2L8,-30C8,-29.7 8.9,-28.2 8.9,-28L9.1,-27.3C9.1,-27.1 10,-26.5 10,-26.3L10.2,-25.8C10.4,-25.4 10.8,-24.3 10.8,-24.3C11.1,-23.9 11.7,-21.5 11.9,-21C12.4,-20.6 13,-19.9 13,-19.3L13,-16.9L13.2,-16.2C13.2,-16 13.4,-13.8 13.4,-13.6C13.4,-13.4 13.9,-12.3 13.9,-12.1C13.9,-11.9 14.1,-10.4 14.1,-10.1C14.1,-9.9 14.5,-7.5 14.8,-6.9L15,-6L15,-5.8C15,-5.6 14.5,-4.5 14.5,-4.3L14.5,-2.5C14.5,-2.3 14.3,-1.6 14.3,-1.4C13.9,-0.1 12.4,0.3 12.4,1.6ZM1.7,-60C1.7,-59.1 2.3,-59.1 3,-58.7C4.3,-58.1 6.5,-56.1 8,-56.1C8.9,-56.1 10.6,-56.5 11.5,-56.8L12.4,-57.2C13.4,-57.4 14.8,-57.4 15.8,-57.6C16.1,-57.6 17.1,-58.1 17.4,-58.1C18.9,-58.5 20.4,-58.5 21.9,-58.9C23,-59.1 24.1,-59.8 25.2,-60L26.3,-60L26.9,-60.2L28,-60.5L28.9,-60.9C29.1,-60.9 30.6,-61.3 31.1,-61.3L32.2,-61.3C33.3,-61.5 34.1,-62 35.2,-62.2C35.4,-62.2 36.7,-62.4 37,-62.4C37.2,-62.4 38.3,-63.1 38.5,-63.1L39.8,-63.1C39.8,-63.1 40.7,-63.3 40.9,-63.3C41.5,-63.5 42.2,-63.9 42.8,-63.9C43.7,-63.9 44.6,-63.7 45.7,-63.7C47,-63.7 48.1,-64.2 49.4,-64.2C50.2,-64.2 53.7,-64.4 54.6,-64.4L54.6,-64.6C54.6,-65 53.7,-66.1 53.3,-66.6L52,-68.1L51.5,-68.7C51.3,-69 50.7,-69.6 50.5,-69.8C50,-70.3 48.7,-70.7 47.8,-70.7C46.8,-70.7 46.1,-69.4 45,-69.2L43.9,-69C42.6,-68.5 42,-67.6 40.7,-67.4L38.9,-67.4C38.5,-67 38,-66.6 37.6,-66.6C37,-66.6 37,-66.8 37,-67.4L37,-68.1L37.2,-68.7L37.2,-70C37.2,-70.7 37.4,-72.9 37.4,-73.1L37.6,-74C37.8,-75.1 37.8,-76.6 37.8,-77.7C37.8,-78.3 37.4,-78.5 37.4,-79C37.6,-79 37.8,-79.2 37.8,-79.2L38.3,-78.5L38.7,-78.5C39.4,-79.2 40.9,-80.1 40.9,-81.1C40.9,-82.2 39.4,-82.7 38.7,-83.1C38.5,-83.1 37.4,-84.2 37.2,-84.2L36.3,-84.4C36.1,-84.4 35.2,-85.5 35,-85.7C34.6,-86.2 33.3,-87 33,-87C33,-87 30.9,-87.2 30,-87.5L29.8,-87.5L29.3,-87L29.3,-86.8C29.3,-86.8 29.8,-86.4 30,-86.2L31.1,-85.3C31.7,-84.9 32.2,-83.3 32.4,-82.7C32.4,-80.5 32.6,-78.5 32.6,-76.4C32.6,-74 32.4,-71.8 32.4,-69.6L32.4,-67.9C32.6,-67.6 32.6,-67.2 32.6,-66.8C32.6,-66.1 31.5,-65 30.9,-65L29.1,-65C28.9,-65 28,-64.8 27.8,-64.8L26.9,-64.4L25,-64.4L24.5,-64.2L23.9,-63.7C22.4,-63.7 20,-63.9 18.5,-63.1C15.2,-62.9 11.5,-63.3 8.4,-62L4.5,-62C3.2,-62 1.7,-61.5 1.7,-60ZM18.2,-14.9L18.2,-16L18.7,-16.5L19.1,-16.7C20.6,-17.5 21.5,-18 23.2,-18.2L24.1,-18.2C24.3,-18.2 25.2,-18.9 25.4,-18.9C25.6,-18.9 27.6,-19.3 27.8,-19.3C28,-19.3 28.7,-19.7 28.9,-19.7L32,-20.4C33.3,-20.8 34.6,-21.5 36.1,-21.5C36.1,-21.5 36.7,-21.7 36.7,-21.2L36.7,-17.3C36.7,-17.1 36.3,-14.9 36.3,-14.7C36.1,-13 36.1,-11 35.7,-9.3C35.7,-9.1 35,-7.1 35,-6.9C35,-6.4 34.8,-4.3 34.8,-3.8L34.3,-3.4L33.9,-3.2L33.3,-2.5L31.7,-2.5L30.9,-2.1L28.9,-2.1L28.2,-1.9C28,-1.9 26.7,-1.6 26.5,-1.6C26.3,-1.6 25.6,-1.2 25.4,-1.2C25.2,-1.2 23.9,-1 23.7,-1L22.8,-0.6L21.9,-0.6C19.8,-0.6 20.6,-2.7 20.2,-4C20.2,-4.3 19.1,-6 19.1,-6.2L19.1,-8L18.9,-8.8L18.9,-9.7L18.7,-10.4C18.5,-11.9 18.2,-13.4 18.2,-14.9ZM7.6,-48.7C7.6,-47.8 13.2,-45.4 14.3,-45C14.5,-44.8 15.4,-44.6 15.4,-44.6L16.1,-45C17.8,-45.6 19.8,-45.4 21.5,-45.9L22.4,-46.3C22.8,-46.5 26.5,-47.6 27.6,-47.8C27.8,-47.8 28.5,-48 28.7,-48L29.6,-48C31.3,-48.3 33,-48.9 34.8,-49.3C35.7,-49.6 39.1,-50 40,-50.2C40.7,-50.7 41.7,-50.9 42.6,-51.1C43.3,-51.3 46.3,-51.7 47,-51.7C47.2,-51.7 47.8,-52.2 47.8,-52.2L47.8,-52.4C47.8,-53.3 46.1,-53.5 45.7,-54.1C45.7,-54.4 44.8,-55.4 44.8,-55.7C44.4,-56.3 42.6,-57.4 42.2,-57.4L41.7,-57.4L40.9,-56.8C39.8,-56.1 39.4,-55.9 38.7,-54.6C38.3,-54.6 38,-54.8 37.6,-54.8L37.4,-54.8C36.7,-54.6 34.8,-54.1 34.6,-54.1C34.3,-54.1 32.8,-53.3 32.6,-53.3C32.4,-53.3 31.5,-52.8 31.3,-52.8L30.2,-52.6C30,-52.6 29.3,-52 29.1,-52C28.9,-52 27.4,-51.7 27.2,-51.7C26.9,-51.7 24.3,-51.3 23.7,-51.1L22.8,-50.9L21.7,-50.9C21.5,-50.9 19.1,-50.2 18.5,-50L18,-49.8C17.6,-49.8 15.4,-49.6 15,-49.6L12.1,-49.6L11.5,-49.3C10.8,-49.3 8.2,-48.9 7.6,-48.9L7.6,-48.7ZM9.3,-35.8C9.3,-35 10.6,-34.3 11.3,-33.9C11.5,-33.9 12.1,-33 12.4,-33C12.6,-33 14.1,-32.8 14.3,-32.8C14.5,-32.8 15.8,-31.9 16.1,-31.9L16.3,-31.9C17.6,-31.9 18.7,-32.1 19.8,-32.6L20.6,-33C22.8,-33.7 25.2,-34.1 27.6,-34.5L28.2,-34.8C28.7,-34.8 31.3,-35 31.7,-35C31.7,-35 32.2,-35.2 32.4,-35.2L32.8,-35.4C33,-35.4 34.1,-35.8 34.3,-35.8C35,-36.1 38.5,-36.5 39.4,-36.7C41.3,-36.9 43.5,-37.4 45.4,-37.4L45.9,-37.6L45.9,-38C45.9,-39.3 44.4,-40.2 43.7,-41.1C43.7,-41.3 42.8,-42.2 42.8,-42.4C42.8,-42.4 42.4,-42.6 42.2,-42.8C42,-43 41.1,-43.5 41.1,-43.5L40.4,-43.5C39.8,-43.5 39.8,-43.5 39.1,-43C38.9,-42.8 37.6,-41.5 37.4,-41.5C37.2,-41.5 35.4,-41.1 35.2,-41.1L34.6,-40.6L34.1,-40.4C33,-40 32,-39.8 30.9,-39.5C30.6,-39.5 29.3,-39.1 29.1,-39.1C28.9,-39.1 27.4,-38.7 26.9,-38.7C26.9,-38.5 26.5,-38 26.3,-38C25.4,-38 24.8,-38.2 24.1,-38.2L23.7,-38.2C23.5,-38.2 22.8,-37.8 22.6,-37.8C21.7,-37.6 20.8,-38 20,-37.6L19.1,-36.9L18.9,-36.9C18.5,-36.9 18,-37.1 17.8,-37.1L17.6,-37.1C17.4,-37.1 15,-36.9 14.8,-36.9L12.8,-36.9C12.4,-36.9 10,-36.5 9.5,-36.5C9.3,-36.5 9.3,-36.1 9.3,-35.8ZM16.9,-2.5C18,-2.5 18.5,-2.1 18.5,-1C18.5,-0.8 18.7,-0.1 18.2,-0.1C16.9,-0.1 16.9,-1.9 16.9,-2.5ZM14.5,-18.9C14.5,-19.3 14.8,-19.5 15,-19.5C15.4,-19.5 15.6,-19.3 15.8,-18.9L15.6,-18.4L15.6,-18.2C15.8,-18 16.5,-18 16.5,-17.8C16.5,-17.3 16.1,-17.3 15.8,-17.3C15,-17.3 15.4,-17.5 15.2,-18L14.5,-18.9ZM72.7,-47.6C72.7,-47.8 72.9,-48.3 72.9,-48.5L73.3,-48.5C73.5,-48.3 74,-47.8 74,-47.6L73.5,-47C73.5,-46.7 73.3,-46.1 73.3,-45.9L73.1,-45.9C73.1,-45.9 72.7,-47.2 72.7,-47.6ZM41.1,-54.8C41.3,-55 41.7,-55.2 42,-55.2C42.2,-55.2 42.4,-55 42.4,-54.8C42.4,-54.6 42.4,-54.1 42.2,-54.1C42,-54.1 41.3,-54.6 41.1,-54.8ZM41.3,-25.2L42.4,-25.2C42.4,-24.7 42.2,-24.3 41.7,-24.1C41.3,-24.3 41.3,-24.7 41.3,-25.2ZM39.1,-19.9C39.1,-20.6 39.8,-20.4 40,-20.4C40,-20.2 40.2,-19.5 39.6,-19.5L39.1,-19.9ZM18,1.6C18.5,1.6 18.9,1.6 18.9,2.1C18.9,2.3 18.9,2.5 18.7,2.5C18.2,2.5 18,1.8 18,1.6ZM38.7,-18.2C38.7,-18.6 39.1,-18.6 39.4,-18.6C39.4,-18.4 39.6,-17.8 39.1,-17.8C38.7,-17.8 38.7,-18 38.7,-18.2ZM39.4,-27.1C39.4,-27.3 39.4,-27.6 39.6,-27.6C40,-27.3 40,-27.1 40,-26.9C40,-26.7 40,-26.5 39.8,-26.5C39.4,-26.7 39.4,-26.9 39.4,-27.1ZM24.1,-49.3C24.3,-49.3 25,-49.3 25,-49.1L25,-48.9L24.5,-48.5C24.3,-48.7 24.1,-49.1 24.1,-49.3ZM35.4,-72.9C35.4,-72.7 35.4,-71.8 35,-71.8C35,-72 35,-72.9 35.4,-72.9ZM17.4,-7.1L17.6,-7.3L17.8,-7.3L18,-6.9L17.8,-6.7L17.6,-6.7L17.4,-6.9L17.4,-7.1ZM47,-67.4L47.2,-67.6L47.4,-67.6L47.6,-67.2L47.4,-67L47.2,-67L47,-67.4ZM39.1,-22.8L39.1,-22.1L38.7,-22.1C38.7,-22.3 38.7,-22.8 39.1,-22.8ZM36.7,-24.5C37.2,-24.5 37.4,-24.5 37.4,-24.1C37,-24.1 36.7,-24.1 36.7,-24.5ZM42.4,-65.2L42.8,-65.2C42.8,-65 42.8,-64.8 42.6,-64.8C42.4,-64.8 42.4,-65 42.4,-65.2ZM37.4,-3.2L37.4,-2.5L37.2,-2.5C37.2,-2.7 37.2,-3.2 37.4,-3.2ZM19.8,-19.7L20.2,-20.2L20.2,-19.9L20,-19.5L19.8,-19.7ZM40,-26.3L40.2,-26.3L40.2,-25.8C40,-25.8 40,-26 40,-26.3ZM20,-35.8L20.2,-35.8L20.2,-35.4L20,-35.4L20,-35.8ZM39.1,-15.1C39.4,-15.1 39.4,-14.9 39.1,-14.9C38.9,-14.9 38.9,-15.1 39.1,-15.1ZM36.1,-79.4L36.3,-79.4L36.5,-79.2L36.1,-79.2L36.1,-79.4ZM21.1,1.4L21.3,1.6L21.1,1.6L21.1,1.4ZM35.7,-83.1L35.9,-83.1L35.7,-82.9L35.7,-83.1Z"></path><path transform="translate(500 100)" d="M37.8,-19.6L38.1,-19.4L38.1,-18.3C38.3,-17.4 39.4,-15.7 39.8,-14.8C40.9,-12.6 42,-10.4 43.5,-8.5C43.5,-8.3 44.6,-7.4 44.6,-7.2L48.3,-1.9L50.5,0.7C50.5,0.9 51.1,1.8 51.1,2C51.1,2.2 52.4,3.3 52.9,3.7L55,5.7C55.3,5.9 57.2,7.9 57.4,8.1C57.6,8.3 59.4,9.4 59.8,9.6C60.9,10.2 62,10.2 63.1,10.2C64.8,10.2 65.5,10.2 66.4,8.7C66.6,8.3 66.8,7.9 66.8,7.2L66.8,7C66.8,6.8 66.4,5.7 66.4,5.5C66.1,4.2 66.1,2.6 65.5,1.3C65.5,0.2 65.1,-4.3 65.1,-5.4C65.1,-5.9 64.4,-8.5 64.4,-8.9L64.4,-9.4C64.4,-9.8 64.6,-10.2 64.6,-10.9L64.4,-11.5L64.4,-12.6C64.4,-13.3 64.2,-15.9 64.2,-16.5C64,-16.8 63.7,-16.8 63.5,-16.8C63.1,-16.8 63.1,-16.8 62.9,-16.3C62.7,-14.4 62.4,-12.6 62.4,-10.7C62.4,-9.8 62.7,-8.9 62.7,-8.3C62.7,-6.3 62.4,-4.3 62.2,-2.6C62,-1.3 61.1,1.3 59.6,1.3C58.3,1.3 57.6,-0 56.8,-0.6L56.1,-0.9C55.3,-1.5 54.6,-2.4 53.9,-3.3L53.5,-3.9C53.5,-4.1 52.4,-4.8 52.4,-5C52.2,-5.2 51.6,-6.3 51.3,-6.5C50.9,-7.2 50,-7.8 49.6,-8.5C49.6,-8.7 48.7,-10 48.7,-10.2C47.6,-12 46.1,-13.3 45.5,-15.2L45.2,-16.3C45.2,-16.3 44.4,-17.2 44.1,-17.6L43.7,-18.1C43.3,-18.7 43.3,-19.8 42.8,-20.7L42.4,-21.3C42.4,-22 43.1,-22.4 43.3,-22.6C43.7,-22.9 45.5,-24.2 45.9,-24.4C46.1,-24.6 47.6,-25.3 47.9,-25.5L49.4,-27L49.8,-27.2L52.2,-29.2C52.4,-29.2 53.1,-29.8 53.3,-29.8L53.9,-30L54.8,-30.9C55.5,-31.6 57.6,-33.3 57.9,-33.3C58.3,-33.5 60.9,-34.6 61.6,-34.8L61.8,-35.1L61.8,-35.3C61.8,-35.5 61.1,-36.8 60.9,-37C60.9,-37.2 60.3,-37.9 60.3,-38.1C60.3,-38.3 59.8,-39.2 59.8,-39.4L58.7,-40.3C58.7,-40.5 58.5,-41.8 58.5,-42C58.3,-42.7 57.4,-44.9 57,-45.1C56.3,-44.6 56.6,-43.6 56.3,-43.1C56.3,-42.9 55.9,-41.6 55.9,-41.4C55.9,-41.2 55.7,-40.1 55.7,-39.8C55.5,-39.2 54.8,-39 54.4,-38.5L53.7,-37.5C53.5,-37.2 52.6,-36.6 52.4,-36.4L52,-35.7C51.8,-35.5 50.7,-34.2 50.2,-33.8C49.8,-33.1 48.9,-32.9 48.5,-32.2L48.1,-31.6L47.2,-31.1L46.5,-30.3L46.1,-29.8L44.6,-28.5C44.4,-28.3 43.3,-27.4 42.8,-27.2C42.4,-27 42,-26.3 41.5,-26.3C40.9,-26.3 40.4,-26.8 40.4,-27.2C40.4,-27.4 40.2,-28.7 40.2,-29C40.2,-29.4 39.8,-31.1 39.6,-31.6L39.1,-32.4C39.1,-32.7 38.7,-34 38.7,-34.4C38.7,-34.6 38.5,-36.4 38.5,-36.6C38.5,-37.2 38.1,-39.4 38.1,-39.6C37.6,-41.6 37,-43.3 37,-45.5C37,-46.2 37,-47 37.6,-47.3C40.4,-46.8 42.8,-49 45.7,-49.4C47.9,-49.9 50,-50.1 52.2,-50.5L52.6,-50.7C53.1,-51 54.4,-51.4 54.6,-51.4C54.6,-51.4 55.7,-51.6 55.9,-51.6C56.1,-51.6 57.4,-51.8 57.6,-51.8C59.2,-52 60.3,-52.3 61.8,-52.7L61.8,-52.9C61.8,-53.4 61.8,-53.4 61.4,-53.6L59.6,-55.1C58.7,-56 57.9,-57.7 56.6,-57.7C55.3,-57.7 54.2,-56.6 52.9,-56.4C52.6,-56.4 51.3,-56.2 51.1,-56.2L50.2,-55.8L49.4,-55.5C49.2,-55.5 48.7,-55.3 48.7,-55.3C48.5,-55.1 47.9,-54.4 47.6,-54.2L47.4,-54.2C47,-54.2 46.8,-54.4 46.3,-54.4L46.1,-54.4C45.9,-54.4 45.2,-54 45,-54L43.9,-54C43.3,-54 41.3,-53.6 41.1,-53.6L40.2,-53.1C39.1,-52.7 38.3,-52.3 37.2,-51.8C36.5,-51.8 36.1,-52.5 36.1,-52.9C36.1,-53.6 36.3,-54 36.3,-54.7L36.3,-54.9L36.1,-55.5C36.1,-55.8 35.9,-57.1 35.9,-57.3L35.9,-59.5C35.9,-59.7 35.7,-61.2 35.7,-61.6C35.7,-61.8 35.2,-63.8 35.2,-64C35.2,-64.2 35,-67.1 35,-67.3L34.8,-68.2C34.8,-68.6 34.6,-69.5 34.6,-69.5L34.8,-70.3L34.8,-70.8C34.8,-72.3 34.4,-73.8 34.4,-75.6L34.4,-76.7C34.8,-77.8 35.9,-78.6 35.9,-79.9C35.9,-80.4 35.2,-80.6 35,-80.8C34.6,-81 31.5,-82.5 31.1,-82.8L29.1,-83.8C28.5,-84.1 28.5,-84.3 27.8,-84.7C27.2,-85.2 26.5,-85.2 25.9,-85.6C25.2,-86 24.6,-86.5 23.7,-86.5C23.2,-86.5 22.8,-86.5 22.8,-86C22.8,-84.1 25,-83.8 25.9,-82.5C26.7,-81.2 26.7,-79.5 27.2,-78C27.2,-77.8 27.6,-77.1 27.6,-76.9C28.5,-73 28.7,-69 29.3,-65.1L29.6,-64.5C29.6,-64.2 29.8,-63.2 29.8,-62.9L29.8,-62.1C30.2,-59.2 31.1,-56.4 31.1,-53.6L31.1,-52.3C31.1,-52.3 30.9,-51.4 30.6,-51.2C30.4,-50.7 29.6,-50.7 29.1,-50.5C28.7,-50.3 28.3,-50.3 27.8,-50.1C27.8,-50.1 27.2,-49.2 26.9,-49.2C26.3,-48.8 25.2,-49 24.6,-48.8L24.3,-48.6L24.1,-48.6L23.2,-49L22.8,-49C22.8,-49 21.9,-48.8 21.7,-48.8C21.5,-48.8 19.8,-48.6 19.5,-48.6C18.9,-48.3 18,-48.1 17.4,-47.9C14.1,-47.3 10.6,-46.8 7.4,-46.6C6.9,-46.4 4.7,-46.2 4.7,-45.5C4.7,-44.4 10.2,-43.1 11.3,-42.9C12.4,-42.7 13.2,-41.8 14.3,-41.8C15.2,-41.8 15.8,-42 16.7,-42.2C16.9,-42.2 18,-42.5 18.2,-42.5C18.5,-42.5 19.1,-42.9 19.3,-42.9C21.5,-43.3 23.2,-43.6 25.2,-44.2C25.4,-44.2 27.6,-45.1 27.8,-45.1C28.5,-45.3 29.8,-45.7 30.6,-45.7L31.1,-45.7L31.7,-45.1C32.2,-44.4 31.7,-44 32,-43.1C32,-42.9 32.4,-42 32.4,-41.8C32.4,-41.6 32.8,-40.3 32.8,-40.1C33,-38.5 33.5,-37 33.7,-35.5C33.7,-35.3 33.9,-33.3 33.9,-33.1C33.9,-32.9 34.6,-32 34.6,-31.8L34.6,-31.1C34.6,-30.5 34.8,-29 34.8,-28.7C34.8,-28.7 35,-27.7 35.2,-27.2C35.4,-26.8 35.9,-25.5 35.9,-25.3C35.9,-25 36.5,-24.2 36.5,-23.9L36.5,-23.3C36.5,-21.8 35,-21.6 34.1,-20.9C33.9,-20.9 33,-19.8 32.8,-19.8L32,-19.4C30.6,-18.7 29.6,-17.8 28.3,-17L27.4,-16.5C26.3,-15.9 25.6,-14.8 24.6,-14.4C24.3,-14.4 23.5,-13.9 23.5,-13.9C23.2,-13.7 21.7,-12.8 21.5,-12.6C21.3,-12.4 20.4,-12 20.4,-12C19.5,-11.5 19.1,-11.5 18.5,-11.1L17.6,-10.4C16.9,-10 16.5,-10 15.8,-9.6C15.6,-9.6 15.2,-9.1 15.2,-9.1C15,-9.1 13.7,-8.3 13.4,-8.3L12.6,-7.6L11.1,-7L4.5,-3.7C4.1,-3.5 4.1,-2.8 4.1,-2.4C4.1,-1.9 3.9,-1.5 4.5,-1.5C5.8,-1.5 7.6,-2.8 8.7,-3.5C10.2,-4.3 11.9,-5 13.4,-5.7C14.1,-5.9 15,-6.1 15.6,-6.5C15.8,-6.5 17.4,-7.6 17.6,-7.6L21.5,-9.6C23,-10.4 24.6,-10.9 25.9,-11.8C26.1,-12 26.9,-12.4 26.9,-12.4C27.8,-12.8 29.1,-12.8 29.8,-13.5L31.3,-15L32,-15.2C32.2,-15.2 32.8,-15.7 32.8,-15.7L33.7,-16.3C33.9,-16.3 34.8,-17.2 35,-17.2C36.1,-17.8 36.7,-18.7 37.8,-19.6ZM75.9,0.4C75.9,0.7 76.2,0.9 76.4,1.1C76.6,1.1 77.5,1.8 77.7,1.8L80.7,3.5L81.4,3.9L81.8,4.2L82.5,4.4C82.7,4.4 83.6,5.5 83.8,5.5C85.7,6.8 87.7,7.6 89.4,9.2C89.7,9.2 90.3,10.2 90.5,10.2L91,10.5L92.3,10.5C93.4,10.5 93.6,10.5 94.4,10.2C94.7,10.2 94.9,10 94.9,10C94.9,9.8 95.3,8.9 95.3,8.7L95.8,7.9L95.8,7.6C95.8,7.2 95.5,4.4 95.5,3.9L95.5,1.5L95.3,0.9L95.3,-2.4L95.1,-2.8L95.1,-5.4C95.1,-5.9 94.7,-9.4 94.7,-9.8L94.7,-15.2C94.7,-15.7 94.4,-18.3 94.4,-18.7L94.4,-20.7L94.2,-21.3L94.2,-23.5C94.2,-23.7 94,-24.6 94,-24.6L94,-25L94.2,-25.9L94.2,-29.4L94,-30.3L94,-33.8C94,-34.4 93.8,-37 93.8,-37.7C93.8,-37.9 93.6,-39 93.6,-39.2L93.6,-39.4C93.6,-40.1 93.8,-40.5 93.8,-41.2L93.8,-41.4C93.8,-41.6 93.6,-42 93.6,-42.2L93.6,-61.6C93.4,-63.2 93.4,-64.9 93.4,-66.4L93.4,-69.3C93.4,-69.5 93.6,-70.1 93.6,-70.3L93.6,-74.5C94.2,-75.6 96,-75.1 96,-76.2C96,-77.5 94.7,-78.6 93.6,-79.1L92.9,-79.3L92.1,-79.9L91.6,-80.1L90.7,-80.4C90.7,-80.4 90.1,-80.8 89.9,-81L89.2,-81.7L88.1,-82.3C87.9,-82.5 86,-83.8 85.7,-84.1C85.5,-84.1 84.6,-84.7 84.4,-84.7L84,-85.4L83.6,-85.6C83.6,-84.5 83.8,-83.8 84,-83L86.6,-77.8C87.5,-75.6 87.7,-72.5 87.7,-70.3L87.7,-65.8C87.7,-65.6 87.9,-63.6 87.9,-63.4L87.9,-57.7C87.9,-57.5 88.3,-56.2 88.3,-56L88.3,-54.4L88.6,-53.8L88.6,-52C88.6,-51.8 88.8,-50.5 88.8,-50.3C88.8,-49.9 89.4,-49.4 89.4,-49C89.4,-48.3 89,-47.7 89,-47L89,-46.6C89,-46.2 89.2,-44.4 89.2,-44.2L89.4,-43.6L89.4,-34.2L89.7,-33.5L89.7,-30.3L89.9,-29.8C89.9,-28.7 89.4,-27.7 89.4,-26.8C89.4,-25.7 89.7,-24.8 89.7,-23.7C89.7,-23.1 89.2,-22.6 89.2,-21.8C89.2,-21.3 89.4,-20.9 89.4,-20.5L89.4,-20L89.2,-19.2L89.2,-17.2C89.2,-17 89,-16.1 89,-16.1L89,-15.7C89.2,-14.8 89.4,-14.1 89.4,-13.3L89.2,-12.4C89.2,-12.2 89.7,-11.5 89.7,-11.3L89.7,-11.1C89.7,-10.4 89.4,-10 89.4,-9.4L89.4,-9.1C89.4,-8.9 89.7,-8.5 89.7,-8.3C89.7,-7.4 89.9,-2.8 89.9,-1.9L89.9,-1.1L90.1,-0.2L90.1,0.7C90.1,1.3 90.1,1.5 89.7,2L88.8,2.4C88.3,3.3 89,4.2 87.7,4.2L87.3,4.2L86.4,3.5C86.2,3.5 84.2,3.1 84,3.1C83.1,2.8 81.4,2.6 80.7,2.2L80.1,1.8C78.8,1.1 77.5,0.4 75.9,0.4ZM70.5,-25.9C70.5,-25.3 71.1,-24.6 71.6,-24.2C71.8,-23.9 72.7,-22.2 72.9,-22L74.2,-20.7C74.9,-20 75.5,-18.3 76.6,-18.3C77.2,-18.3 77.7,-18.9 77.9,-19.6L77.9,-22.9C77.9,-23.3 77.5,-27.2 77.5,-27.7C77.5,-29.8 77,-39.8 77,-42C76.8,-43.1 77,-44 76.6,-45.1L76.6,-53.8C76.6,-55.5 77.9,-56.6 77.9,-58.4C77.9,-59.7 77,-59.7 76.2,-60.3C75.9,-60.5 74.4,-61.8 74.2,-62.1C73.1,-62.9 71.8,-63.8 70.7,-64.9C70.5,-64.9 69.8,-66 69.6,-66L69.2,-66C69,-66 68.5,-66 68.5,-65.8C68.5,-65.6 68.8,-64 68.8,-63.8C68.8,-63.2 69.4,-62.7 69.6,-62.3C69.8,-61.6 70.7,-59.7 70.7,-59.5C70.7,-59.2 70.9,-58.1 70.9,-57.9C71.1,-57.3 71.6,-57.1 71.8,-56.4C72.2,-54.4 72,-53.6 72.2,-51.6C72.5,-49.9 72.7,-48.1 72.7,-46.2L72.5,-45.5L72.5,-45.1L72.7,-44.4C73.1,-44.6 73.3,-44.6 73.5,-44.6C73.8,-44.6 74,-44.6 74,-44.2C74,-43.8 73.1,-43.3 72.7,-43.3L72.7,-40.7L72.9,-40.3L73.1,-39.4L73.5,-39L73.8,-38.5C72.9,-38.8 72.7,-38.1 72.5,-37.5C72.5,-34.8 72.5,-32.2 72.2,-29.6C71.8,-29.4 71.1,-28.7 70.9,-28.1C70.7,-27.4 70.5,-26.8 70.5,-25.9ZM40.9,-76.9L40.9,-76.7C41.1,-76.4 41.5,-75.8 41.8,-75.8L44.8,-73.6C46.8,-72.1 48.1,-70.1 50,-68.6L50.2,-68.4C51.6,-66.2 53.1,-64.5 54.8,-62.5C55.3,-62.1 55.3,-61.8 55.7,-61.8C55.9,-61.8 56.1,-61.8 56.1,-62.3C55.9,-65.1 56.6,-67.7 57,-70.6L57,-70.8C57,-71.2 56.1,-71.9 55.7,-72.1C55.3,-72.3 53.7,-73 53.5,-73C53.3,-73 52,-73.4 51.8,-73.4L51.1,-73.8C50.9,-73.8 49.4,-74.5 49.2,-74.5L48.3,-74.9C46.5,-75.6 44.6,-75.8 42.6,-76.4C42,-76.7 41.5,-76.9 40.9,-76.9ZM91.2,0.7C91.2,0.2 91.4,-0 91.4,-0.2L91.4,-0.4L90.7,-1.3L90.7,-1.5C90.7,-1.5 91.4,-2.6 91.6,-2.6L92.1,-2.4C92.1,-1.9 92.5,-0.4 92.5,-0L92.5,1.5C92.3,1.8 92.1,2 91.6,2L91.4,2C91.4,1.8 91.2,1.1 91.2,0.9L91.2,0.7ZM91,4.2C91,3.9 91.4,3.7 91.8,3.7C92.1,3.7 92.5,3.7 92.5,4.2C92.5,4.6 92.1,4.8 91.6,4.8C91.4,4.8 91,4.6 91,4.2ZM49.8,-3.3C49.8,-3.5 50.2,-3.7 50.5,-3.7C50.7,-3.7 51.1,-3.3 51.1,-3C51.1,-2.6 50.7,-2.6 50.5,-2.6C50.2,-2.6 49.8,-2.8 49.8,-3.3ZM73.5,-0.4C73.8,-0 74.4,0.4 74.9,0.4C75.1,0.4 75.3,0.4 75.3,0.2C75.1,-0.2 74.2,-0.4 73.8,-0.4L73.5,-0.4ZM92.3,7.2L92.5,7.2L92.7,7.4C92.7,8.1 92.1,7.9 91.8,7.9C91.8,7.6 92.1,7.4 92.3,7.2ZM89.4,-59.7C89.7,-60.1 89.9,-60.1 90.3,-60.1C90.3,-59.9 90.3,-59.5 89.9,-59.5C89.7,-59.5 89.4,-59.5 89.4,-59.7ZM74,-40.9C74,-41.2 74.2,-41.2 74.4,-41.2L74.6,-41.2C74.6,-40.9 74.4,-40.7 74.2,-40.5L74,-40.7L74,-40.9ZM37.4,-29.4C37.4,-29.6 37.4,-29.8 37.6,-29.8C37.8,-29.8 37.8,-29.6 37.8,-29.4C37.8,-29.2 37.8,-29 37.6,-29C37.4,-29 37.4,-29.2 37.4,-29.4ZM91,-51L91.2,-51L91.4,-50.7C91.4,-50.5 91.2,-50.5 91,-50.5L90.7,-50.5L91,-51ZM91,-37.9L91.2,-37.9L91.2,-37L91,-37L91,-37.9ZM92.3,-3.7C92.5,-3.7 92.7,-3.7 92.7,-3.5L92.5,-3.3C92.3,-3.3 92.3,-3.5 92.3,-3.7ZM90.7,-49.9L90.7,-49.4L90.5,-49.4C90.5,-49.7 90.5,-49.9 90.7,-49.9ZM31.5,-63.8C31.7,-63.8 31.7,-63.4 31.5,-63.4C31.3,-63.4 31.3,-63.8 31.5,-63.8ZM93.4,-2.4C93.6,-2.4 93.6,-2.2 93.4,-2.2C93.1,-2.2 93.1,-2.4 93.4,-2.4ZM31.7,-49.2L32,-49.2L32,-49L31.7,-49L31.7,-49.2ZM45.9,-52L46.1,-52L46.3,-51.8L45.9,-51.8L45.9,-52ZM91.4,-12C91.4,-11.8 91.2,-11.8 91.2,-12C91.2,-12.2 91.4,-12.2 91.4,-12ZM91.2,-35.3L91.4,-35.1L91.2,-35.1L91.2,-35.3Z"></path><path transform="translate(600 100)" d=""></path><path transform="translate(650 100)" d="M21.3,-64.3C17.5,-64.3 13.7,-64.4 10.3,-64.5C8.3,-64.6 7,-65 6.3,-65.9C5.5,-66.7 5.2,-67.1 4.6,-67.1C4.4,-67.1 3.8,-66.7 3.8,-66.4C3.6,-61.9 2,-55 1.9,-54C1.9,-53 2.1,-52.2 2.7,-52.2C3.3,-52.2 3.7,-52.8 4.6,-54.5C6.1,-57.9 7,-59.7 11.3,-60.4C14.2,-60.9 25,-60.7 29.1,-60.7C29.4,-60.7 29.6,-60 29.6,-59.4L29.6,-46.2C29.6,-34.9 28.9,-18.5 28.4,-11.1C28.1,-6.2 27.5,-3.1 20.5,-2C19.1,-1.8 18.2,-1.4 18.2,-0.6C18.2,-0 19.2,0.4 20.7,0.4C23,0.4 26.1,-0 30.7,-0C34.5,-0 42,0.3 44.8,0.3C46.7,0.3 47.3,-0.1 47.3,-0.6C47.3,-1.3 46.7,-1.7 45.3,-2C37.9,-3.6 37.7,-4.6 37.6,-13.6L37.6,-41.6C37.6,-47 37.6,-54.5 37.8,-59.6C37.8,-60 38.5,-60.7 38.9,-60.7C47.4,-60.7 56.3,-60.3 58.4,-60C61.3,-59.6 61.8,-57.3 62.5,-54.4C63,-52.5 63.3,-51.5 64,-51.5C64.3,-51.5 64.8,-51.9 64.9,-53.5C65.2,-57.7 65.6,-61.6 66.5,-65.3C66.7,-66.1 66.2,-66.8 65.9,-66.8C65.5,-66.8 65.2,-66.5 64.7,-66C63.6,-64.6 60.7,-64.3 47.1,-64.3L21.3,-64.3Z"></path><path transform="translate(718 100)" d="M28.9,-40.4C23.9,-40.4 19.5,-37.7 15.2,-34C15.1,-33.8 14.8,-34 14.8,-34.2C14.8,-53.8 14.9,-52.1 15.2,-68.7C15.2,-70.1 15.2,-71.4 14.6,-71.4C14,-71.4 13.2,-71.3 12,-71.1C10.1,-70.8 6.8,-70.3 5.4,-70C4.5,-69.7 3.9,-69.4 3.9,-69C3.9,-68.6 4,-68.3 5.1,-67.6C7.5,-66.1 7.8,-65.5 7.8,-64.6C8,-62.6 7.9,-49.4 7.9,-29.6C7.9,-19 7.5,-12.5 7.3,-8.4C7.1,-4 6.6,-2.4 4.2,-1.8C2.3,-1.4 1.6,-1.1 1.6,-0.6C1.6,0.1 2.2,0.4 3.2,0.4C5.2,0.4 7.8,-0 10.7,-0C13.6,-0 15.8,0.4 18.4,0.4C20.2,0.4 20.8,-0 20.8,-0.7C20.8,-1.2 20.1,-1.4 18.8,-1.7C15.3,-2.5 15.1,-3.2 14.9,-7.3C14.7,-11.9 14.8,-23 15,-29.2C15,-30 15.4,-31.5 15.5,-31.7C17,-33.9 20.3,-36 24.8,-35.9C28.9,-35.8 31.4,-34.4 32.7,-31.6C33.3,-30.5 34.1,-27.1 34.1,-24.1L34.1,-7.6C34.1,-2.9 33.1,-2.4 30.4,-1.6C29.2,-1.3 28.7,-1 28.7,-0.6C28.7,0.1 29.6,0.3 30.9,0.3C32.7,0.3 34.4,-0 37.6,-0C40.3,-0 43,0.4 45.3,0.4C47.2,0.4 47.7,0.1 47.7,-0.4C47.7,-1.1 47.3,-1.3 45.6,-1.7C41.6,-2.6 41.6,-3.6 41.6,-8.9C41.6,-18.4 41.4,-24.4 41.1,-27.7C40.8,-31.9 39.6,-35.6 36.2,-38.2C35,-39.3 31.7,-40.4 28.9,-40.4Z"></path><path transform="translate(767 100)" d="M22.7,-40.2C18.8,-40.2 15.9,-39.3 13.9,-38C5.8,-33.2 3.5,-25.1 3.5,-18.3C3.5,-8 9.6,1.4 20.6,1.4C25.5,1.4 31.1,-1.2 35,-6.2C35.6,-6.9 36.4,-8.1 36.4,-9C36.4,-10.3 35.7,-10.2 35.1,-9.5C33.1,-6.7 30.9,-4.3 25.2,-4.3C16.2,-4.3 10,-13.8 10,-21.3C10,-23 10,-24.8 10.3,-25.4C10.5,-26 11,-26.7 11.5,-26.8C14.8,-27.2 24.8,-27.1 32,-26.8C33.7,-26.7 35,-27.5 35,-28.6C35,-35.3 30,-40.2 22.7,-40.2ZM21.5,-38.5C23.9,-38.5 27.8,-35.7 27.9,-32.1C28,-29.8 26.9,-29.2 24.4,-28.9C22,-28.9 15.7,-28.7 11.4,-28.7C11.1,-28.7 10.9,-29.2 10.9,-29.4C12.8,-35 17.3,-38.5 21.5,-38.5Z"></path><path transform="translate(805 100)" d=""></path><path transform="translate(855 100)" d="M2.2,-63.4C2.2,-62.8 3.1,-62.3 4.5,-62.1C9.2,-61.6 10.6,-59.5 10.8,-55C10.9,-45.6 10.9,-38.9 10.9,-34.3C10.9,-25.4 10.8,-16.5 10.8,-8.4C10.7,-4.3 9.2,-3.4 5,-2C4,-1.7 2.9,-1.5 2.9,-0.8C2.9,-0 3.9,0.2 5,0.2C8.7,0.2 12.2,-0 15.1,-0C19.3,-0 23.5,0.5 25.8,0.5C27,0.5 28.1,0.2 28.1,-0.4C28.1,-1 27.6,-1.5 25.8,-1.9C20.7,-3 19.7,-3.9 19.4,-10.4C19.2,-15.2 19.1,-21.9 19.1,-30.6C19.1,-45.1 19.1,-52.9 19.2,-57.2C19.2,-59.5 19.5,-60.8 19.9,-61.2C20.3,-61.6 21.2,-62.1 23,-62.1C32.7,-62.1 39.4,-55.6 39.4,-45.3C39.4,-36.2 34.5,-30.2 28.5,-30.2C27.7,-30.2 26.7,-30.3 26,-30.4C25.7,-30.5 25,-30.4 25,-30C25,-29.7 25.3,-29 26.1,-28.6C26.9,-28.1 28.6,-27.6 30.6,-27.6C34.4,-27.6 38.4,-29 40.8,-30.7C42.9,-32.2 47.9,-36.3 47.9,-46.1C47.9,-50.7 46,-56 41.2,-59.9C36.5,-63.8 30.3,-64.6 24.2,-64.6C19.4,-64.6 15.5,-64.3 13.6,-64.3L4.8,-64.3C2.9,-64.3 2.2,-63.8 2.2,-63.4Z"></path><path transform="translate(907 100)" d="M4.1,-35.6C4.1,-35.3 4.5,-35.1 4.9,-34.9C8.4,-33.1 8.1,-32.1 8.3,-29.8C8.6,-26.5 8.6,-21.9 8.6,-10.1C8.6,-5.2 8,-3.1 4.2,-2.1C2.5,-1.7 2,-1.2 2,-0.7C2,-0.2 2.7,0.3 4,0.3C5.6,0.3 8.7,-0 10.9,-0C14.4,-0 18.6,0.6 22.1,0.6C23.6,0.6 24.6,0.2 24.6,-0.3C24.6,-0.9 24,-1.4 22.4,-1.7C17.7,-2.6 16.5,-3.9 16.1,-6.4C15.5,-10.5 15.3,-22.7 15.6,-27.1C15.6,-27.3 15.9,-29.3 17,-30.8C18.1,-32.5 20.2,-34 21.7,-34C22.9,-34 24.2,-33.8 25.7,-32.8C26.6,-32.3 27.6,-31.8 28.1,-31.8C29.1,-31.8 32.1,-33.8 32.1,-37C32.1,-38.4 30.4,-40.3 27.8,-40.3C23.1,-40.3 18.5,-35 15.6,-31.8C15.4,-31.6 15.2,-31.9 15.2,-32C15.1,-32.9 15.5,-36.5 15.5,-39.7C15.5,-40.1 15.3,-40.9 14.9,-40.9C14.6,-40.9 14,-40.6 13.3,-40.2C12.4,-39.6 9.8,-38.5 5.9,-37.2C4.9,-36.8 4.1,-36.1 4.1,-35.6Z"></path><path transform="translate(939 100)" d="M23.6,-40.4C18.8,-40.4 13.3,-38 9.4,-34.1C5.6,-30.2 3.5,-24.8 3.5,-19.1C3.5,-7.4 12.8,1.4 24.6,1.4C27.6,1.4 31.7,0.1 35,-2.3C39.2,-5.3 44.3,-10.3 44.3,-20.2C44.3,-32.1 34.7,-40.4 23.6,-40.4ZM23,-38.1C31.1,-38.1 36,-27.1 36,-19.3C36,-13 34.3,-8.2 31.8,-4.9C29.4,-1.7 26,-0.9 24.9,-0.9C16.2,-0.9 11.6,-10.8 11.6,-20.2C11.6,-26.1 13.3,-30.7 15.2,-33.3C17.9,-37.3 20.4,-38.1 23,-38.1Z"></path><path transform="translate(987 100)" d="M11.6,-58.2C10.1,-58.2 7.3,-56.3 7.3,-53.7C7.3,-51.5 9.1,-49.3 11.6,-49.3C13.6,-49.3 15.7,-51.4 15.7,-54C15.7,-56.6 14,-58.2 11.6,-58.2ZM3.5,-36.1C3.5,-35.8 3.9,-35.3 4.3,-34.9C7.1,-33 7.6,-33.1 7.8,-29.1C8.1,-23 8.2,-13.5 8.2,-2.8C8.2,4.3 8.2,13.8 5,19.7C3.6,22.5 1.3,24.6 -1.6,25.8C-2.1,26.2 -2.3,26.4 -2.3,26.7C-2.3,27.1 -1,27.7 -0.6,27.7C-0.3,27.7 0.3,27.5 1.8,26.6C5,24.6 9.4,21.4 12.1,15.8C14.5,10.7 15.2,2.9 15.2,-2.9C15.3,-15.5 15.2,-28.2 15.5,-39.3C15.5,-40 15.1,-40.7 15,-40.7C14.9,-40.7 14.3,-40.6 13.6,-40.3C12.2,-39.7 8,-38.1 5.6,-37.3C4.7,-37 3.5,-36.5 3.5,-36.1Z"></path><path transform="translate(1010 100)" d="M22.7,-40.2C18.8,-40.2 15.9,-39.3 13.9,-38C5.8,-33.2 3.5,-25.1 3.5,-18.3C3.5,-8 9.6,1.4 20.6,1.4C25.5,1.4 31.1,-1.2 35,-6.2C35.6,-6.9 36.4,-8.1 36.4,-9C36.4,-10.3 35.7,-10.2 35.1,-9.5C33.1,-6.7 30.9,-4.3 25.2,-4.3C16.2,-4.3 10,-13.8 10,-21.3C10,-23 10,-24.8 10.3,-25.4C10.5,-26 11,-26.7 11.5,-26.8C14.8,-27.2 24.8,-27.1 32,-26.8C33.7,-26.7 35,-27.5 35,-28.6C35,-35.3 30,-40.2 22.7,-40.2ZM21.5,-38.5C23.9,-38.5 27.8,-35.7 27.9,-32.1C28,-29.8 26.9,-29.2 24.4,-28.9C22,-28.9 15.7,-28.7 11.4,-28.7C11.1,-28.7 10.9,-29.2 10.9,-29.4C12.8,-35 17.3,-38.5 21.5,-38.5Z"></path><path transform="translate(1048 100)" d="M25.9,-40.4C20.7,-40.4 15.3,-38 12.5,-36C7.1,-32.4 3.5,-26.8 3.5,-18.1C3.5,-13.8 5,-8.2 8.8,-4.3C11.9,-1.1 16,1.4 22.1,1.4C28.2,1.4 33.6,-1.1 37,-5C37.7,-5.7 38.7,-7.2 38.7,-8.4C38.7,-8.7 38.3,-9.2 37.9,-8.8C36.2,-6.9 33.5,-4 26.9,-4C15.8,-4 10.8,-14.8 10.8,-21.8C10.8,-26.6 12,-30.5 13.5,-32.5C15.3,-34.9 18.9,-38 22.4,-38C26.9,-38 29.8,-35.7 32.4,-33.4C33.1,-32.8 34.4,-31.6 35.1,-31.6C36.1,-31.6 37.2,-34.6 37.2,-35.7C37.2,-36.6 36.6,-37.6 36.2,-38C34.7,-39.2 30.5,-40.4 25.9,-40.4Z"></path><path transform="translate(1088 100)" d="M15.6,-38.5C15.3,-38.5 15.1,-39.1 15.1,-39.2C15.1,-39.7 15.2,-42.2 15.2,-43.2C15.2,-43.9 15,-44.6 14.7,-44.6C14.2,-44.6 13.6,-44.1 13.1,-43.6C11.4,-41.9 8.5,-39.3 5.9,-37.6C4.9,-37 3.7,-36.2 3.7,-35.4C3.7,-35.2 4.4,-34.6 4.8,-34.5L7.5,-33.7C7.9,-33.6 8.1,-33.1 8.1,-32.3C8.1,-27.7 7.8,-19.5 7.6,-11.7C7.6,-7.2 8,-4 10.5,-1.5C11.8,-0.1 14.8,1.4 18.4,1.4C21.2,1.4 24.7,0.4 26.5,-0.9C27.5,-1.7 29.3,-3 29.3,-4.5C29.3,-4.6 29,-5.1 28.8,-5.1C28.6,-5.1 28.2,-4.8 27.7,-4.5C26.2,-3.7 24.6,-3.2 22.8,-3.2C21.7,-3.2 18.7,-3.8 17.5,-5C15.9,-6.4 15.1,-9.1 15.1,-13.3L15,-33C15,-33.4 15.2,-33.9 15.4,-33.9C18,-33.9 27.4,-33.4 28.6,-33.4C29.2,-33.4 29.8,-34.4 29.8,-34.7C29.8,-36.5 29.3,-38.6 29,-38.6C29,-38.6 16.4,-38.5 15.6,-38.5Z"></path><path transform="translate(1118 100)" d=""></path><path transform="translate(1168 100)" d="M15.1,-64.3C11.7,-64.3 8,-64.6 5.2,-64.6C3.5,-64.6 2.4,-64.3 2.4,-63.6C2.4,-62.8 3.5,-62.6 4.4,-62.5C9.8,-61.9 10.4,-60.5 10.6,-55C10.8,-50.5 10.9,-43.1 10.9,-37.2C10.9,-26.5 10.8,-12.1 10.3,-8.3C9.7,-4 9.2,-2.9 3.8,-1.8C2.6,-1.4 2,-1.2 2,-0.6C2,-0.1 2.7,0.3 4.1,0.3C5.7,0.3 11.3,-0 15.2,-0C19.3,-0 23.6,0.3 25.5,0.3C26.5,0.3 27.7,-0.2 27.7,-0.8C27.7,-1.4 26.7,-1.9 25.4,-2.1C19.9,-3 19.6,-3.6 19.2,-8.7C19,-11.8 19,-19.5 19,-29.7C19,-30.8 19.5,-31.2 19.9,-31.2C27.8,-31.2 32,-31.1 35.1,-30.7C37.8,-30.4 38.3,-28.6 39,-25.8C39.3,-24.8 39.8,-23.8 40.4,-23.8C41.1,-23.8 41.5,-24.6 41.5,-26.4C41.5,-28.7 41.2,-30.3 41.1,-33.3C41,-35.7 41.5,-38.6 41.5,-40C41.5,-41.4 41.1,-42.1 40.6,-42.1C40.1,-42.1 39.5,-41.5 39.1,-40C38,-36.1 36.7,-35 31.8,-34.9C26.6,-34.9 22.2,-34.7 20.1,-34.7C19.2,-34.7 19,-35.4 19,-35.6C19,-43.4 19,-52.1 19.3,-59.5C19.4,-60.3 19.8,-61.3 20.6,-61.3C24.9,-61.3 31.4,-61.5 35,-61.2C40.6,-60.7 42.8,-60.1 44,-54.4C44.3,-53.1 44.5,-52.3 45.1,-52.3C45.4,-52.3 46.1,-53.1 46.1,-54.3C46.1,-57.2 45.9,-60.8 45.9,-63.6C45.9,-64.3 45.1,-64.9 44.9,-64.9C44.1,-64.9 40.9,-64.3 37.8,-64.3L15.1,-64.3Z"></path><path transform="translate(1218 100)" d="M23.6,-40.4C18.8,-40.4 13.3,-38 9.4,-34.1C5.6,-30.2 3.5,-24.8 3.5,-19.1C3.5,-7.4 12.8,1.4 24.6,1.4C27.6,1.4 31.7,0.1 35,-2.3C39.2,-5.3 44.3,-10.3 44.3,-20.2C44.3,-32.1 34.7,-40.4 23.6,-40.4ZM23,-38.1C31.1,-38.1 36,-27.1 36,-19.3C36,-13 34.3,-8.2 31.8,-4.9C29.4,-1.7 26,-0.9 24.9,-0.9C16.2,-0.9 11.6,-10.8 11.6,-20.2C11.6,-26.1 13.3,-30.7 15.2,-33.3C17.9,-37.3 20.4,-38.1 23,-38.1Z"></path><path transform="translate(1266 100)" d="M4.1,-35.6C4.1,-35.3 4.5,-35.1 4.9,-34.9C8.4,-33.1 8.1,-32.1 8.3,-29.8C8.6,-26.5 8.6,-21.9 8.6,-10.1C8.6,-5.2 8,-3.1 4.2,-2.1C2.5,-1.7 2,-1.2 2,-0.7C2,-0.2 2.7,0.3 4,0.3C5.6,0.3 8.7,-0 10.9,-0C14.4,-0 18.6,0.6 22.1,0.6C23.6,0.6 24.6,0.2 24.6,-0.3C24.6,-0.9 24,-1.4 22.4,-1.7C17.7,-2.6 16.5,-3.9 16.1,-6.4C15.5,-10.5 15.3,-22.7 15.6,-27.1C15.6,-27.3 15.9,-29.3 17,-30.8C18.1,-32.5 20.2,-34 21.7,-34C22.9,-34 24.2,-33.8 25.7,-32.8C26.6,-32.3 27.6,-31.8 28.1,-31.8C29.1,-31.8 32.1,-33.8 32.1,-37C32.1,-38.4 30.4,-40.3 27.8,-40.3C23.1,-40.3 18.5,-35 15.6,-31.8C15.4,-31.6 15.2,-31.9 15.2,-32C15.1,-32.9 15.5,-36.5 15.5,-39.7C15.5,-40.1 15.3,-40.9 14.9,-40.9C14.6,-40.9 14,-40.6 13.3,-40.2C12.4,-39.6 9.8,-38.5 5.9,-37.2C4.9,-36.8 4.1,-36.1 4.1,-35.6Z"></path><path transform="translate(1298 100)" d=""></path><path transform="translate(1348 100)" d="M-1,-63.8C-1,-63.2 0,-62.6 0.7,-62.4C4.6,-61.5 6.2,-60.3 9.3,-53.9C13.4,-45.1 22.5,-24.8 26.2,-15.6C30.2,-6.3 31.8,-1.3 32.4,0.1C32.8,0.9 33.2,1.8 33.8,1.8C34.6,1.8 35.4,0.5 35.6,-0.3C38.6,-9.6 44.5,-20.3 47.2,-27C47.5,-27.9 47.6,-27.4 47.9,-26.8C51.5,-18.2 56,-8.9 58.8,0.1C59.2,1.3 59.7,1.8 60.2,1.8C61,1.8 61.5,1.3 62.2,-0.2C64.9,-7.1 66,-9.6 72.7,-25.3C78.9,-40.4 83.2,-50.2 85.7,-54.6C88.6,-59.9 90.1,-61.3 94.3,-62.4C96.1,-62.9 96.3,-63.1 96.3,-63.8C96.3,-64.3 95.5,-64.5 94.3,-64.5C91.4,-64.5 88.3,-64.3 85.3,-64.3C83.5,-64.3 79.8,-64.5 77.6,-64.5C76.3,-64.5 75.5,-64.2 75.5,-63.6C75.5,-62.9 76.5,-62.7 77.6,-62.5C82.4,-61.4 83,-59.2 81.2,-54.2C76,-39.8 65,-15.5 63.9,-13C63.6,-12.4 63.3,-12.7 63.1,-13C60.7,-17 54.4,-30.9 52.7,-35.5C52.6,-35.8 52.5,-36.6 52.6,-37.1C53.2,-38.8 60.4,-53.4 61.3,-55C64.1,-60.2 65.5,-61.3 69.3,-62.4C71.1,-63 71.4,-63.4 71.4,-63.9C71.4,-64.3 70.5,-64.5 69.7,-64.5C68.1,-64.5 64.7,-64.3 61.8,-64.3C58.5,-64.3 55.9,-64.5 54.2,-64.5C52.7,-64.5 52.1,-64.1 52.1,-63.7C52.1,-63.2 52.8,-62.8 53.8,-62.6C58,-61.5 59.6,-60.5 57.3,-54.6C55.6,-50.4 52,-42.1 50.9,-40.7C50.7,-40.4 50.3,-40.2 50.2,-40.5C46.5,-49.1 43.9,-54.8 43,-57C41.5,-60.4 41.7,-61.2 45.6,-62.3C47.4,-62.8 47.9,-62.9 47.9,-63.6C47.9,-64.3 47.3,-64.5 46.2,-64.5C45.6,-64.5 41.6,-64.3 36.5,-64.3C33.3,-64.3 28.2,-64.5 26.9,-64.5C25.7,-64.5 25,-64.3 25,-63.8C25,-63.2 25.9,-62.7 26.8,-62.5C30.7,-61.6 32.5,-60.3 35.4,-54.1C36.6,-51.8 45.3,-33.1 45.6,-31.8C45.7,-31.3 45.6,-30.4 45.5,-30.4L37.7,-13.5C37.6,-13.3 37.2,-13 36.8,-13.6C35.4,-15.6 18.8,-52.8 16.8,-57.8C16,-59.8 16.2,-61.2 19.7,-62.1C22,-62.7 22.3,-63 22.3,-63.7C22.3,-64.3 21.2,-64.5 20,-64.5C18.9,-64.5 15.4,-64.3 10.9,-64.3C6.7,-64.3 2.1,-64.6 1.6,-64.6C-0.2,-64.6 -1,-64.3 -1,-63.8Z"></path><path transform="translate(1443 100)" d="M22.7,-40.2C18.8,-40.2 15.9,-39.3 13.9,-38C5.8,-33.2 3.5,-25.1 3.5,-18.3C3.5,-8 9.6,1.4 20.6,1.4C25.5,1.4 31.1,-1.2 35,-6.2C35.6,-6.9 36.4,-8.1 36.4,-9C36.4,-10.3 35.7,-10.2 35.1,-9.5C33.1,-6.7 30.9,-4.3 25.2,-4.3C16.2,-4.3 10,-13.8 10,-21.3C10,-23 10,-24.8 10.3,-25.4C10.5,-26 11,-26.7 11.5,-26.8C14.8,-27.2 24.8,-27.1 32,-26.8C33.7,-26.7 35,-27.5 35,-28.6C35,-35.3 30,-40.2 22.7,-40.2ZM21.5,-38.5C23.9,-38.5 27.8,-35.7 27.9,-32.1C28,-29.8 26.9,-29.2 24.4,-28.9C22,-28.9 15.7,-28.7 11.4,-28.7C11.1,-28.7 10.9,-29.2 10.9,-29.4C12.8,-35 17.3,-38.5 21.5,-38.5Z"></path><path transform="translate(1481 100)" d="M26.9,-40.1C22.4,-40.1 17.3,-37.8 15,-36.2C14.8,-36.1 14.4,-36.6 14.4,-36.8C14.4,-51.3 14.8,-67.3 14.8,-68.5C14.8,-70.1 14.7,-70.9 14.2,-70.9C13.9,-70.9 13.4,-70.7 12.6,-70.4C10.7,-69.6 8,-68.9 5.5,-68.4C4.5,-68.1 3.2,-67.7 3.2,-66.9C3.2,-66.6 3.6,-66.3 4.4,-65.7C6.7,-63.9 7,-63.4 7,-62.3C7.2,-58.1 7.5,-50.9 7.5,-39.1C7.5,-26.2 7.3,-12.9 7.3,-2.5C7.3,-0.9 7.6,0.1 8.1,0.1C8.6,0.1 9.3,-0.4 9.7,-1.1C10,-1.6 10.5,-1.6 11.3,-1.2C13.7,-0 17.8,1 21.8,1C25.7,1 30.4,0.3 35,-2.4C42,-6.4 45.6,-13.1 45.6,-20.9C45.6,-27.2 42.8,-32.6 38.5,-36.1C35.5,-38.7 30.5,-40.1 26.9,-40.1ZM22,-36.1C32.8,-36.1 37.5,-27.8 37.5,-18.4C37.5,-12.1 34.8,-6.5 31.7,-3.9C30,-2.5 27.2,-1.6 25.3,-1.6C21.2,-1.6 16.8,-4.7 15.5,-9.2C14.9,-11.6 14.4,-15.4 14.4,-21.2C14.4,-24.4 14.2,-29.2 14.7,-32.4C14.9,-33.9 15,-34.1 16,-34.8C16.9,-35.4 19.3,-36.1 22,-36.1Z"></path></svg>