<svg  xmlns="http://www.w3.org/2000/svg" xmlns:xlink="http://www.w3.org/1999/xlink" width="966" height="200" viewBox="0 0 990 224"><path transform="translate(0 100)" d="M45.7,-52.7L22.7,-51.3L24.4,-30.8L45.6,-31.8L45.7,-52.7ZM78.8,-54.6L53.5,-53.1L53.3,-32.1L76.6,-33.2L78.8,-54.6ZM53.3,-25.1L53.1,8.9Q53.1,12 50.5,12Q49.8,12 48.45,11.55Q47.1,11.1 45.95,10.1Q44.8,9.1 44.8,7.3Q44.8,7 44.85,6.85Q44.9,6.7 44.9,6.6Q45.4,3.4 45.4,0.4L45.5,-24.8L25,-23.9L25.2,-21.5L25.2,-21.2Q25.2,-18.7 22.7,-18.7Q21.4,-18.7 19.25,-19.7Q17.1,-20.7 17.1,-23.2L17.1,-24Q17.2,-24.9 17.25,-25.55Q17.3,-26.2 17.3,-26.9Q17.3,-27.7 17.25,-28.3Q17.2,-28.9 17.1,-29.6L15.3,-51.5Q15.2,-52.9 14.8,-54.25Q14.4,-55.6 13.6,-56.9Q12.8,-58.2 12.8,-59Q12.8,-60.4 14.5,-60.4Q15.5,-60.4 17.2,-59.9Q18.9,-59.4 21.6,-58.3L45.7,-59.8L45.8,-76.4Q45.8,-77.7 45.5,-78.6Q45.2,-79.5 44.8,-80.4Q44.3,-81.2 44.3,-82Q44.3,-83.4 46.2,-83.4Q46.5,-83.4 48.25,-83.1Q50,-82.8 51.8,-81.85Q53.6,-80.9 53.6,-78.8L53.5,-60.2L79.8,-61.8Q80.6,-61.9 81.15,-61.9Q81.7,-61.9 82.1,-61.9Q84.4,-61.9 85.6,-60.9Q86.8,-59.9 87.2,-58.8Q87.6,-57.7 87.6,-57.3Q87.6,-56.3 87.2,-55.65Q86.8,-55 86.7,-54.4L83.9,-33.1Q85.3,-31.6 86,-30.4Q86.7,-29.2 86.7,-28.4Q86.7,-27 85.45,-26.75Q84.2,-26.5 82.7,-26.4L53.3,-25.1Z"></path><path transform="translate(100 100)" d="M34.7,-53.4Q37.5,-47.5 41.85,-40.45Q46.2,-33.4 50.1,-28.9Q54.2,-34.3 57.95,-41.35Q61.7,-48.4 64,-55L34.7,-53.4ZM73.4,-55.5Q70.3,-47.3 65.35,-38.55Q60.4,-29.8 55.4,-23.5Q63.1,-16.2 72.9,-9.45Q82.7,-2.7 94.5,2Q96.3,2.7 96.3,3.8Q96.3,4.4 95.2,5.75Q94.1,7.1 92.6,8.25Q91.1,9.4 89.7,9.4Q89.3,9.4 89.05,9.35Q88.8,9.3 88.5,9.1Q77.6,3.9 67.95,-3Q58.3,-9.9 50.4,-17.7Q44.4,-11.4 37.3,-6.4Q30.2,-1.4 23.75,1.95Q17.3,5.3 12.75,6.95Q8.2,8.6 6.7,8.6Q4.9,8.6 4.9,7.3Q4.9,6 7.1,4.9Q14.4,1 21.55,-3.7Q28.7,-8.4 34.95,-13.45Q41.2,-18.5 45.2,-23.1Q41.9,-26.9 38.4,-32.2Q34.9,-37.5 31.9,-43Q28.9,-48.5 26.7,-52.9L18.6,-52.4Q17.6,-52.3 16.7,-52.25Q15.8,-52.2 15,-52.2Q13.4,-52.2 12.1,-52.75Q10.8,-53.3 9.4,-55.7Q9.1,-56.2 8.9,-56.75Q8.7,-57.3 8.5,-57.6Q8.3,-58 8.3,-58.5Q8.3,-59.8 9.7,-59.8Q10,-59.8 10.1,-59.75Q10.2,-59.7 10.3,-59.7Q11.4,-59.5 12.65,-59.4Q13.9,-59.3 14.9,-59.3L16.2,-59.3L45.7,-61.1L45.6,-73Q45.6,-75.1 44.5,-76.7Q44,-77.4 44,-78.2Q44,-79.6 46.2,-79.6Q48.4,-79.6 51,-78.7Q53.6,-77.8 53.6,-76.1L53.5,-61.5L81.4,-63.2Q82.3,-63.3 83.6,-63.45Q84.9,-63.6 86.3,-64Q86.7,-64.1 87.3,-64.1Q88.8,-64.1 90.25,-63.05Q91.7,-62 92.75,-60.8Q93.8,-59.6 93.8,-58.8Q93.8,-56.9 91.3,-56.6L73.4,-55.5Z"></path><path transform="translate(200 100)" d="M47.7,-57.9Q46,-46.5 42,-35.5Q45.7,-30 47.55,-27Q49.4,-24 50.05,-22.7Q50.7,-21.4 50.7,-20.9Q50.7,-19.5 49.15,-18.2Q47.6,-16.9 46.3,-16.9Q45,-16.9 44,-18.9Q42.7,-21.4 41.25,-23.95Q39.8,-26.5 38.9,-28Q36.6,-22.8 33.45,-17.75Q30.3,-12.7 27.55,-9.65Q24.8,-6.6 23.4,-6.6Q22.2,-6.6 22.2,-8Q22.2,-9.2 23.3,-10.9Q26.5,-15.6 29.5,-21.75Q32.5,-27.9 34.9,-34.5Q32.7,-38.1 30.35,-41.3Q28,-44.5 25.9,-47.1Q25.6,-47.6 25.3,-48.05Q25,-48.5 25,-49.1Q25,-50.3 26.4,-51.35Q27.8,-52.4 28.6,-52.4Q29.7,-52.4 32.3,-49.2Q34.9,-46 37.4,-42.3Q39.5,-49.3 40.5,-57.5L40.5,-57.9Q40.5,-59.1 40,-60.7Q39.9,-61 39.9,-61.3Q39.9,-62.6 41.5,-62.6Q42.5,-62.6 43.9,-62.15Q45.3,-61.7 46.5,-60.8Q47.7,-59.9 47.7,-58.3L47.7,-57.9ZM63.6,-59.5Q63.6,-60.7 63.2,-61.9Q63.1,-62.2 63.1,-62.7Q63.1,-63.9 64.6,-63.9Q64.9,-63.9 66.4,-63.5Q67.9,-63.1 69.5,-62.25Q71.1,-61.4 71.1,-59.7Q71.1,-59.1 70.65,-55.7Q70.2,-52.3 69.15,-47.3Q68.1,-42.3 66.3,-37.1Q66.4,-37 67.6,-35.4Q68.8,-33.8 70.35,-31.65Q71.9,-29.5 73.35,-27.35Q74.8,-25.2 75.85,-23.45Q76.9,-21.7 76.9,-20.8Q76.9,-19.5 75.4,-18.15Q73.9,-16.8 72.5,-16.8Q71.2,-16.8 69.9,-19Q68.6,-21.5 66.7,-24.4Q64.8,-27.3 63.4,-29.3Q60.2,-21.2 56,-14.5Q51.8,-7.8 48.3,-4.1Q44.8,-0.4 43.2,-0.4Q41.9,-0.4 41.9,-1.8Q41.9,-3.1 43.4,-5.1Q48.1,-10.9 52.15,-18.95Q56.2,-27 58.9,-35.7Q53.4,-43.3 49.2,-48.2Q48,-49.5 48,-50.4Q48,-51.1 48.45,-51.6Q48.9,-52.1 49.4,-52.6Q50.7,-53.7 51.6,-53.7Q52.3,-53.7 53.25,-52.9Q54.2,-52.1 56.25,-49.85Q58.3,-47.6 61.2,-43.8Q61.9,-46.7 62.6,-50.75Q63.3,-54.8 63.6,-58.7L63.6,-59.5ZM78.7,-67.2L21.5,-63.6L21.5,6Q21.5,9.3 18.9,9.3Q18.7,9.3 17.3,8.9Q15.9,8.5 14.55,7.3Q13.2,6.1 13.2,3.7Q13.2,3 13.3,2.6Q13.9,-0.4 13.9,-3.2L14,-63.9Q14,-65.4 13.8,-66.8Q13.6,-68.2 13.1,-69.2Q12.4,-70.2 12.4,-71.2Q12.4,-72.7 14.2,-72.7Q16,-72.7 21.3,-70.4L80.4,-74.2L81.7,-74.2Q84,-74.2 85.1,-73.15Q86.2,-72.1 86.5,-71.1Q86.8,-70.1 86.8,-69.9Q86.8,-69.1 86.55,-68.65Q86.3,-68.2 86.3,-68L85.6,0.4Q85.6,1.3 85.75,2.25Q85.9,3.2 85.9,4.1Q85.9,6.2 84.35,7.95Q82.8,9.7 80.8,9.7Q79.2,9.7 77,8.5Q74.8,7.3 72.35,5.55Q69.9,3.8 67.8,1.9Q65.7,-0 64.25,-1.65Q62.8,-3.3 62.8,-4.4Q62.8,-5.5 64.05,-5.5Q65.3,-5.5 67.4,-4.5Q70.3,-3 73.5,-1.75Q76.7,-0.5 78.1,-0.2L78.7,-67.2Z"></path><path transform="translate(300 100)" d="M56.3,-21.2Q56.7,-19 56.9,-15.6Q57.1,-12.2 57.2,-9.2L57.2,-7.5Q57.2,-1.5 56.6,2.1Q56,5.7 54.95,7.55Q53.9,9.4 52.7,10.05Q51.5,10.7 50.6,10.7Q49.2,10.7 46.55,9.35Q43.9,8 40.85,6.05Q37.8,4.1 35.15,2Q32.5,-0.1 30.65,-1.9Q28.8,-3.7 28.8,-4.7Q28.8,-5.8 30.1,-5.8Q31.1,-5.8 33.2,-4.8Q40.3,-1.2 44.6,0.2Q48.5,1.5 48.9,1.6Q48.9,1.6 48.9,1.5Q49.3,-1 49.5,-3.6Q49.7,-6.2 49.7,-9Q49.7,-12.2 49.45,-15.35Q49.2,-18.5 48.8,-20.9L14.8,-19.5Q14,-19.5 13.3,-19.45Q12.6,-19.4 12,-19.4Q9.7,-19.4 8.7,-20.6Q8,-21.7 7.3,-22.7Q6.6,-23.7 6.1,-24.8Q6,-25.2 6,-25.7Q6,-26.9 7.1,-26.9Q7.5,-26.9 7.8,-26.8Q9.8,-26.2 12,-26.2L12.9,-26.2L47.1,-27.8Q46.2,-30.9 44.5,-34.2Q43.8,-35.6 43.8,-36.5Q43.8,-38 44.9,-38.6Q46,-39.2 47.05,-39.35Q48.1,-39.5 48.3,-39.5Q49.8,-39.5 50.8,-37.5L50.9,-37.3Q54.1,-39.5 57.65,-42.35Q61.2,-45.2 62.4,-46.7L34.4,-44.4Q33.5,-44.3 32.65,-44.25Q31.8,-44.2 31.2,-44.2Q28.9,-44.2 27.9,-45.2Q26.1,-47 25.4,-48.5Q24.7,-50 24.7,-50.5Q24.7,-51.8 26,-51.8Q26.5,-51.8 26.8,-51.7Q27.7,-51.5 28.6,-51.35Q29.5,-51.2 30.5,-51.2Q31,-51.2 31.35,-51.2Q31.7,-51.2 32.1,-51.3L66.6,-53.9Q67.1,-54 67.5,-54Q67.9,-54 68.2,-54Q69.9,-54 71.3,-53.15Q72.7,-52.3 73.55,-51.15Q74.4,-50 74.4,-49.2Q74.4,-47.9 73.3,-47.1Q72.2,-46.3 71.7,-45.9Q62.5,-36.6 53.8,-30.9L54.7,-28.1L83.4,-29.4Q84.4,-29.5 85.55,-29.65Q86.7,-29.8 87.7,-30.2Q88.4,-30.4 88.8,-30.4Q89.7,-30.4 91.2,-29.5Q92.7,-28.6 94,-27.35Q95.3,-26.1 95.3,-24.8Q95.3,-23.7 94.3,-23.3Q93.3,-22.9 92.1,-22.8L56.3,-21.2ZM22.3,-60.2Q20.4,-55.1 19,-51.9Q17.6,-48.7 16.75,-47.15Q15.9,-45.6 15.25,-45.1Q14.6,-44.6 13.9,-44.6Q13.7,-44.6 12.5,-45.1Q11.3,-45.6 10.15,-46.45Q9,-47.3 9,-48.6Q9,-49 9.15,-49.35Q9.3,-49.7 9.4,-50Q12,-54.8 14.25,-60.1Q16.5,-65.4 18.1,-70.1Q18.9,-72.5 20.7,-72.5Q21.4,-72.5 22.5,-72.2Q25.3,-71.1 25.3,-69.4Q25.3,-69 25.1,-68.1L24.7,-67L46,-68.2L45.9,-75.6Q45.9,-77.3 44.5,-79.3Q43.9,-80.2 43.9,-80.8Q43.9,-82.2 45.9,-82.2Q46,-82.2 47.15,-82.05Q48.3,-81.9 49.75,-81.55Q51.2,-81.2 52.5,-80.4Q53.8,-79.6 53.8,-78.2L53.6,-68.6L86.6,-70.5L87.5,-70.5Q89.7,-70.5 91.25,-69.15Q92.8,-67.8 92.8,-66.4Q92.8,-65.3 92.05,-64.65Q91.3,-64 90.9,-63.4Q90.9,-63.3 89.9,-61.8Q88.9,-60.3 87.4,-58.1Q85.9,-55.9 84.25,-53.75Q82.6,-51.6 81,-50.05Q79.4,-48.5 78.3,-48.5Q76.9,-48.5 76.9,-50Q76.9,-51.2 77.9,-52.8Q81,-58.3 82.7,-63.5L22.3,-60.2Z"></path><path transform="translate(400 100)" d="M34.4,-56Q32.9,-56 30.8,-58.7Q25.3,-65.7 19.2,-71.1Q17.8,-72.3 17.8,-73.3Q17.8,-74.1 18.8,-75.5Q19.8,-76.9 21.2,-76.9Q22.4,-76.9 24.4,-75.4Q26.4,-73.9 28.9,-71.7Q31.4,-69.5 33.7,-67.2Q36,-64.9 37.65,-63.05Q39.3,-61.2 39.3,-60.1Q39.3,-58.9 37.55,-57.45Q35.8,-56 34.4,-56ZM69,10.4Q68.7,10.4 67.25,9.9Q65.8,9.4 64.4,8.2Q63,7 63,5.5Q63,4.2 63.45,2.4Q63.9,0.6 63.9,-2.1L64,-42.4L49.4,-41.6Q48.9,-41.5 47.7,-41.5Q44.3,-41.5 42.25,-42.85Q40.2,-44.2 39.6,-48.3Q39.6,-49.4 40.5,-49.4Q40.8,-49.4 41.85,-48.95Q42.9,-48.5 45.2,-48.5Q46.5,-48.5 64,-49.4L64,-74.9Q64,-77.6 62.8,-78.8Q62.2,-79.5 62.2,-80.2Q62.2,-81.6 64.2,-81.6Q65.6,-81.6 67.8,-80.9Q70,-80.2 70.7,-79.5Q71.4,-78.8 71.4,-77.3L71.4,-49.8L86.2,-50.6Q89.5,-50.9 90.4,-51.25Q91.3,-51.6 91.8,-51.6Q92.4,-51.6 93.8,-50.6Q97.5,-47.8 97.5,-45.9Q97.5,-44.3 94.7,-44L71.4,-42.7L71.4,7.2Q71.4,10.4 69,10.4ZM25,0.6L24.5,0.6Q23.3,0.6 21.55,-0.45Q19.8,-1.5 18.35,-2.95Q16.9,-4.4 16.8,-5.3Q16.8,-6.3 18.95,-6.7Q21.1,-7.1 23.6,-8L24.9,-41.7Q13.1,-40.6 11.9,-40.6Q8.9,-40.6 7,-42.7Q5.1,-44.8 5.1,-46Q5.1,-47.6 6.4,-47.6Q9,-47.2 10.6,-47.2L29,-49.1Q30,-49.1 31.85,-47.9Q33.7,-46.7 33.7,-45.4Q33.7,-44 32.8,-43.3L32.3,-42.7L31,-11.7Q32,-12.3 37.55,-16.35Q43.1,-20.4 44.8,-20.4Q46.3,-20.4 46.3,-19.2Q46.3,-18.4 44.45,-16.45Q42.6,-14.5 37,-8.5Q31.4,-2.5 28.8,-1Q26.2,0.5 25,0.6Z"></path><path transform="translate(500 100)" d="M49.3,-59.55Q47.7,-58.2 46.55,-58.2Q45.4,-58.2 42.8,-61.85Q40.2,-65.5 34.3,-70.7Q32.8,-72 32.8,-73.2Q32.8,-74.4 34.2,-75.55Q35.6,-76.7 36.45,-76.7Q37.3,-76.7 39.9,-74.7Q42.5,-72.7 46.7,-68.3Q50.9,-63.9 50.9,-62.4Q50.9,-60.9 49.3,-59.55ZM44.6,-40L44.6,-41.7Q44.7,-43.8 46.3,-44Q46.9,-44 48.4,-43.1Q52.6,-40.8 52.6,-37.9Q52.5,-37.1 50.6,-33.7Q45.6,-24.3 38.9,-16.1Q43.4,-7 50.8,-0.8Q50.9,-0.7 51.1,-0.7Q52.6,-0.7 56,-15.1L56.4,-16.7Q56.6,-18.5 57.35,-19.5Q58.1,-20.5 58.9,-20.5Q61,-20.5 60.9,-16.5L60.8,-16.1Q60.3,-5.8 58.1,2.3Q57.4,4.9 56.3,6.5Q55.2,8.1 53.3,8.1Q51.4,8.1 48.2,6.45Q45,4.8 41.2,0.6Q37.4,-3.6 33.9,-10.5Q27.3,-3.5 17.9,2.6Q9.4,8 7.4,8Q5.9,8.2 5.95,6.95Q6,5.7 7.6,4.4Q22.6,-7.1 30.8,-16.8Q26.5,-25.7 23.2,-43.2L15.2,-41.9Q14.2,-41.7 12.8,-41.7Q10.2,-41.6 7.9,-46L7.7,-46.7Q7.7,-48.1 9.2,-48.1L9.5,-48.1Q10,-48 10.3,-48L11.1,-48.1Q12.6,-48.1 14.3,-48.4L22.2,-49.7Q20.6,-59.7 20.2,-72.4Q20.1,-75 18.2,-76.4Q17.4,-76.9 17.4,-77.85Q17.4,-78.8 20.3,-78.85Q23.2,-78.9 25.2,-78.05Q27.2,-77.2 27.2,-75.4L27.2,-75.2Q27.7,-61.4 29.1,-50.8L49.3,-54.2Q50.9,-54.5 51.95,-54.95Q53,-55.4 53.9,-55.45Q54.8,-55.5 56,-54.6Q59,-52.4 58.7,-50.9Q58.7,-49.1 55.6,-48.7L30.1,-44.3Q31.8,-35 35.9,-23.5Q40,-29 42.3,-33.8Q44.6,-38.6 44.6,-40ZM65,-56.9Q65,-59.1 63.8,-61.1Q63.4,-61.9 63.4,-62.3Q63.4,-63.7 64.9,-63.7Q66.4,-63.7 68.65,-62.9Q70.9,-62.1 71.45,-61.3Q72,-60.5 72,-59.2L71.9,-15Q71.9,-12.3 69.7,-12.3Q67.4,-12.3 65.75,-13.8Q64.1,-15.3 64.1,-17L64.1,-17.5Q64.1,-17.9 64.4,-19.25Q64.7,-20.6 64.7,-23.6L65,-56.9ZM90.1,1.9L90.3,5.3Q90.3,7.3 88.6,9.25Q86.9,11.2 85.15,11.2Q83.4,11.2 81.25,9.85Q79.1,8.5 76.55,6.55Q74,4.6 71.8,2.45Q69.6,0.3 68.05,-1.45Q66.5,-3.2 66.5,-4.2Q66.5,-5.2 67.75,-5.2Q69,-5.2 73.55,-2.85Q78.1,-0.5 82.4,1.2L82.4,-74.8Q82.4,-76.8 81.45,-78.2Q80.5,-79.6 80.5,-80.65Q80.5,-81.7 82.2,-81.7Q83.9,-81.7 86.3,-80.8Q88.7,-79.9 89.4,-79.15Q90.1,-78.4 90.1,-77.1L90.1,1.9Z"></path><path transform="translate(0 200)" d="M30.7,1.7Q28.6,1.7 26.45,0.8Q24.3,-0.1 24.3,-1.8L24.5,-10.7L24.6,-62.6Q9.7,-61.7 7.8,-61.5Q5.5,-61.1 4.3,-61Q2.5,-61 1.4,-63Q0.3,-65 0.3,-66.9Q0.3,-69.1 2.2,-69.1L9.3,-68.9Q49.4,-71.1 53.1,-71.6Q54.9,-71.6 55.9,-69.55Q56.9,-67.5 56.9,-65.8Q56.9,-63.5 55.1,-63.5L47.1,-63.8L32.8,-63Q32.9,-10.6 33.2,-0Q33.2,1.7 30.7,1.7Z"></path><path transform="translate(58 200)" d="M48.2,1.7Q46.3,1.7 44.25,0.85Q42.2,-0 42.2,-1.7Q42.4,-3.4 42.4,-29.3Q42.4,-35.1 40.9,-38.4Q39.4,-41.7 34.8,-41.7Q16.9,-41.7 16.6,-16.2L16.4,-9.7Q16.4,-5.9 16.7,0.1Q16.7,1.7 14.4,1.7Q12.5,1.7 10.45,0.85Q8.4,-0 8.4,-1.7L8.6,-11.5Q8.6,-59 8.3,-69.7Q8.3,-71.3 10.7,-71.3Q12.5,-71.3 14.55,-70.45Q16.6,-69.6 16.6,-67.9Q16.4,-58 16.4,-39.8Q18.6,-43.3 23.85,-46.2Q29.1,-49.1 34.4,-49.1Q44,-49.1 47.5,-42.5Q50.2,-37.8 50.2,-29.7Q50.2,-10.5 50.5,0.1Q50.5,1.7 48.2,1.7Z"></path><path transform="translate(117 200)" d="M15.5,-25.8Q26.6,-25.8 36,-28.4Q39.4,-29.4 40.35,-30.55Q41.3,-31.7 41.3,-34.1Q41.3,-42.2 31.8,-42.2Q25.2,-42.2 20.35,-36.6Q15.5,-31 14.3,-25.8L15.5,-25.8ZM24.4,2.4Q19.1,2.4 14.8,-0.2Q5.6,-5.9 5.6,-20.6Q3.5,-22.2 3.5,-24.1Q3.5,-26 6,-26L6.4,-26Q7.8,-33.7 15.05,-41.45Q22.3,-49.2 31.9,-49.2Q38.3,-49.2 42.1,-46.9Q49.1,-42.8 49.1,-34Q49.1,-30.5 48.5,-28.35Q47.9,-26.2 45.8,-24.9Q43.7,-23.6 39.1,-22.1Q29,-19 13.3,-19Q13.3,-12.3 16.5,-8.5Q19.7,-4.7 25.1,-4.7Q37.4,-4.7 45.1,-12.9Q46.5,-14.6 47.8,-14.6Q49.4,-14.6 49.4,-13Q49.4,-11.7 47.9,-9.3Q46.4,-6.9 43.3,-4.2Q35.8,2.4 24.4,2.4Z"></path><path transform="translate(171 200)" d=""></path><path transform="translate(206 200)" d="M18.9,-37.2Q35.4,-38.3 42.55,-43.1Q49.7,-47.9 49.7,-54.1Q49.7,-64.2 31.8,-64.2Q24.8,-64.2 18.2,-62.3L18.2,-37.3Q18.2,-37.2 18.9,-37.2ZM16.1,1.7Q14.1,1.7 11.95,0.85Q9.8,-0 9.8,-1.7Q10,-11.6 10,-61.2Q8.7,-61.2 7.05,-63.2Q5.4,-65.2 5.4,-66.6Q5.4,-68.2 6.8,-68.4Q23.4,-71.6 26.35,-71.65Q29.3,-71.7 32,-71.7Q58.1,-71.7 58.1,-54.2Q58.1,-45.6 52.4,-40.3Q42.9,-31.4 21.5,-31.4Q18.5,-31.4 18.2,-31.5Q18.2,-11.5 18.5,0.1Q18.5,1.7 16.1,1.7Z"></path><path transform="translate(268 200)" d="M14.7,1.6Q12.8,1.6 10.7,0.75Q8.6,-0.1 8.6,-1.8L8.8,-10.6Q8.8,-36.7 8.5,-47.4Q8.5,-49 10.9,-49Q12.8,-49 14.9,-48.15Q17,-47.3 17,-45.8Q17,-43.6 16.9,-42.8Q18,-44.4 21.5,-46.7Q25.3,-49.2 29.6,-49.2Q33.8,-49.2 36.5,-48.15Q39.2,-47.1 41,-45.6Q42.8,-44.1 42.8,-42.4Q42.8,-40.8 41.5,-38.8Q40.2,-36.8 38.9,-36.8Q37.5,-36.8 36.7,-38.1Q35.8,-39.8 33.8,-40.65Q31.8,-41.5 30.4,-41.5Q26.4,-41.5 23,-39Q18,-35.4 17,-26.5Q16.6,-23 16.6,-10.6L17.1,-0Q17.1,1.6 14.7,1.6Z"></path><path transform="translate(311 200)" d="M26.7,-4.9Q31.4,-4.9 35.1,-7.45Q38.8,-10 41.05,-14.45Q43.3,-18.9 43.3,-25.8Q43.3,-32.6 40.2,-37.3Q37.1,-42 30.1,-42Q23.1,-42 18,-35.35Q12.9,-28.7 12.9,-20.8Q12.9,-4.9 26.7,-4.9ZM27.3,2.4Q16.4,2.4 10.7,-3.85Q5,-10.1 5,-20.7Q5,-28.9 10.1,-37.7Q12.1,-41.4 14.2,-43.7Q16.3,-46 17.7,-46Q19,-46 19.5,-45.3Q24.7,-49.2 30.9,-49.2Q37.1,-49.2 41.6,-46.2Q51.2,-39.9 51.2,-24.5Q51.2,-14.1 44.9,-6.2Q38.1,2.4 27.3,2.4Z"></path><path transform="translate(367 200)" d="M10.2,16.8Q5.6,16.8 2.55,15.15Q-0.5,13.5 -0.5,11.4Q-0.5,9.6 0.65,7.8Q1.8,6 3.2,6Q4.6,6 5.95,7.7Q7.3,9.4 10.4,9.4Q13.3,9.4 13.3,3.1Q13.3,-36.4 13,-47.5Q13,-49.1 15.4,-49.1Q17.3,-49.1 19.4,-48.25Q21.5,-47.4 21.5,-45.7Q21.3,-36.4 21.3,3Q21.3,10.8 17.2,14.5Q14.8,16.8 10.2,16.8ZM17.6,-58.4Q15.2,-58.4 13.5,-60.55Q11.8,-62.7 11.8,-65Q11.8,-67.2 13.2,-68.8Q14.6,-70.4 17.1,-70.4Q19.5,-70.4 21.2,-68.2Q22.9,-66 22.9,-63.8Q22.9,-61.5 21.45,-59.95Q20,-58.4 17.6,-58.4Z"></path><path transform="translate(397 200)" d="M15.5,-25.8Q26.6,-25.8 36,-28.4Q39.4,-29.4 40.35,-30.55Q41.3,-31.7 41.3,-34.1Q41.3,-42.2 31.8,-42.2Q25.2,-42.2 20.35,-36.6Q15.5,-31 14.3,-25.8L15.5,-25.8ZM24.4,2.4Q19.1,2.4 14.8,-0.2Q5.6,-5.9 5.6,-20.6Q3.5,-22.2 3.5,-24.1Q3.5,-26 6,-26L6.4,-26Q7.8,-33.7 15.05,-41.45Q22.3,-49.2 31.9,-49.2Q38.3,-49.2 42.1,-46.9Q49.1,-42.8 49.1,-34Q49.1,-30.5 48.5,-28.35Q47.9,-26.2 45.8,-24.9Q43.7,-23.6 39.1,-22.1Q29,-19 13.3,-19Q13.3,-12.3 16.5,-8.5Q19.7,-4.7 25.1,-4.7Q37.4,-4.7 45.1,-12.9Q46.5,-14.6 47.8,-14.6Q49.4,-14.6 49.4,-13Q49.4,-11.7 47.9,-9.3Q46.4,-6.9 43.3,-4.2Q35.8,2.4 24.4,2.4Z"></path><path transform="translate(451 200)" d="M25,2.4Q19.6,2.4 15.05,-0.15Q10.5,-2.7 7.75,-7.55Q5,-12.4 5,-19Q5,-25.5 7.3,-30.9Q9.6,-36.3 13.35,-40.4Q17.1,-44.5 21.85,-46.85Q26.6,-49.2 31.1,-49.2Q35.5,-49.2 38.4,-48Q41.3,-46.8 43.05,-45.15Q44.8,-43.5 45.6,-42.05Q46.4,-40.6 46.4,-40.1Q46.4,-38.3 44.7,-36.6Q43,-34.9 41.9,-34.9Q40.7,-34.9 40.2,-35.7Q38.3,-39.5 37.2,-40.2Q34.4,-42.1 31.5,-42.1Q25.4,-42.1 19.2,-35.6Q13,-28.6 13,-19.9Q13,-14.9 14.9,-11.5Q18.7,-4.6 25.7,-4.6Q35.1,-4.6 44.9,-14.4Q46.6,-16.1 47.7,-16.1Q49.2,-16.1 49.2,-14.6Q49.2,-13.5 47.75,-10.85Q46.3,-8.2 43.3,-5.2Q36,2.4 25,2.4Z"></path><path transform="translate(504 200)" d="M20.4,2.4Q10.7,2.4 10.7,-11L10.7,-41.8L4.7,-41.4Q3,-41.4 1.95,-43.1Q0.9,-44.8 0.9,-46.4Q0.9,-48.3 2.6,-48.3L10.7,-48.3Q10.7,-55.6 10.5,-63.5Q10.5,-65.1 12.9,-65.1Q14.8,-65.1 16.85,-64.25Q18.9,-63.4 18.9,-61.7Q18.7,-55.2 18.7,-48.6Q23.3,-48.8 28.5,-49.3Q30.2,-49.3 31.3,-47.6Q32.4,-45.9 32.4,-44.3Q32.4,-42.3 30.7,-42.3Q25.9,-42.3 18.7,-42.1L18.7,-10.8Q18.7,-7 19.25,-6.1Q19.8,-5.2 21.4,-5.2Q25.4,-5.2 30.6,-9.2Q32.5,-10.6 33.7,-10.6Q35.3,-10.6 35.3,-9Q35.3,-6.6 30.6,-2.2Q25.4,2.4 20.4,2.4Z"></path><path transform="translate(540 200)" d=""></path><path transform="translate(575 200)" d="M16.1,1.5Q14.1,1.5 11.95,0.65Q9.8,-0.2 9.8,-1.9Q10,-10.8 10,-34Q9,-34.6 8.15,-36.35Q7.3,-38.1 7.3,-39.3Q7.3,-41 8.9,-41L10,-40.8L10,-63.4L9.6,-68.5Q9.6,-70.5 11.6,-70.5Q13.1,-70.5 15.1,-69.9L17.1,-69.2Q45.3,-71.1 48.8,-71.5Q51.4,-71.8 52.6,-71.8Q54,-71.8 55.15,-69.85Q56.3,-67.9 56.3,-66.1Q56.3,-63.9 54.4,-63.9Q45.6,-63.9 18.2,-62L18.2,-40.9Q39.7,-42.3 43.3,-42.7Q45.9,-43 47.1,-43Q48.5,-43 49.65,-41.05Q50.8,-39.1 50.8,-37.3Q50.8,-35.1 48.9,-35.1Q40.4,-35.1 18.2,-33.8Q18.2,-10.7 18.5,-0.1Q18.5,1.5 16.1,1.5Z"></path><path transform="translate(633 200)" d="M26.7,-4.9Q31.4,-4.9 35.1,-7.45Q38.8,-10 41.05,-14.45Q43.3,-18.9 43.3,-25.8Q43.3,-32.6 40.2,-37.3Q37.1,-42 30.1,-42Q23.1,-42 18,-35.35Q12.9,-28.7 12.9,-20.8Q12.9,-4.9 26.7,-4.9ZM27.3,2.4Q16.4,2.4 10.7,-3.85Q5,-10.1 5,-20.7Q5,-28.9 10.1,-37.7Q12.1,-41.4 14.2,-43.7Q16.3,-46 17.7,-46Q19,-46 19.5,-45.3Q24.7,-49.2 30.9,-49.2Q37.1,-49.2 41.6,-46.2Q51.2,-39.9 51.2,-24.5Q51.2,-14.1 44.9,-6.2Q38.1,2.4 27.3,2.4Z"></path><path transform="translate(689 200)" d="M14.7,1.6Q12.8,1.6 10.7,0.75Q8.6,-0.1 8.6,-1.8L8.8,-10.6Q8.8,-36.7 8.5,-47.4Q8.5,-49 10.9,-49Q12.8,-49 14.9,-48.15Q17,-47.3 17,-45.8Q17,-43.6 16.9,-42.8Q18,-44.4 21.5,-46.7Q25.3,-49.2 29.6,-49.2Q33.8,-49.2 36.5,-48.15Q39.2,-47.1 41,-45.6Q42.8,-44.1 42.8,-42.4Q42.8,-40.8 41.5,-38.8Q40.2,-36.8 38.9,-36.8Q37.5,-36.8 36.7,-38.1Q35.8,-39.8 33.8,-40.65Q31.8,-41.5 30.4,-41.5Q26.4,-41.5 23,-39Q18,-35.4 17,-26.5Q16.6,-23 16.6,-10.6L17.1,-0Q17.1,1.6 14.7,1.6Z"></path><path transform="translate(732 200)" d=""></path><path transform="translate(767 200)" d="M64,2.4Q61.7,2.4 59.65,0.65Q57.6,-1.1 56.7,-4.5Q49,-37.7 43.9,-56Q41.1,-47 36.75,-31.35Q32.4,-15.7 31.05,-10.95Q29.7,-6.2 29.3,-4.4Q28.9,-2.6 28.05,-0.15Q27.2,2.3 25,2.3Q22.9,2.3 20.95,0.55Q19,-1.2 18.1,-4.5Q5.6,-56 0.5,-68.1Q0.3,-68.5 0.3,-68.9Q0.3,-71.1 4.9,-71.1Q9.3,-71.1 9.9,-68.55Q10.5,-66 11.2,-63.4Q17.6,-41.6 23.6,-12.7Q26.5,-24.7 30.3,-37.6Q34.1,-50.5 36.15,-57.5Q38.2,-64.5 38.3,-67.05Q38.4,-69.6 42.7,-69.6Q44.6,-69.6 46.55,-68.9Q48.5,-68.2 48.7,-66.85Q48.9,-65.5 49.95,-62.1Q51,-58.7 55.35,-42.15Q59.7,-25.6 62.6,-12.4Q70.1,-39.9 73.75,-51.85Q77.4,-63.8 79,-70.3Q79.5,-71.7 81.3,-71.7Q82.7,-71.7 84.2,-71.2Q88,-69.6 88,-67.3Q88,-66.9 87.4,-65.4Q82.5,-53.9 68.9,-7.7L67.2,-0.6Q66.5,2.4 64,2.4Z"></path><path transform="translate(855 200)" d="M15.5,-25.8Q26.6,-25.8 36,-28.4Q39.4,-29.4 40.35,-30.55Q41.3,-31.7 41.3,-34.1Q41.3,-42.2 31.8,-42.2Q25.2,-42.2 20.35,-36.6Q15.5,-31 14.3,-25.8L15.5,-25.8ZM24.4,2.4Q19.1,2.4 14.8,-0.2Q5.6,-5.9 5.6,-20.6Q3.5,-22.2 3.5,-24.1Q3.5,-26 6,-26L6.4,-26Q7.8,-33.7 15.05,-41.45Q22.3,-49.2 31.9,-49.2Q38.3,-49.2 42.1,-46.9Q49.1,-42.8 49.1,-34Q49.1,-30.5 48.5,-28.35Q47.9,-26.2 45.8,-24.9Q43.7,-23.6 39.1,-22.1Q29,-19 13.3,-19Q13.3,-12.3 16.5,-8.5Q19.7,-4.7 25.1,-4.7Q37.4,-4.7 45.1,-12.9Q46.5,-14.6 47.8,-14.6Q49.4,-14.6 49.4,-13Q49.4,-11.7 47.9,-9.3Q46.4,-6.9 43.3,-4.2Q35.8,2.4 24.4,2.4Z"></path><path transform="translate(909 200)" d="M27.5,-4.7Q33.1,-4.7 38.7,-10.9Q44.3,-17.1 44.3,-27.2Q44.3,-42 33.8,-42Q30.6,-42 26.95,-39.85Q23.3,-37.7 20.2,-33.2Q17.1,-28.7 16.5,-20.9Q16.2,-16.7 16.2,-11.1L16.1,-11Q16.1,-10.9 16.3,-10.9Q17.7,-10.9 19.4,-8.4Q21.9,-4.7 27.5,-4.7ZM27.2,2.3Q23.1,2.3 19.95,0.5Q16.8,-1.3 15.8,-2.7L15.8,-3L15.7,-2.1Q15.5,-1.2 13.85,-0.05Q12.2,1.1 10.7,1.1Q8.4,1.1 8.4,-1.5L8.6,-10.6Q8.6,-59.3 8.3,-69.9Q8.3,-71.5 10.7,-71.5Q12.6,-71.5 14.7,-70.65Q16.8,-69.8 16.8,-68.1L16.4,-59.2L16.4,-39.1Q19.4,-44.2 24.2,-46.7Q29,-49.2 34.6,-49.2Q42.4,-49.2 47.35,-43.7Q52.3,-38.2 52.3,-28.7Q52.3,-19.3 48.95,-12.45Q45.6,-5.6 39.9,-1.65Q34.2,2.3 27.2,2.3Z"></path></svg>